<svg xmlns="http://www.w3.org/2000/svg" viewBox="0 0 420.0 297.0" width="420.0mm" height="297.0mm" font-family="'IBM Plex Sans KR','Apple SD Gothic Neo','Noto Sans KR','Malgun Gothic',sans-serif"><title>SCH-07 오디오 (CU)</title><style>
.frame{fill:none;stroke:#7a1f1f;stroke-width:.35}
.frame2{fill:none;stroke:#7a1f1f;stroke-width:.2}
.zone{font:2.2px 'IBM Plex Mono',Menlo,Consolas,monospace;fill:#7a1f1f;text-anchor:middle}
.tb{fill:none;stroke:#7a1f1f;stroke-width:.3}
.tbk{font:1.9px 'IBM Plex Sans KR','Apple SD Gothic Neo','Noto Sans KR','Malgun Gothic',sans-serif;fill:#7a1f1f}
.tbv{font:2.8px 'IBM Plex Sans KR','Apple SD Gothic Neo','Noto Sans KR','Malgun Gothic',sans-serif;fill:#101820}
.tbt{font:600 4.6px 'IBM Plex Sans KR','Apple SD Gothic Neo','Noto Sans KR','Malgun Gothic',sans-serif;fill:#101820}
.tbs{font:600 3.2px 'IBM Plex Sans KR','Apple SD Gothic Neo','Noto Sans KR','Malgun Gothic',sans-serif;fill:#101820}
.wire{fill:none;stroke:#0b7a2a;stroke-width:.3;stroke-linecap:round;stroke-linejoin:round}
.bus{fill:none;stroke:#1f4fa0;stroke-width:.8}
.cable{fill:none;stroke:#8a5a00;stroke-width:.45;stroke-dasharray:2.2 1.1}
.jn{fill:#0b7a2a}
.body{fill:#fffbe6;stroke:#8c1c13;stroke-width:.3}
.bodyl{fill:none;stroke:#8c1c13;stroke-width:.3}
.bodyf{fill:#8c1c13;stroke:#8c1c13;stroke-width:.2}
.mod{fill:#eef4fb;stroke:#1f4fa0;stroke-width:.35}
.modl{fill:none;stroke:#1f4fa0;stroke-width:.3}
.pinl{stroke:#8c1c13;stroke-width:.3}
.pinnum{font:1.9px 'IBM Plex Mono',Menlo,Consolas,monospace;fill:#a3281b}
.pinname{font:2.3px 'IBM Plex Mono',Menlo,Consolas,monospace;fill:#0e5e5e}
.pinnameh{font:2.3px 'IBM Plex Sans KR','Apple SD Gothic Neo','Noto Sans KR','Malgun Gothic',sans-serif;fill:#0e5e5e}
.ref{font:600 2.7px 'IBM Plex Sans KR','Apple SD Gothic Neo','Noto Sans KR','Malgun Gothic',sans-serif;fill:#0e4a6e}
.val{font:2.4px 'IBM Plex Sans KR','Apple SD Gothic Neo','Noto Sans KR','Malgun Gothic',sans-serif;fill:#0e4a6e}
.part{font:1.9px 'IBM Plex Sans KR','Apple SD Gothic Neo','Noto Sans KR','Malgun Gothic',sans-serif;fill:#56657a}
.lbl{font:600 2.4px 'IBM Plex Mono',Menlo,Consolas,monospace;fill:#101820}
.glbl{fill:#fff;stroke:#7a1f1f;stroke-width:.3}
.glblt{font:600 2.2px 'IBM Plex Mono',Menlo,Consolas,monospace;fill:#7a1f1f}
.pwr{fill:none;stroke:#7a1f1f;stroke-width:.35}
.pwrt{font:600 2.4px 'IBM Plex Mono',Menlo,Consolas,monospace;fill:#7a1f1f}
.nc{stroke:#1f4fa0;stroke-width:.35}
.note{font:2.35px 'IBM Plex Sans KR','Apple SD Gothic Neo','Noto Sans KR','Malgun Gothic',sans-serif;fill:#1b2a44}
.noteb{font:600 2.8px 'IBM Plex Sans KR','Apple SD Gothic Neo','Noto Sans KR','Malgun Gothic',sans-serif;fill:#1b2a44}
.notes{font:2.0px 'IBM Plex Sans KR','Apple SD Gothic Neo','Noto Sans KR','Malgun Gothic',sans-serif;fill:#44536b}
.box{fill:none;stroke:#8a96ab;stroke-width:.25;stroke-dasharray:1.5 1}
.boxt{font:600 2.6px 'IBM Plex Sans KR','Apple SD Gothic Neo','Noto Sans KR','Malgun Gothic',sans-serif;fill:#44536b}
.tblh{font:600 2.1px 'IBM Plex Sans KR','Apple SD Gothic Neo','Noto Sans KR','Malgun Gothic',sans-serif;fill:#1b2a44}
.tbl{font:2.0px 'IBM Plex Sans KR','Apple SD Gothic Neo','Noto Sans KR','Malgun Gothic',sans-serif;fill:#1b2a44}
.tblm{font:2.0px 'IBM Plex Mono',Menlo,Consolas,monospace;fill:#1b2a44}
.tline{stroke:#b6bfcc;stroke-width:.2}
.chg{fill:#fff1c2;stroke:#b86e00;stroke-width:.3}
.chgt{font:600 1.9px 'IBM Plex Mono',Menlo,Consolas,monospace;fill:#8a4f00;text-anchor:middle}
.cabt{font:600 2.2px 'IBM Plex Sans KR','Apple SD Gothic Neo','Noto Sans KR','Malgun Gothic',sans-serif;fill:#8a5a00}
</style><rect width="420.0" height="297.0" fill="#fff"/><rect x="5.0" y="5.0" width="410.0" height="287.0" class="frame"/><rect x="9.0" y="9.0" width="402.0" height="279.0" class="frame2"/><line x1="9.00" y1="5.0" x2="9.00" y2="9.0" class="frame2"/><line x1="9.00" y1="288.0" x2="9.00" y2="292.0" class="frame2"/><line x1="59.25" y1="5.0" x2="59.25" y2="9.0" class="frame2"/><line x1="59.25" y1="288.0" x2="59.25" y2="292.0" class="frame2"/><line x1="109.50" y1="5.0" x2="109.50" y2="9.0" class="frame2"/><line x1="109.50" y1="288.0" x2="109.50" y2="292.0" class="frame2"/><line x1="159.75" y1="5.0" x2="159.75" y2="9.0" class="frame2"/><line x1="159.75" y1="288.0" x2="159.75" y2="292.0" class="frame2"/><line x1="210.00" y1="5.0" x2="210.00" y2="9.0" class="frame2"/><line x1="210.00" y1="288.0" x2="210.00" y2="292.0" class="frame2"/><line x1="260.25" y1="5.0" x2="260.25" y2="9.0" class="frame2"/><line x1="260.25" y1="288.0" x2="260.25" y2="292.0" class="frame2"/><line x1="310.50" y1="5.0" x2="310.50" y2="9.0" class="frame2"/><line x1="310.50" y1="288.0" x2="310.50" y2="292.0" class="frame2"/><line x1="360.75" y1="5.0" x2="360.75" y2="9.0" class="frame2"/><line x1="360.75" y1="288.0" x2="360.75" y2="292.0" class="frame2"/><line x1="411.00" y1="5.0" x2="411.00" y2="9.0" class="frame2"/><line x1="411.00" y1="288.0" x2="411.00" y2="292.0" class="frame2"/><text x="34.12" y="7.90" class="zone">1</text><text x="34.12" y="290.80" class="zone">1</text><text x="84.38" y="7.90" class="zone">2</text><text x="84.38" y="290.80" class="zone">2</text><text x="134.62" y="7.90" class="zone">3</text><text x="134.62" y="290.80" class="zone">3</text><text x="184.88" y="7.90" class="zone">4</text><text x="184.88" y="290.80" class="zone">4</text><text x="235.12" y="7.90" class="zone">5</text><text x="235.12" y="290.80" class="zone">5</text><text x="285.38" y="7.90" class="zone">6</text><text x="285.38" y="290.80" class="zone">6</text><text x="335.62" y="7.90" class="zone">7</text><text x="335.62" y="290.80" class="zone">7</text><text x="385.88" y="7.90" class="zone">8</text><text x="385.88" y="290.80" class="zone">8</text><line x1="5.0" y1="9.00" x2="9.0" y2="9.00" class="frame2"/><line x1="411.0" y1="9.00" x2="415.0" y2="9.00" class="frame2"/><line x1="5.0" y1="55.50" x2="9.0" y2="55.50" class="frame2"/><line x1="411.0" y1="55.50" x2="415.0" y2="55.50" class="frame2"/><line x1="5.0" y1="102.00" x2="9.0" y2="102.00" class="frame2"/><line x1="411.0" y1="102.00" x2="415.0" y2="102.00" class="frame2"/><line x1="5.0" y1="148.50" x2="9.0" y2="148.50" class="frame2"/><line x1="411.0" y1="148.50" x2="415.0" y2="148.50" class="frame2"/><line x1="5.0" y1="195.00" x2="9.0" y2="195.00" class="frame2"/><line x1="411.0" y1="195.00" x2="415.0" y2="195.00" class="frame2"/><line x1="5.0" y1="241.50" x2="9.0" y2="241.50" class="frame2"/><line x1="411.0" y1="241.50" x2="415.0" y2="241.50" class="frame2"/><line x1="5.0" y1="288.00" x2="9.0" y2="288.00" class="frame2"/><line x1="411.0" y1="288.00" x2="415.0" y2="288.00" class="frame2"/><text x="7.00" y="33.05" class="zone">A</text><text x="413.00" y="33.05" class="zone">A</text><text x="7.00" y="79.55" class="zone">B</text><text x="413.00" y="79.55" class="zone">B</text><text x="7.00" y="126.05" class="zone">C</text><text x="413.00" y="126.05" class="zone">C</text><text x="7.00" y="172.55" class="zone">D</text><text x="413.00" y="172.55" class="zone">D</text><text x="7.00" y="219.05" class="zone">E</text><text x="413.00" y="219.05" class="zone">E</text><text x="7.00" y="265.55" class="zone">F</text><text x="413.00" y="265.55" class="zone">F</text><rect x="235.00" y="254.00" width="176.0" height="34.0" class="tb" fill="#fff"/><line x1="235.00" y1="261.50" x2="411.00" y2="261.50" class="tb"/><line x1="235.00" y1="272.50" x2="411.00" y2="272.50" class="tb"/><line x1="235.00" y1="280.00" x2="411.00" y2="280.00" class="tb"/><text x="236.20" y="256.30" class="tbk">프로젝트</text><text x="236.20" y="260.00" class="tbv">Toccata v4 W1+ — 전자부 회로도</text><text x="336.20" y="256.30" class="tbk">기준 설계</text><text x="336.20" y="260.00" class="tbv">v4 W1+ · R25</text><line x1="335.00" y1="254.00" x2="335.00" y2="261.50" class="tb"/><text x="376.20" y="256.30" class="tbk">보드 / 수량</text><text x="376.20" y="260.00" class="tbv">CU × 1</text><line x1="375.00" y1="254.00" x2="375.00" y2="261.50" class="tb"/><text x="236.20" y="264.20" class="tbk">도면명</text><text x="236.20" y="270.40" class="tbt">오디오 (CU)</text><text x="236.20" y="274.80" class="tbk">도면 번호</text><text x="236.20" y="278.50" class="tbs">SCH-07</text><text x="270.20" y="274.80" class="tbk">시트</text><text x="270.20" y="278.50" class="tbs">7 / 9</text><line x1="269.00" y1="272.50" x2="269.00" y2="280.00" class="tb"/><text x="294.20" y="274.80" class="tbk">개정</text><text x="294.20" y="278.50" class="tbs">B</text><line x1="293.00" y1="272.50" x2="293.00" y2="280.00" class="tb"/><text x="310.20" y="274.80" class="tbk">날짜</text><text x="310.20" y="278.50" class="tbv">2026-09-29</text><line x1="309.00" y1="272.50" x2="309.00" y2="280.00" class="tb"/><text x="340.20" y="274.80" class="tbk">크기 · 단위</text><text x="340.20" y="278.50" class="tbv">A3 · mm</text><line x1="339.00" y1="272.50" x2="339.00" y2="280.00" class="tb"/><text x="378.20" y="274.80" class="tbk">작성</text><text x="378.20" y="278.50" class="tbv">Claude (검토 필요)</text><line x1="377.00" y1="272.50" x2="377.00" y2="280.00" class="tb"/><text x="236.20" y="282.40" class="tbk">설명</text><text x="236.20" y="286.20" class="tbv" style="font-size:2.3px">Pi 5 → USB 동글(DAC) → 왼쪽 볼 헤드폰 잭(노멀 접점) → 앰프 입력 잭 → 약 93 Hz RC → XH-A232 (TPA3110) → XT30 → 스피커 2개. 헤드폰을 꽂으면 앰프 입력이 끊긴다(R15).</text><rect x="112.00" y="22.00" width="76.00" height="78.00" rx="1.2" class="box"/><rect x="236.00" y="22.00" width="160.00" height="118.00" rx="1.2" class="box"/><rect x="14.00" y="150.00" width="216.00" height="80.00" rx="1.2" class="box"/><path d="M31.00,40.00 L31.00,31.00" class="cable"/><path d="M49.00,45.00 L50.00,45.00" class="wire"/><path d="M85.00,42.50 L95.00,42.50" class="wire"/><path d="M49.00,50.00 L50.00,50.00" class="wire"/><path d="M85.00,47.50 L95.00,47.50" class="wire"/><path d="M49.00,55.00 L50.00,55.00" class="wire"/><path d="M85.00,52.50 L95.00,52.50" class="wire"/><path d="M129.00,40.00 L124.00,40.00" class="wire"/><path d="M129.00,45.00 L124.00,45.00" class="wire"/><path d="M129.00,50.00 L124.00,50.00" class="wire"/><path d="M129.00,55.00 L124.00,55.00" class="wire"/><path d="M129.00,60.00 L124.00,60.00" class="wire"/><path d="M210.00,42.50 L202.50,42.50" class="wire"/><path d="M210.00,47.50 L202.50,47.50" class="wire"/><path d="M210.00,52.50 L202.50,52.50" class="wire"/><path d="M261.00,40.00 L268.50,40.00" class="wire"/><path d="M261.00,50.00 L268.50,50.00" class="wire"/><path d="M261.00,60.00 L268.50,60.00" class="wire"/><path d="M250.00,82.50 L275.00,82.50" class="wire"/><path d="M270.00,82.50 L270.00,90.00 L275.00,90.00" class="wire"/><path d="M285.00,82.50 L300.00,82.50" class="wire"/><path d="M285.00,90.00 L290.00,90.00 L290.00,82.50" class="wire"/><path d="M300.00,97.50 L300.00,100.00 L305.00,100.00" class="wire"/><path d="M300.00,82.50 L315.00,82.50" class="wire"/><path d="M250.00,112.50 L275.00,112.50" class="wire"/><path d="M270.00,112.50 L270.00,120.00 L275.00,120.00" class="wire"/><path d="M285.00,112.50 L300.00,112.50" class="wire"/><path d="M285.00,120.00 L290.00,120.00 L290.00,112.50" class="wire"/><path d="M300.00,127.50 L300.00,130.00 L305.00,130.00" class="wire"/><path d="M300.00,112.50 L315.00,112.50" class="wire"/><path d="M343.00,45.00 L335.50,45.00" class="wire"/><path d="M343.00,55.00 L335.50,55.00" class="wire"/><path d="M343.00,50.00 L335.50,50.00" class="wire"/><path d="M343.00,65.00 L333.00,65.00" class="wire"/><path d="M343.00,70.00 L339.50,70.00" class="wire"/><path d="M377.00,45.00 L382.00,45.00" class="wire"/><path d="M377.00,50.00 L382.00,50.00" class="wire"/><path d="M377.00,60.00 L382.00,60.00" class="wire"/><path d="M377.00,65.00 L382.00,65.00" class="wire"/><path d="M65.00,167.50 L45.00,167.50" class="wire"/><path d="M65.00,172.50 L45.00,172.50" class="wire"/><path d="M88.50,167.50 L120.00,167.50" class="wire"/><path d="M88.50,172.50 L120.00,172.50" class="wire"/><path d="M65.00,199.50 L45.00,199.50" class="wire"/><path d="M65.00,204.50 L45.00,204.50" class="wire"/><path d="M88.50,199.50 L120.00,199.50" class="wire"/><path d="M88.50,204.50 L120.00,204.50" class="wire"/><rect x="18.00" y="40.00" width="26.00" height="20.00" class="mod"/><rect x="71.00" y="40.00" width="9.00" height="15.00" class="body"/><polygon points="71.00,43.00 66.50,43.00 65.00,44.20 66.50,45.40 71.00,45.40" class="bodyl"/><line x1="68.80" y1="43.00" x2="68.80" y2="45.40" class="bodyl"/><line x1="67.40" y1="43.00" x2="67.40" y2="45.40" class="bodyl"/><rect x="134.00" y="35.00" width="16.00" height="27.50" class="body"/><rect x="145.50" y="46.50" width="3.00" height="5.00" class="bodyl"/><polyline points="145.50,47.40 141.50,47.40" class="bodyl"/><polyline points="145.50,50.60 141.50,50.60" class="bodyl"/><polyline points="134.00,40.00 138.50,40.00 139.50,42.20" class="bodyl"/><polyline points="134.00,45.00 138.50,45.00 138.50,43.20" class="bodyl"/><polygon points="139.20,43.00 138.50,42.20 137.80,43.00" class="bodyf"/><polyline points="134.00,50.00 138.50,50.00 139.50,52.20" class="bodyl"/><polyline points="134.00,55.00 138.50,55.00 138.50,53.20" class="bodyl"/><polygon points="139.20,53.00 138.50,52.20 137.80,53.00" class="bodyf"/><polyline points="134.00,60.00 147.00,60.00 147.00,51.50" class="bodyl"/><rect x="215.00" y="40.00" width="9.00" height="15.00" class="body"/><polygon points="224.00,43.00 228.50,43.00 230.00,44.20 228.50,45.40 224.00,45.40" class="bodyl"/><line x1="226.20" y1="43.00" x2="226.20" y2="45.40" class="bodyl"/><line x1="227.60" y1="43.00" x2="227.60" y2="45.40" class="bodyl"/><rect x="240.00" y="35.00" width="16.00" height="27.50" class="body"/><rect x="241.50" y="46.50" width="3.00" height="5.00" class="bodyl"/><polyline points="244.50,47.40 248.50,47.40" class="bodyl"/><polyline points="244.50,50.60 248.50,50.60" class="bodyl"/><polyline points="256.00,40.00 251.50,40.00 250.50,42.20" class="bodyl"/><polyline points="256.00,45.00 251.50,45.00 251.50,43.20" class="bodyl"/><polygon points="250.80,43.00 251.50,42.20 252.20,43.00" class="bodyf"/><polyline points="256.00,50.00 251.50,50.00 250.50,52.20" class="bodyl"/><polyline points="256.00,55.00 251.50,55.00 251.50,53.20" class="bodyl"/><polygon points="250.80,53.00 251.50,52.20 252.20,53.00" class="bodyf"/><polyline points="256.00,60.00 243.00,60.00 243.00,51.50" class="bodyl"/><line x1="280.75" y1="80.00" x2="280.75" y2="85.00" class="bodyl"/><line x1="279.25" y1="80.00" x2="279.25" y2="85.00" class="bodyl"/><line x1="280.75" y1="87.50" x2="280.75" y2="92.50" class="bodyl"/><line x1="279.25" y1="87.50" x2="279.25" y2="92.50" class="bodyl"/><rect x="298.75" y="86.25" width="2.50" height="7.50" class="body"/><line x1="280.75" y1="110.00" x2="280.75" y2="115.00" class="bodyl"/><line x1="279.25" y1="110.00" x2="279.25" y2="115.00" class="bodyl"/><line x1="280.75" y1="117.50" x2="280.75" y2="122.50" class="bodyl"/><line x1="279.25" y1="117.50" x2="279.25" y2="122.50" class="bodyl"/><rect x="298.75" y="116.25" width="2.50" height="7.50" class="body"/><rect x="348.00" y="40.00" width="24.00" height="35.00" class="mod"/><rect x="70.00" y="165.00" width="6.00" height="10.00" class="body"/><circle cx="72.20" cy="172.50" r="0.55" class="bodyl"/><line x1="70.00" y1="172.50" x2="71.60" y2="172.50" class="bodyl"/><circle cx="72.20" cy="167.50" r="0.55" class="bodyl"/><line x1="70.00" y1="167.50" x2="71.60" y2="167.50" class="bodyl"/><rect x="77.50" y="165.00" width="6.00" height="10.00" class="body"/><line x1="81.90" y1="172.50" x2="83.50" y2="172.50" class="bodyl"/><circle cx="81.30" cy="172.50" r="0.55" class="bodyl"/><line x1="81.90" y1="167.50" x2="83.50" y2="167.50" class="bodyl"/><circle cx="81.30" cy="167.50" r="0.55" class="bodyl"/><rect x="125.00" y="166.80" width="3.20" height="6.40" class="body"/><polygon points="128.20,166.80 132.20,163.00 132.20,177.00 128.20,173.20" class="bodyl"/><rect x="70.00" y="197.00" width="6.00" height="10.00" class="body"/><circle cx="72.20" cy="204.50" r="0.55" class="bodyl"/><line x1="70.00" y1="204.50" x2="71.60" y2="204.50" class="bodyl"/><circle cx="72.20" cy="199.50" r="0.55" class="bodyl"/><line x1="70.00" y1="199.50" x2="71.60" y2="199.50" class="bodyl"/><rect x="77.50" y="197.00" width="6.00" height="10.00" class="body"/><line x1="81.90" y1="204.50" x2="83.50" y2="204.50" class="bodyl"/><circle cx="81.30" cy="204.50" r="0.55" class="bodyl"/><line x1="81.90" y1="199.50" x2="83.50" y2="199.50" class="bodyl"/><circle cx="81.30" cy="199.50" r="0.55" class="bodyl"/><rect x="125.00" y="198.80" width="3.20" height="6.40" class="body"/><polygon points="128.20,198.80 132.20,195.00 132.20,209.00 128.20,205.20" class="bodyl"/><line x1="49.00" y1="45.00" x2="44.00" y2="45.00" class="pinl"/><text x="46.50" y="44.45" class="pinnum" text-anchor="middle">T</text><text x="43.10" y="45.80" class="pinname" text-anchor="end">L</text><line x1="49.00" y1="50.00" x2="44.00" y2="50.00" class="pinl"/><text x="46.50" y="49.45" class="pinnum" text-anchor="middle">R</text><text x="43.10" y="50.80" class="pinname" text-anchor="end">R</text><line x1="49.00" y1="55.00" x2="44.00" y2="55.00" class="pinl"/><text x="46.50" y="54.45" class="pinnum" text-anchor="middle">S</text><text x="43.10" y="55.80" class="pinname" text-anchor="end">GND</text><line x1="85.00" y1="42.50" x2="80.00" y2="42.50" class="pinl"/><text x="79.10" y="43.30" class="pinname" text-anchor="end">T</text><line x1="85.00" y1="47.50" x2="80.00" y2="47.50" class="pinl"/><text x="79.10" y="48.30" class="pinname" text-anchor="end">R</text><line x1="85.00" y1="52.50" x2="80.00" y2="52.50" class="pinl"/><text x="79.10" y="53.30" class="pinname" text-anchor="end">S</text><line x1="129.00" y1="40.00" x2="134.00" y2="40.00" class="pinl"/><text x="131.50" y="39.45" class="pinnum" text-anchor="middle">T</text><line x1="129.00" y1="45.00" x2="134.00" y2="45.00" class="pinl"/><text x="131.50" y="44.45" class="pinnum" text-anchor="middle">TN</text><line x1="129.00" y1="50.00" x2="134.00" y2="50.00" class="pinl"/><text x="131.50" y="49.45" class="pinnum" text-anchor="middle">R</text><line x1="129.00" y1="55.00" x2="134.00" y2="55.00" class="pinl"/><text x="131.50" y="54.45" class="pinnum" text-anchor="middle">RN</text><line x1="129.00" y1="60.00" x2="134.00" y2="60.00" class="pinl"/><text x="131.50" y="59.45" class="pinnum" text-anchor="middle">S</text><line x1="210.00" y1="42.50" x2="215.00" y2="42.50" class="pinl"/><text x="215.90" y="43.30" class="pinname">T</text><line x1="210.00" y1="47.50" x2="215.00" y2="47.50" class="pinl"/><text x="215.90" y="48.30" class="pinname">R</text><line x1="210.00" y1="52.50" x2="215.00" y2="52.50" class="pinl"/><text x="215.90" y="53.30" class="pinname">S</text><line x1="261.00" y1="40.00" x2="256.00" y2="40.00" class="pinl"/><text x="258.50" y="39.45" class="pinnum" text-anchor="middle">T</text><line x1="261.00" y1="45.00" x2="256.00" y2="45.00" class="pinl"/><text x="258.50" y="44.45" class="pinnum" text-anchor="middle">TN</text><line x1="261.00" y1="50.00" x2="256.00" y2="50.00" class="pinl"/><text x="258.50" y="49.45" class="pinnum" text-anchor="middle">R</text><line x1="261.00" y1="55.00" x2="256.00" y2="55.00" class="pinl"/><text x="258.50" y="54.45" class="pinnum" text-anchor="middle">RN</text><line x1="261.00" y1="60.00" x2="256.00" y2="60.00" class="pinl"/><text x="258.50" y="59.45" class="pinnum" text-anchor="middle">S</text><line x1="285.00" y1="82.50" x2="280.75" y2="82.50" class="pinl"/><line x1="275.00" y1="82.50" x2="279.25" y2="82.50" class="pinl"/><line x1="285.00" y1="90.00" x2="280.75" y2="90.00" class="pinl"/><line x1="275.00" y1="90.00" x2="279.25" y2="90.00" class="pinl"/><line x1="300.00" y1="82.50" x2="300.00" y2="86.25" class="pinl"/><line x1="300.00" y1="97.50" x2="300.00" y2="93.75" class="pinl"/><line x1="285.00" y1="112.50" x2="280.75" y2="112.50" class="pinl"/><line x1="275.00" y1="112.50" x2="279.25" y2="112.50" class="pinl"/><line x1="285.00" y1="120.00" x2="280.75" y2="120.00" class="pinl"/><line x1="275.00" y1="120.00" x2="279.25" y2="120.00" class="pinl"/><line x1="300.00" y1="112.50" x2="300.00" y2="116.25" class="pinl"/><line x1="300.00" y1="127.50" x2="300.00" y2="123.75" class="pinl"/><line x1="343.00" y1="45.00" x2="348.00" y2="45.00" class="pinl"/><text x="345.50" y="44.45" class="pinnum" text-anchor="middle">1</text><text x="348.90" y="45.80" class="pinname">L</text><line x1="343.00" y1="50.00" x2="348.00" y2="50.00" class="pinl"/><text x="345.50" y="49.45" class="pinnum" text-anchor="middle">2</text><text x="348.90" y="50.80" class="pinname">G</text><line x1="343.00" y1="55.00" x2="348.00" y2="55.00" class="pinl"/><text x="345.50" y="54.45" class="pinnum" text-anchor="middle">3</text><text x="348.90" y="55.80" class="pinname">R</text><line x1="343.00" y1="65.00" x2="348.00" y2="65.00" class="pinl"/><text x="345.50" y="64.45" class="pinnum" text-anchor="middle">4</text><text x="348.90" y="65.80" class="pinname">VCC</text><line x1="343.00" y1="70.00" x2="348.00" y2="70.00" class="pinl"/><text x="345.50" y="69.45" class="pinnum" text-anchor="middle">5</text><text x="348.90" y="70.80" class="pinname">GND</text><line x1="377.00" y1="45.00" x2="372.00" y2="45.00" class="pinl"/><text x="374.50" y="44.45" class="pinnum" text-anchor="middle">6</text><text x="371.10" y="45.80" class="pinname" text-anchor="end">L+</text><line x1="377.00" y1="50.00" x2="372.00" y2="50.00" class="pinl"/><text x="374.50" y="49.45" class="pinnum" text-anchor="middle">7</text><text x="371.10" y="50.80" class="pinname" text-anchor="end">L-</text><line x1="377.00" y1="60.00" x2="372.00" y2="60.00" class="pinl"/><text x="374.50" y="59.45" class="pinnum" text-anchor="middle">8</text><text x="371.10" y="60.80" class="pinname" text-anchor="end">R+</text><line x1="377.00" y1="65.00" x2="372.00" y2="65.00" class="pinl"/><text x="374.50" y="64.45" class="pinnum" text-anchor="middle">9</text><text x="371.10" y="65.80" class="pinname" text-anchor="end">R-</text><line x1="65.00" y1="172.50" x2="70.00" y2="172.50" class="pinl"/><text x="67.50" y="171.95" class="pinnum" text-anchor="middle">1</text><line x1="65.00" y1="167.50" x2="70.00" y2="167.50" class="pinl"/><text x="67.50" y="166.95" class="pinnum" text-anchor="middle">2</text><line x1="88.50" y1="172.50" x2="83.50" y2="172.50" class="pinl"/><text x="86.00" y="171.95" class="pinnum" text-anchor="middle">1</text><line x1="88.50" y1="167.50" x2="83.50" y2="167.50" class="pinl"/><text x="86.00" y="166.95" class="pinnum" text-anchor="middle">2</text><line x1="120.00" y1="167.50" x2="125.00" y2="167.50" class="pinl"/><text x="122.50" y="166.95" class="pinnum" text-anchor="middle">1</text><line x1="120.00" y1="172.50" x2="125.00" y2="172.50" class="pinl"/><text x="122.50" y="171.95" class="pinnum" text-anchor="middle">2</text><line x1="65.00" y1="204.50" x2="70.00" y2="204.50" class="pinl"/><text x="67.50" y="203.95" class="pinnum" text-anchor="middle">1</text><line x1="65.00" y1="199.50" x2="70.00" y2="199.50" class="pinl"/><text x="67.50" y="198.95" class="pinnum" text-anchor="middle">2</text><line x1="88.50" y1="204.50" x2="83.50" y2="204.50" class="pinl"/><text x="86.00" y="203.95" class="pinnum" text-anchor="middle">1</text><line x1="88.50" y1="199.50" x2="83.50" y2="199.50" class="pinl"/><text x="86.00" y="198.95" class="pinnum" text-anchor="middle">2</text><line x1="120.00" y1="199.50" x2="125.00" y2="199.50" class="pinl"/><text x="122.50" y="198.95" class="pinnum" text-anchor="middle">1</text><line x1="120.00" y1="204.50" x2="125.00" y2="204.50" class="pinl"/><text x="122.50" y="203.95" class="pinnum" text-anchor="middle">2</text><text x="18.00" y="38.80" class="ref">A701</text><text x="18.00" y="63.50" class="val">Apple USB-C → 3.5 mm (MW2Q3)</text><text x="18.00" y="65.80" class="part">USB DAC · 헤드폰 앰프 (L51)</text><text x="18.00" y="28.50" class="cabt">USB-C → X701 젠더(IH190) → Pi 5 USB-A (허브 거치지 않음)</text><text x="71.00" y="37.80" class="ref">P701</text><text x="71.00" y="59.50" class="val">W701 플러그</text><text x="50.60" y="44.30" class="lbl">DAC_L</text><text x="95.60" y="41.80" class="lbl">DAC_L</text><text x="50.60" y="49.30" class="lbl">DAC_R</text><text x="95.60" y="46.80" class="lbl">DAC_R</text><text x="50.60" y="54.30" class="lbl">AGND</text><text x="95.60" y="51.80" class="lbl">AGND</text><text x="18.00" y="72.00" class="cabt">W701: 3.5 mm 스테레오 1.5 m (C14) — 볼 쪽 끝을 잘라 J701에 납땜</text><text x="113.50" y="25.40" class="boxt">왼쪽 볼 — 헤드폰 잭 (R15)</text><text x="134.00" y="32.80" class="ref">J701</text><text x="134.00" y="66.50" class="val">PJ-313 헤드폰 잭</text><text x="134.00" y="68.80" class="part">L15 ①</text><text x="123.40" y="39.30" class="lbl" text-anchor="end">DAC_L</text><text x="123.40" y="44.30" class="lbl" text-anchor="end">HP_TN_L</text><text x="123.40" y="49.30" class="lbl" text-anchor="end">DAC_R</text><text x="123.40" y="54.30" class="lbl" text-anchor="end">HP_RN_R</text><text x="123.40" y="59.30" class="lbl" text-anchor="end">AGND</text><text x="116.00" y="83.00" class="notes">플러그 없음: T–TN, R–RN 닫힘 → 앰프로</text><text x="116.00" y="85.80" class="notes">헤드폰 꽂음: TN·RN 떨어짐 → 앰프 입력 끊김</text><text x="116.00" y="95.00" class="cabt">W702 볼 쪽 끝 → J701 TN·RN·S 납땜</text><text x="215.00" y="37.80" class="ref">P702</text><text x="215.00" y="59.50" class="val">W702 플러그</text><text x="215.00" y="61.80" class="part">1.5 m (C14)</text><text x="201.90" y="41.80" class="lbl" text-anchor="end">HP_TN_L</text><text x="201.90" y="46.80" class="lbl" text-anchor="end">HP_RN_R</text><text x="201.90" y="51.80" class="lbl" text-anchor="end">AGND</text><text x="237.50" y="25.40" class="boxt">CU 트레이 — 앰프 입력 잭 + 저음 차단 RC (D18) + 앰프</text><text x="240.00" y="32.80" class="ref">J702</text><text x="240.00" y="66.50" class="val">PJ-313 앰프 입력 잭</text><text x="240.00" y="68.80" class="part">L15 ③</text><text x="269.10" y="39.30" class="lbl">HP_TN_L</text><text x="269.10" y="49.30" class="lbl">HP_RN_R</text><text x="269.10" y="59.30" class="lbl">AGND</text><text x="250.60" y="81.80" class="lbl">HP_TN_L</text><text x="280.00" y="79.30" class="ref" text-anchor="middle">C701</text><text x="286.50" y="81.30" class="val">1µ</text><text x="280.00" y="95.20" class="ref" text-anchor="middle">C702</text><text x="286.50" y="93.20" class="val">1µ</text><text x="303.20" y="89.40" class="ref">R701</text><text x="303.20" y="92.40" class="val">1k</text><text x="305.60" y="99.30" class="lbl">AGND</text><text x="315.60" y="81.80" class="lbl">AMP_IN_L</text><text x="252.00" y="100.00" class="notes">1 µF ×2 병렬 = 2 µF 직렬, 1 kΩ 병렬</text><text x="250.60" y="111.80" class="lbl">HP_RN_R</text><text x="280.00" y="109.30" class="ref" text-anchor="middle">C703</text><text x="286.50" y="111.30" class="val">1µ</text><text x="280.00" y="125.20" class="ref" text-anchor="middle">C704</text><text x="286.50" y="123.20" class="val">1µ</text><text x="303.20" y="119.40" class="ref">R702</text><text x="303.20" y="122.40" class="val">1k</text><text x="305.60" y="129.30" class="lbl">AGND</text><text x="315.60" y="111.80" class="lbl">AMP_IN_R</text><text x="252.00" y="130.00" class="notes">1 µF ×2 병렬 = 2 µF 직렬, 1 kΩ 병렬</text><text x="348.00" y="38.80" class="ref">A702</text><text x="348.00" y="78.50" class="val">XH-A232 (HW-404)</text><text x="336.00" y="80.80" class="part">TPA3110 · BTL: 스피커 − 선을 GND에 묶지 않음</text><text x="334.90" y="44.30" class="lbl" text-anchor="end">AMP_IN_L</text><text x="334.90" y="54.30" class="lbl" text-anchor="end">AMP_IN_R</text><text x="334.90" y="49.30" class="lbl" text-anchor="end">AGND</text><text x="382.60" y="44.30" class="lbl">SPK_L_P</text><text x="382.60" y="49.30" class="lbl">SPK_L_N</text><text x="382.60" y="59.30" class="lbl">SPK_R_P</text><text x="382.60" y="64.30" class="lbl">SPK_R_N</text><text x="318.00" y="64.50" class="notes">+20V: SCH-06</text><text x="15.50" y="153.40" class="boxt">스피커 파트 연결 (R26: XT30 꽂았다 뺌, D13: 직렬 콘덴서 없음)</text><text x="70.00" y="162.80" class="ref">X703</text><text x="54.00" y="179.50" class="val">XT30U-M</text><text x="77.50" y="162.80" class="ref">X704</text><text x="78.50" y="179.50" class="val">XT30U-F</text><text x="72.20" y="168.30" class="pinnameh">+</text><text x="72.20" y="173.30" class="pinnameh">−</text><text x="44.40" y="166.80" class="lbl" text-anchor="end">SPK_L_P</text><text x="44.40" y="171.80" class="lbl" text-anchor="end">SPK_L_N</text><text x="123.80" y="166.60" class="pinnameh" text-anchor="middle">+</text><text x="123.80" y="175.90" class="pinnameh" text-anchor="middle">−</text><text x="125.00" y="160.50" class="ref">LS701</text><text x="135.00" y="173.50" class="val">CW-100B25 8 Ω (왼쪽)</text><text x="92.10" y="166.80" class="lbl">SPK_L_P</text><text x="92.10" y="171.80" class="lbl">SPK_L_N</text><text x="20.00" y="184.50" class="cabt">W703: 앰프 → 통로 → XT30 약 0.6 m · W704: 스피커 파트 안 0.3 m (16 AWG)</text><text x="70.00" y="194.80" class="ref">X705</text><text x="54.00" y="211.50" class="val">XT30U-M</text><text x="77.50" y="194.80" class="ref">X706</text><text x="78.50" y="211.50" class="val">XT30U-F</text><text x="72.20" y="200.30" class="pinnameh">+</text><text x="72.20" y="205.30" class="pinnameh">−</text><text x="44.40" y="198.80" class="lbl" text-anchor="end">SPK_R_P</text><text x="44.40" y="203.80" class="lbl" text-anchor="end">SPK_R_N</text><text x="123.80" y="198.60" class="pinnameh" text-anchor="middle">+</text><text x="123.80" y="207.90" class="pinnameh" text-anchor="middle">−</text><text x="125.00" y="192.50" class="ref">LS702</text><text x="135.00" y="205.50" class="val">CW-100B25 8 Ω (오른쪽)</text><text x="92.10" y="198.80" class="lbl">SPK_R_P</text><text x="92.10" y="203.80" class="lbl">SPK_R_N</text><text x="20.00" y="216.50" class="cabt">W705: 앰프 → 통로 → XT30 약 0.6 m · W706: 스피커 파트 안 0.3 m (16 AWG)</text><text x="240.00" y="150.00" class="note">주</text><text x="240.00" y="153.19" class="note">1. 동글 A701은 젠더 X701로 Pi 5 USB-A에 직결(허브 경유 금지). ALSA hw:CARD=&lt;이름&gt;,DEV=0, 48 kHz 전용(D7).</text><text x="240.00" y="156.38" class="note">2. J701(왼쪽 볼): 동글 신호가 T·R 스프링으로, TN·RN 노멀이 앰프로. 헤드폰을 꽂으면 노멀이 떨어진다(R15).</text><text x="240.00" y="159.57" class="note">    ‘PJ-313’ 이름만으로 노멀 접점·핀 번호가 보장되지 않는다 → 도착 즉시 통전 검사(플러그 없음: T–TN, R–RN 닫힘).</text><text x="240.00" y="162.76" class="note">3. HPF: 1 µF ×2 병렬(2 µF) 직렬 + 1 kΩ 병렬. 앰프(36 dB, 입력 9 kΩ)와 겹쳐 실제 fc ≈ 93 Hz.</text><text x="240.00" y="165.95" class="note">    80 Hz가 꼭 필요하면 1 kΩ → 1.2 kΩ (구매). △10 AGND: 잭 슬리브·1 kΩ는 앰프 IN G 단자로만 모은다.</text><text x="240.00" y="169.14" class="note">4. XH-A232는 36 dB 출고 → 입력 약 0.2 Vrms면 최대 출력. 동글은 0.5~1 Vrms라 소프트웨어 상한 필수</text><text x="240.00" y="172.33" class="note">    (ALSA Headphone·FluidSynth synth.gain 상한 + synth.limiter). 스피커 25 W 정격 보호(D18).</text><text x="240.00" y="175.52" class="note">5. XT30: 납작한 면 = +, 모따기 면 = − (KiCad 패드 1 = −, 2 = +). 좌우 같은 방향으로 납땜해 위상을 맞춘다.</text><text x="240.00" y="178.71" class="note">6. BTL: L−·R−를 GND나 서로에 묶지 않는다. 스피커선은 쌍마다 꼬고 리본·EXT 선에서 30 mm 이상(D14).</text><text x="240.00" y="181.90" class="note">7. 스피커 Re를 잰다: 6~7 Ω = 8 Ω 유닛, 3~3.5 Ω면 4 Ω 판매분(출력·발열 재검토).</text><text x="12.00" y="16.50" class="tbt">SCH-07  오디오 (CU)</text><text x="12.00" y="21.20" class="notes">Pi 5 → USB 동글(DAC) → 왼쪽 볼 헤드폰 잭(노멀 접점) → 앰프 입력 잭 → 약 93 Hz RC → XH-A232 (TPA3110) → XT30 → 스피커 2개. 헤드폰을 꽂으면 앰프 입력이 끊긴다(R15).</text><path d="M62.90,35.10 L64.50,36.50 L62.90,37.90 M64.90,35.10 L66.50,36.50 L64.90,37.90" fill="none" stroke="#8c1c13" stroke-width=".35"/><circle cx="50.00" cy="45.00" r=".35" fill="#101820"/><circle cx="95.00" cy="42.50" r=".35" fill="#101820"/><circle cx="50.00" cy="50.00" r=".35" fill="#101820"/><circle cx="95.00" cy="47.50" r=".35" fill="#101820"/><circle cx="50.00" cy="55.00" r=".35" fill="#101820"/><circle cx="95.00" cy="52.50" r=".35" fill="#101820"/><circle cx="124.00" cy="40.00" r=".35" fill="#101820"/><circle cx="124.00" cy="45.00" r=".35" fill="#101820"/><circle cx="124.00" cy="50.00" r=".35" fill="#101820"/><circle cx="124.00" cy="55.00" r=".35" fill="#101820"/><circle cx="124.00" cy="60.00" r=".35" fill="#101820"/><circle cx="202.50" cy="42.50" r=".35" fill="#101820"/><circle cx="202.50" cy="47.50" r=".35" fill="#101820"/><circle cx="202.50" cy="52.50" r=".35" fill="#101820"/><path d="M232.90,53.60 L234.50,55.00 L232.90,56.40 M234.90,53.60 L236.50,55.00 L234.90,56.40" fill="none" stroke="#8c1c13" stroke-width=".35"/><circle cx="268.50" cy="40.00" r=".35" fill="#101820"/><circle cx="268.50" cy="50.00" r=".35" fill="#101820"/><line x1="260.10" y1="44.10" x2="261.90" y2="45.90" class="nc"/><line x1="260.10" y1="45.90" x2="261.90" y2="44.10" class="nc"/><line x1="260.10" y1="54.10" x2="261.90" y2="55.90" class="nc"/><line x1="260.10" y1="55.90" x2="261.90" y2="54.10" class="nc"/><circle cx="268.50" cy="60.00" r=".35" fill="#101820"/><polygon points="283.00,57.30 285.20,61.10 280.80,61.10" class="chg"/><text x="283.00" y="60.55" class="chgt" text-anchor="middle">10</text><circle cx="250.00" cy="82.50" r=".35" fill="#101820"/><circle cx="305.00" cy="100.00" r=".35" fill="#101820"/><circle cx="315.00" cy="82.50" r=".35" fill="#101820"/><circle cx="250.00" cy="112.50" r=".35" fill="#101820"/><circle cx="305.00" cy="130.00" r=".35" fill="#101820"/><circle cx="315.00" cy="112.50" r=".35" fill="#101820"/><circle cx="335.50" cy="45.00" r=".35" fill="#101820"/><circle cx="335.50" cy="55.00" r=".35" fill="#101820"/><circle cx="335.50" cy="50.00" r=".35" fill="#101820"/><polygon points="316.00,46.30 318.20,50.10 313.80,50.10" class="chg"/><text x="316.00" y="49.55" class="chgt" text-anchor="middle">10</text><line x1="333.00" y1="65.00" x2="333.00" y2="62.80" class="pwr"/><polyline points="331.70,63.80 333.00,62.40 334.30,63.80" class="pwr"/><text x="333.00" y="61.60" class="pwrt" text-anchor="middle">+20V</text><line x1="339.50" y1="70.00" x2="339.50" y2="72.00" class="pwr"/><line x1="337.50" y1="72.00" x2="341.50" y2="72.00" class="pwr"/><line x1="338.20" y1="72.70" x2="340.80" y2="72.70" class="pwr"/><line x1="338.90" y1="73.40" x2="340.10" y2="73.40" class="pwr"/><circle cx="382.00" cy="45.00" r=".35" fill="#101820"/><circle cx="382.00" cy="50.00" r=".35" fill="#101820"/><circle cx="382.00" cy="60.00" r=".35" fill="#101820"/><circle cx="382.00" cy="65.00" r=".35" fill="#101820"/><path d="M74.70,175.90 L76.30,177.30 L74.70,178.70 M76.70,175.90 L78.30,177.30 L76.70,178.70" fill="none" stroke="#8c1c13" stroke-width=".35"/><circle cx="45.00" cy="167.50" r=".35" fill="#101820"/><circle cx="45.00" cy="172.50" r=".35" fill="#101820"/><circle cx="91.50" cy="167.50" r=".35" fill="#101820"/><circle cx="91.50" cy="172.50" r=".35" fill="#101820"/><path d="M74.70,207.90 L76.30,209.30 L74.70,210.70 M76.70,207.90 L78.30,209.30 L76.70,210.70" fill="none" stroke="#8c1c13" stroke-width=".35"/><circle cx="45.00" cy="199.50" r=".35" fill="#101820"/><circle cx="45.00" cy="204.50" r=".35" fill="#101820"/><circle cx="91.50" cy="199.50" r=".35" fill="#101820"/><circle cx="91.50" cy="204.50" r=".35" fill="#101820"/><circle cx="49.00" cy="45.00" r=".6" class="jn"/><circle cx="49.00" cy="50.00" r=".6" class="jn"/><circle cx="49.00" cy="55.00" r=".6" class="jn"/><circle cx="210.00" cy="42.50" r=".6" class="jn"/><circle cx="210.00" cy="47.50" r=".6" class="jn"/><circle cx="210.00" cy="52.50" r=".6" class="jn"/><circle cx="270.00" cy="82.50" r=".6" class="jn"/><circle cx="300.00" cy="82.50" r=".6" class="jn"/><circle cx="290.00" cy="82.50" r=".6" class="jn"/><circle cx="270.00" cy="112.50" r=".6" class="jn"/><circle cx="300.00" cy="112.50" r=".6" class="jn"/><circle cx="290.00" cy="112.50" r=".6" class="jn"/><circle cx="65.00" cy="167.50" r=".6" class="jn"/><circle cx="65.00" cy="172.50" r=".6" class="jn"/><circle cx="65.00" cy="199.50" r=".6" class="jn"/><circle cx="65.00" cy="204.50" r=".6" class="jn"/></svg>