<svg xmlns="http://www.w3.org/2000/svg" viewBox="0 0 420.0 297.0" width="420.0mm" height="297.0mm" font-family="'IBM Plex Sans KR','Apple SD Gothic Neo','Noto Sans KR','Malgun Gothic',sans-serif"><title>SCH-04 끝 부속 센서 기판 (EL · ER) + EXT 연결</title><style>
.frame{fill:none;stroke:#7a1f1f;stroke-width:.35}
.frame2{fill:none;stroke:#7a1f1f;stroke-width:.2}
.zone{font:2.2px 'IBM Plex Mono',Menlo,Consolas,monospace;fill:#7a1f1f;text-anchor:middle}
.tb{fill:none;stroke:#7a1f1f;stroke-width:.3}
.tbk{font:1.9px 'IBM Plex Sans KR','Apple SD Gothic Neo','Noto Sans KR','Malgun Gothic',sans-serif;fill:#7a1f1f}
.tbv{font:2.8px 'IBM Plex Sans KR','Apple SD Gothic Neo','Noto Sans KR','Malgun Gothic',sans-serif;fill:#101820}
.tbt{font:600 4.6px 'IBM Plex Sans KR','Apple SD Gothic Neo','Noto Sans KR','Malgun Gothic',sans-serif;fill:#101820}
.tbs{font:600 3.2px 'IBM Plex Sans KR','Apple SD Gothic Neo','Noto Sans KR','Malgun Gothic',sans-serif;fill:#101820}
.wire{fill:none;stroke:#0b7a2a;stroke-width:.3;stroke-linecap:round;stroke-linejoin:round}
.bus{fill:none;stroke:#1f4fa0;stroke-width:.8}
.cable{fill:none;stroke:#8a5a00;stroke-width:.45;stroke-dasharray:2.2 1.1}
.jn{fill:#0b7a2a}
.body{fill:#fffbe6;stroke:#8c1c13;stroke-width:.3}
.bodyl{fill:none;stroke:#8c1c13;stroke-width:.3}
.bodyf{fill:#8c1c13;stroke:#8c1c13;stroke-width:.2}
.mod{fill:#eef4fb;stroke:#1f4fa0;stroke-width:.35}
.modl{fill:none;stroke:#1f4fa0;stroke-width:.3}
.pinl{stroke:#8c1c13;stroke-width:.3}
.pinnum{font:1.9px 'IBM Plex Mono',Menlo,Consolas,monospace;fill:#a3281b}
.pinname{font:2.3px 'IBM Plex Mono',Menlo,Consolas,monospace;fill:#0e5e5e}
.pinnameh{font:2.3px 'IBM Plex Sans KR','Apple SD Gothic Neo','Noto Sans KR','Malgun Gothic',sans-serif;fill:#0e5e5e}
.ref{font:600 2.7px 'IBM Plex Sans KR','Apple SD Gothic Neo','Noto Sans KR','Malgun Gothic',sans-serif;fill:#0e4a6e}
.val{font:2.4px 'IBM Plex Sans KR','Apple SD Gothic Neo','Noto Sans KR','Malgun Gothic',sans-serif;fill:#0e4a6e}
.part{font:1.9px 'IBM Plex Sans KR','Apple SD Gothic Neo','Noto Sans KR','Malgun Gothic',sans-serif;fill:#56657a}
.lbl{font:600 2.4px 'IBM Plex Mono',Menlo,Consolas,monospace;fill:#101820}
.glbl{fill:#fff;stroke:#7a1f1f;stroke-width:.3}
.glblt{font:600 2.2px 'IBM Plex Mono',Menlo,Consolas,monospace;fill:#7a1f1f}
.pwr{fill:none;stroke:#7a1f1f;stroke-width:.35}
.pwrt{font:600 2.4px 'IBM Plex Mono',Menlo,Consolas,monospace;fill:#7a1f1f}
.nc{stroke:#1f4fa0;stroke-width:.35}
.note{font:2.35px 'IBM Plex Sans KR','Apple SD Gothic Neo','Noto Sans KR','Malgun Gothic',sans-serif;fill:#1b2a44}
.noteb{font:600 2.8px 'IBM Plex Sans KR','Apple SD Gothic Neo','Noto Sans KR','Malgun Gothic',sans-serif;fill:#1b2a44}
.notes{font:2.0px 'IBM Plex Sans KR','Apple SD Gothic Neo','Noto Sans KR','Malgun Gothic',sans-serif;fill:#44536b}
.box{fill:none;stroke:#8a96ab;stroke-width:.25;stroke-dasharray:1.5 1}
.boxt{font:600 2.6px 'IBM Plex Sans KR','Apple SD Gothic Neo','Noto Sans KR','Malgun Gothic',sans-serif;fill:#44536b}
.tblh{font:600 2.1px 'IBM Plex Sans KR','Apple SD Gothic Neo','Noto Sans KR','Malgun Gothic',sans-serif;fill:#1b2a44}
.tbl{font:2.0px 'IBM Plex Sans KR','Apple SD Gothic Neo','Noto Sans KR','Malgun Gothic',sans-serif;fill:#1b2a44}
.tblm{font:2.0px 'IBM Plex Mono',Menlo,Consolas,monospace;fill:#1b2a44}
.tline{stroke:#b6bfcc;stroke-width:.2}
.chg{fill:#fff1c2;stroke:#b86e00;stroke-width:.3}
.chgt{font:600 1.9px 'IBM Plex Mono',Menlo,Consolas,monospace;fill:#8a4f00;text-anchor:middle}
.cabt{font:600 2.2px 'IBM Plex Sans KR','Apple SD Gothic Neo','Noto Sans KR','Malgun Gothic',sans-serif;fill:#8a5a00}
</style><rect width="420.0" height="297.0" fill="#fff"/><rect x="5.0" y="5.0" width="410.0" height="287.0" class="frame"/><rect x="9.0" y="9.0" width="402.0" height="279.0" class="frame2"/><line x1="9.00" y1="5.0" x2="9.00" y2="9.0" class="frame2"/><line x1="9.00" y1="288.0" x2="9.00" y2="292.0" class="frame2"/><line x1="59.25" y1="5.0" x2="59.25" y2="9.0" class="frame2"/><line x1="59.25" y1="288.0" x2="59.25" y2="292.0" class="frame2"/><line x1="109.50" y1="5.0" x2="109.50" y2="9.0" class="frame2"/><line x1="109.50" y1="288.0" x2="109.50" y2="292.0" class="frame2"/><line x1="159.75" y1="5.0" x2="159.75" y2="9.0" class="frame2"/><line x1="159.75" y1="288.0" x2="159.75" y2="292.0" class="frame2"/><line x1="210.00" y1="5.0" x2="210.00" y2="9.0" class="frame2"/><line x1="210.00" y1="288.0" x2="210.00" y2="292.0" class="frame2"/><line x1="260.25" y1="5.0" x2="260.25" y2="9.0" class="frame2"/><line x1="260.25" y1="288.0" x2="260.25" y2="292.0" class="frame2"/><line x1="310.50" y1="5.0" x2="310.50" y2="9.0" class="frame2"/><line x1="310.50" y1="288.0" x2="310.50" y2="292.0" class="frame2"/><line x1="360.75" y1="5.0" x2="360.75" y2="9.0" class="frame2"/><line x1="360.75" y1="288.0" x2="360.75" y2="292.0" class="frame2"/><line x1="411.00" y1="5.0" x2="411.00" y2="9.0" class="frame2"/><line x1="411.00" y1="288.0" x2="411.00" y2="292.0" class="frame2"/><text x="34.12" y="7.90" class="zone">1</text><text x="34.12" y="290.80" class="zone">1</text><text x="84.38" y="7.90" class="zone">2</text><text x="84.38" y="290.80" class="zone">2</text><text x="134.62" y="7.90" class="zone">3</text><text x="134.62" y="290.80" class="zone">3</text><text x="184.88" y="7.90" class="zone">4</text><text x="184.88" y="290.80" class="zone">4</text><text x="235.12" y="7.90" class="zone">5</text><text x="235.12" y="290.80" class="zone">5</text><text x="285.38" y="7.90" class="zone">6</text><text x="285.38" y="290.80" class="zone">6</text><text x="335.62" y="7.90" class="zone">7</text><text x="335.62" y="290.80" class="zone">7</text><text x="385.88" y="7.90" class="zone">8</text><text x="385.88" y="290.80" class="zone">8</text><line x1="5.0" y1="9.00" x2="9.0" y2="9.00" class="frame2"/><line x1="411.0" y1="9.00" x2="415.0" y2="9.00" class="frame2"/><line x1="5.0" y1="55.50" x2="9.0" y2="55.50" class="frame2"/><line x1="411.0" y1="55.50" x2="415.0" y2="55.50" class="frame2"/><line x1="5.0" y1="102.00" x2="9.0" y2="102.00" class="frame2"/><line x1="411.0" y1="102.00" x2="415.0" y2="102.00" class="frame2"/><line x1="5.0" y1="148.50" x2="9.0" y2="148.50" class="frame2"/><line x1="411.0" y1="148.50" x2="415.0" y2="148.50" class="frame2"/><line x1="5.0" y1="195.00" x2="9.0" y2="195.00" class="frame2"/><line x1="411.0" y1="195.00" x2="415.0" y2="195.00" class="frame2"/><line x1="5.0" y1="241.50" x2="9.0" y2="241.50" class="frame2"/><line x1="411.0" y1="241.50" x2="415.0" y2="241.50" class="frame2"/><line x1="5.0" y1="288.00" x2="9.0" y2="288.00" class="frame2"/><line x1="411.0" y1="288.00" x2="415.0" y2="288.00" class="frame2"/><text x="7.00" y="33.05" class="zone">A</text><text x="413.00" y="33.05" class="zone">A</text><text x="7.00" y="79.55" class="zone">B</text><text x="413.00" y="79.55" class="zone">B</text><text x="7.00" y="126.05" class="zone">C</text><text x="413.00" y="126.05" class="zone">C</text><text x="7.00" y="172.55" class="zone">D</text><text x="413.00" y="172.55" class="zone">D</text><text x="7.00" y="219.05" class="zone">E</text><text x="413.00" y="219.05" class="zone">E</text><text x="7.00" y="265.55" class="zone">F</text><text x="413.00" y="265.55" class="zone">F</text><rect x="235.00" y="254.00" width="176.0" height="34.0" class="tb" fill="#fff"/><line x1="235.00" y1="261.50" x2="411.00" y2="261.50" class="tb"/><line x1="235.00" y1="272.50" x2="411.00" y2="272.50" class="tb"/><line x1="235.00" y1="280.00" x2="411.00" y2="280.00" class="tb"/><text x="236.20" y="256.30" class="tbk">프로젝트</text><text x="236.20" y="260.00" class="tbv">Toccata v4 W1+ — 전자부 회로도</text><text x="336.20" y="256.30" class="tbk">기준 설계</text><text x="336.20" y="260.00" class="tbv">v4 W1+ r4.5 끝 부속</text><line x1="335.00" y1="254.00" x2="335.00" y2="261.50" class="tb"/><text x="376.20" y="256.30" class="tbk">보드 / 수량</text><text x="376.20" y="260.00" class="tbv">EL × 1 · ER × 1</text><line x1="375.00" y1="254.00" x2="375.00" y2="261.50" class="tb"/><text x="236.20" y="264.20" class="tbk">도면명</text><text x="236.20" y="270.40" class="tbt">끝 부속 센서 기판 (EL · ER) + EXT 연결</text><text x="236.20" y="274.80" class="tbk">도면 번호</text><text x="236.20" y="278.50" class="tbs">SCH-04</text><text x="270.20" y="274.80" class="tbk">시트</text><text x="270.20" y="278.50" class="tbs">4 / 9</text><line x1="269.00" y1="272.50" x2="269.00" y2="280.00" class="tb"/><text x="294.20" y="274.80" class="tbk">개정</text><text x="294.20" y="278.50" class="tbs">B</text><line x1="293.00" y1="272.50" x2="293.00" y2="280.00" class="tb"/><text x="310.20" y="274.80" class="tbk">날짜</text><text x="310.20" y="278.50" class="tbv">2026-09-29</text><line x1="309.00" y1="272.50" x2="309.00" y2="280.00" class="tb"/><text x="340.20" y="274.80" class="tbk">크기 · 단위</text><text x="340.20" y="278.50" class="tbv">A3 · mm</text><line x1="339.00" y1="272.50" x2="339.00" y2="280.00" class="tb"/><text x="378.20" y="274.80" class="tbk">작성</text><text x="378.20" y="278.50" class="tbv">Claude (검토 필요)</text><line x1="377.00" y1="272.50" x2="377.00" y2="280.00" class="tb"/><text x="236.20" y="282.40" class="tbk">설명</text><text x="236.20" y="286.20" class="tbv" style="font-size:2.3px">왼쪽 끝 부속 A0·A#0·B0 센서 3개는 O1, 오른쪽 C8 센서 1개는 O7 제어 기판의 EXT(먹스 C12~)로 읽는다. 파트 사이는 JST-XH 6핀 잠금 커넥터(R26).</text><rect x="14.00" y="22.00" width="380.00" height="94.00" rx="1.2" class="box"/><rect x="14.00" y="120.00" width="380.00" height="94.00" rx="1.2" class="box"/><path d="M25.00,42.00 L162.50,42.00" class="wire"/><path d="M25.00,92.00 L162.50,92.00" class="wire"/><path d="M45.00,59.50 L45.00,42.00" class="wire"/><path d="M45.00,74.50 L45.00,92.00" class="wire"/><path d="M67.50,67.00 L68.50,67.00" class="wire"/><path d="M37.50,69.50 L37.50,42.00" class="wire"/><path d="M37.50,79.50 L37.50,92.00" class="wire"/><path d="M87.50,59.50 L87.50,42.00" class="wire"/><path d="M87.50,74.50 L87.50,92.00" class="wire"/><path d="M110.00,67.00 L111.00,67.00" class="wire"/><path d="M80.00,69.50 L80.00,42.00" class="wire"/><path d="M80.00,79.50 L80.00,92.00" class="wire"/><path d="M130.00,59.50 L130.00,42.00" class="wire"/><path d="M130.00,74.50 L130.00,92.00" class="wire"/><path d="M152.50,67.00 L153.50,67.00" class="wire"/><path d="M122.50,69.50 L122.50,42.00" class="wire"/><path d="M122.50,79.50 L122.50,92.00" class="wire"/><path d="M162.50,69.50 L162.50,42.00" class="wire"/><path d="M162.50,79.50 L162.50,92.00" class="wire"/><path d="M207.00,39.50 L245.00,39.50" class="wire"/><path d="M207.00,44.50 L245.00,44.50" class="wire"/><path d="M207.00,49.50 L245.00,49.50" class="wire"/><path d="M207.00,54.50 L245.00,54.50" class="wire"/><path d="M207.00,64.50 L245.00,64.50" class="wire"/><path d="M212.00,30.50 L245.00,30.50" class="cable"/><path d="M268.50,39.50 L292.50,39.50" class="wire"/><path d="M268.50,44.50 L273.50,44.50" class="wire"/><path d="M268.50,49.50 L273.50,49.50" class="wire"/><path d="M268.50,54.50 L273.50,54.50" class="wire"/><path d="M268.50,59.50 L273.50,59.50" class="wire"/><path d="M268.50,64.50 L292.50,64.50" class="wire"/><path d="M267.50,30.50 L297.50,30.50" class="cable"/><path d="M25.00,140.00 L77.50,140.00" class="wire"/><path d="M25.00,190.00 L77.50,190.00" class="wire"/><path d="M45.00,157.50 L45.00,140.00" class="wire"/><path d="M45.00,172.50 L45.00,190.00" class="wire"/><path d="M67.50,165.00 L68.50,165.00" class="wire"/><path d="M37.50,167.50 L37.50,140.00" class="wire"/><path d="M37.50,177.50 L37.50,190.00" class="wire"/><path d="M77.50,167.50 L77.50,140.00" class="wire"/><path d="M77.50,177.50 L77.50,190.00" class="wire"/><path d="M207.00,137.50 L245.00,137.50" class="wire"/><path d="M207.00,142.50 L245.00,142.50" class="wire"/><path d="M207.00,162.50 L245.00,162.50" class="wire"/><path d="M212.00,128.50 L245.00,128.50" class="cable"/><path d="M268.50,137.50 L292.50,137.50" class="wire"/><path d="M268.50,142.50 L273.50,142.50" class="wire"/><path d="M268.50,147.50 L273.50,147.50" class="wire"/><path d="M268.50,152.50 L273.50,152.50" class="wire"/><path d="M268.50,157.50 L273.50,157.50" class="wire"/><path d="M268.50,162.50 L292.50,162.50" class="wire"/><path d="M267.50,128.50 L297.50,128.50" class="cable"/><rect x="40.00" y="62.00" width="10.00" height="10.00" class="body"/><rect x="42.80" y="65.40" width="3.20" height="3.20" class="bodyl"/><line x1="42.80" y1="65.40" x2="46.00" y2="68.60" class="bodyl"/><rect x="56.25" y="65.75" width="7.50" height="2.50" class="body"/><line x1="35.00" y1="73.75" x2="40.00" y2="73.75" class="bodyl"/><line x1="35.00" y1="75.25" x2="40.00" y2="75.25" class="bodyl"/><rect x="82.50" y="62.00" width="10.00" height="10.00" class="body"/><rect x="85.30" y="65.40" width="3.20" height="3.20" class="bodyl"/><line x1="85.30" y1="65.40" x2="88.50" y2="68.60" class="bodyl"/><rect x="98.75" y="65.75" width="7.50" height="2.50" class="body"/><line x1="77.50" y1="73.75" x2="82.50" y2="73.75" class="bodyl"/><line x1="77.50" y1="75.25" x2="82.50" y2="75.25" class="bodyl"/><rect x="125.00" y="62.00" width="10.00" height="10.00" class="body"/><rect x="127.80" y="65.40" width="3.20" height="3.20" class="bodyl"/><line x1="127.80" y1="65.40" x2="131.00" y2="68.60" class="bodyl"/><rect x="141.25" y="65.75" width="7.50" height="2.50" class="body"/><line x1="120.00" y1="73.75" x2="125.00" y2="73.75" class="bodyl"/><line x1="120.00" y1="75.25" x2="125.00" y2="75.25" class="bodyl"/><line x1="160.00" y1="73.75" x2="165.00" y2="73.75" class="bodyl"/><line x1="160.00" y1="75.25" x2="165.00" y2="75.25" class="bodyl"/><rect x="190.00" y="34.50" width="12.00" height="35.00" class="body"/><rect x="250.00" y="37.00" width="6.00" height="30.00" class="body"/><circle cx="252.20" cy="39.50" r="0.55" class="bodyl"/><line x1="250.00" y1="39.50" x2="251.60" y2="39.50" class="bodyl"/><circle cx="252.20" cy="44.50" r="0.55" class="bodyl"/><line x1="250.00" y1="44.50" x2="251.60" y2="44.50" class="bodyl"/><circle cx="252.20" cy="49.50" r="0.55" class="bodyl"/><line x1="250.00" y1="49.50" x2="251.60" y2="49.50" class="bodyl"/><circle cx="252.20" cy="54.50" r="0.55" class="bodyl"/><line x1="250.00" y1="54.50" x2="251.60" y2="54.50" class="bodyl"/><circle cx="252.20" cy="59.50" r="0.55" class="bodyl"/><line x1="250.00" y1="59.50" x2="251.60" y2="59.50" class="bodyl"/><circle cx="252.20" cy="64.50" r="0.55" class="bodyl"/><line x1="250.00" y1="64.50" x2="251.60" y2="64.50" class="bodyl"/><rect x="257.50" y="37.00" width="6.00" height="30.00" class="body"/><line x1="261.90" y1="39.50" x2="263.50" y2="39.50" class="bodyl"/><circle cx="261.30" cy="39.50" r="0.55" class="bodyl"/><line x1="261.90" y1="44.50" x2="263.50" y2="44.50" class="bodyl"/><circle cx="261.30" cy="44.50" r="0.55" class="bodyl"/><line x1="261.90" y1="49.50" x2="263.50" y2="49.50" class="bodyl"/><circle cx="261.30" cy="49.50" r="0.55" class="bodyl"/><line x1="261.90" y1="54.50" x2="263.50" y2="54.50" class="bodyl"/><circle cx="261.30" cy="54.50" r="0.55" class="bodyl"/><line x1="261.90" y1="59.50" x2="263.50" y2="59.50" class="bodyl"/><circle cx="261.30" cy="59.50" r="0.55" class="bodyl"/><line x1="261.90" y1="64.50" x2="263.50" y2="64.50" class="bodyl"/><circle cx="261.30" cy="64.50" r="0.55" class="bodyl"/><rect x="40.00" y="160.00" width="10.00" height="10.00" class="body"/><rect x="42.80" y="163.40" width="3.20" height="3.20" class="bodyl"/><line x1="42.80" y1="163.40" x2="46.00" y2="166.60" class="bodyl"/><rect x="56.25" y="163.75" width="7.50" height="2.50" class="body"/><line x1="35.00" y1="171.75" x2="40.00" y2="171.75" class="bodyl"/><line x1="35.00" y1="173.25" x2="40.00" y2="173.25" class="bodyl"/><line x1="75.00" y1="171.75" x2="80.00" y2="171.75" class="bodyl"/><line x1="75.00" y1="173.25" x2="80.00" y2="173.25" class="bodyl"/><rect x="190.00" y="132.50" width="12.00" height="35.00" class="body"/><rect x="250.00" y="135.00" width="6.00" height="30.00" class="body"/><circle cx="252.20" cy="137.50" r="0.55" class="bodyl"/><line x1="250.00" y1="137.50" x2="251.60" y2="137.50" class="bodyl"/><circle cx="252.20" cy="142.50" r="0.55" class="bodyl"/><line x1="250.00" y1="142.50" x2="251.60" y2="142.50" class="bodyl"/><circle cx="252.20" cy="147.50" r="0.55" class="bodyl"/><line x1="250.00" y1="147.50" x2="251.60" y2="147.50" class="bodyl"/><circle cx="252.20" cy="152.50" r="0.55" class="bodyl"/><line x1="250.00" y1="152.50" x2="251.60" y2="152.50" class="bodyl"/><circle cx="252.20" cy="157.50" r="0.55" class="bodyl"/><line x1="250.00" y1="157.50" x2="251.60" y2="157.50" class="bodyl"/><circle cx="252.20" cy="162.50" r="0.55" class="bodyl"/><line x1="250.00" y1="162.50" x2="251.60" y2="162.50" class="bodyl"/><rect x="257.50" y="135.00" width="6.00" height="30.00" class="body"/><line x1="261.90" y1="137.50" x2="263.50" y2="137.50" class="bodyl"/><circle cx="261.30" cy="137.50" r="0.55" class="bodyl"/><line x1="261.90" y1="142.50" x2="263.50" y2="142.50" class="bodyl"/><circle cx="261.30" cy="142.50" r="0.55" class="bodyl"/><line x1="261.90" y1="147.50" x2="263.50" y2="147.50" class="bodyl"/><circle cx="261.30" cy="147.50" r="0.55" class="bodyl"/><line x1="261.90" y1="152.50" x2="263.50" y2="152.50" class="bodyl"/><circle cx="261.30" cy="152.50" r="0.55" class="bodyl"/><line x1="261.90" y1="157.50" x2="263.50" y2="157.50" class="bodyl"/><circle cx="261.30" cy="157.50" r="0.55" class="bodyl"/><line x1="261.90" y1="162.50" x2="263.50" y2="162.50" class="bodyl"/><circle cx="261.30" cy="162.50" r="0.55" class="bodyl"/><line x1="45.00" y1="59.50" x2="45.00" y2="62.00" class="pinl"/><text x="44.45" y="60.75" class="pinnum" text-anchor="middle" transform="rotate(-90 44.45 60.75)">1</text><text x="45.00" y="64.60" class="pinnameh" text-anchor="middle">VCC</text><line x1="45.00" y1="74.50" x2="45.00" y2="72.00" class="pinl"/><text x="44.45" y="73.25" class="pinnum" text-anchor="middle" transform="rotate(-90 44.45 73.25)">2</text><text x="45.00" y="71.10" class="pinnameh" text-anchor="middle">GND</text><line x1="52.50" y1="67.00" x2="50.00" y2="67.00" class="pinl"/><text x="51.25" y="66.45" class="pinnum" text-anchor="middle">3</text><line x1="67.50" y1="67.00" x2="63.75" y2="67.00" class="pinl"/><line x1="52.50" y1="67.00" x2="56.25" y2="67.00" class="pinl"/><line x1="37.50" y1="69.50" x2="37.50" y2="73.75" class="pinl"/><line x1="37.50" y1="79.50" x2="37.50" y2="75.25" class="pinl"/><line x1="87.50" y1="59.50" x2="87.50" y2="62.00" class="pinl"/><text x="86.95" y="60.75" class="pinnum" text-anchor="middle" transform="rotate(-90 86.95 60.75)">1</text><text x="87.50" y="64.60" class="pinnameh" text-anchor="middle">VCC</text><line x1="87.50" y1="74.50" x2="87.50" y2="72.00" class="pinl"/><text x="86.95" y="73.25" class="pinnum" text-anchor="middle" transform="rotate(-90 86.95 73.25)">2</text><text x="87.50" y="71.10" class="pinnameh" text-anchor="middle">GND</text><line x1="95.00" y1="67.00" x2="92.50" y2="67.00" class="pinl"/><text x="93.75" y="66.45" class="pinnum" text-anchor="middle">3</text><line x1="110.00" y1="67.00" x2="106.25" y2="67.00" class="pinl"/><line x1="95.00" y1="67.00" x2="98.75" y2="67.00" class="pinl"/><line x1="80.00" y1="69.50" x2="80.00" y2="73.75" class="pinl"/><line x1="80.00" y1="79.50" x2="80.00" y2="75.25" class="pinl"/><line x1="130.00" y1="59.50" x2="130.00" y2="62.00" class="pinl"/><text x="129.45" y="60.75" class="pinnum" text-anchor="middle" transform="rotate(-90 129.45 60.75)">1</text><text x="130.00" y="64.60" class="pinnameh" text-anchor="middle">VCC</text><line x1="130.00" y1="74.50" x2="130.00" y2="72.00" class="pinl"/><text x="129.45" y="73.25" class="pinnum" text-anchor="middle" transform="rotate(-90 129.45 73.25)">2</text><text x="130.00" y="71.10" class="pinnameh" text-anchor="middle">GND</text><line x1="137.50" y1="67.00" x2="135.00" y2="67.00" class="pinl"/><text x="136.25" y="66.45" class="pinnum" text-anchor="middle">3</text><line x1="152.50" y1="67.00" x2="148.75" y2="67.00" class="pinl"/><line x1="137.50" y1="67.00" x2="141.25" y2="67.00" class="pinl"/><line x1="122.50" y1="69.50" x2="122.50" y2="73.75" class="pinl"/><line x1="122.50" y1="79.50" x2="122.50" y2="75.25" class="pinl"/><line x1="162.50" y1="69.50" x2="162.50" y2="73.75" class="pinl"/><line x1="162.50" y1="79.50" x2="162.50" y2="75.25" class="pinl"/><line x1="207.00" y1="39.50" x2="202.00" y2="39.50" class="pinl"/><text x="204.50" y="38.95" class="pinnum" text-anchor="middle">1</text><text x="201.10" y="40.30" class="pinname" text-anchor="end">GND</text><line x1="207.00" y1="44.50" x2="202.00" y2="44.50" class="pinl"/><text x="204.50" y="43.95" class="pinnum" text-anchor="middle">2</text><text x="201.10" y="45.30" class="pinname" text-anchor="end">A0</text><line x1="207.00" y1="49.50" x2="202.00" y2="49.50" class="pinl"/><text x="204.50" y="48.95" class="pinnum" text-anchor="middle">3</text><text x="201.10" y="50.30" class="pinname" text-anchor="end">A#0</text><line x1="207.00" y1="54.50" x2="202.00" y2="54.50" class="pinl"/><text x="204.50" y="53.95" class="pinnum" text-anchor="middle">4</text><text x="201.10" y="55.30" class="pinname" text-anchor="end">B0</text><line x1="207.00" y1="64.50" x2="202.00" y2="64.50" class="pinl"/><text x="204.50" y="63.95" class="pinnum" text-anchor="middle">5</text><text x="201.10" y="65.30" class="pinname" text-anchor="end">3V3</text><line x1="245.00" y1="39.50" x2="250.00" y2="39.50" class="pinl"/><text x="247.50" y="38.95" class="pinnum" text-anchor="middle">1</text><line x1="245.00" y1="44.50" x2="250.00" y2="44.50" class="pinl"/><text x="247.50" y="43.95" class="pinnum" text-anchor="middle">2</text><line x1="245.00" y1="49.50" x2="250.00" y2="49.50" class="pinl"/><text x="247.50" y="48.95" class="pinnum" text-anchor="middle">3</text><line x1="245.00" y1="54.50" x2="250.00" y2="54.50" class="pinl"/><text x="247.50" y="53.95" class="pinnum" text-anchor="middle">4</text><line x1="245.00" y1="59.50" x2="250.00" y2="59.50" class="pinl"/><text x="247.50" y="58.95" class="pinnum" text-anchor="middle">5</text><line x1="245.00" y1="64.50" x2="250.00" y2="64.50" class="pinl"/><text x="247.50" y="63.95" class="pinnum" text-anchor="middle">6</text><line x1="268.50" y1="39.50" x2="263.50" y2="39.50" class="pinl"/><text x="266.00" y="38.95" class="pinnum" text-anchor="middle">1</text><line x1="268.50" y1="44.50" x2="263.50" y2="44.50" class="pinl"/><text x="266.00" y="43.95" class="pinnum" text-anchor="middle">2</text><line x1="268.50" y1="49.50" x2="263.50" y2="49.50" class="pinl"/><text x="266.00" y="48.95" class="pinnum" text-anchor="middle">3</text><line x1="268.50" y1="54.50" x2="263.50" y2="54.50" class="pinl"/><text x="266.00" y="53.95" class="pinnum" text-anchor="middle">4</text><line x1="268.50" y1="59.50" x2="263.50" y2="59.50" class="pinl"/><text x="266.00" y="58.95" class="pinnum" text-anchor="middle">5</text><line x1="268.50" y1="64.50" x2="263.50" y2="64.50" class="pinl"/><text x="266.00" y="63.95" class="pinnum" text-anchor="middle">6</text><line x1="45.00" y1="157.50" x2="45.00" y2="160.00" class="pinl"/><text x="44.45" y="158.75" class="pinnum" text-anchor="middle" transform="rotate(-90 44.45 158.75)">1</text><text x="45.00" y="162.60" class="pinnameh" text-anchor="middle">VCC</text><line x1="45.00" y1="172.50" x2="45.00" y2="170.00" class="pinl"/><text x="44.45" y="171.25" class="pinnum" text-anchor="middle" transform="rotate(-90 44.45 171.25)">2</text><text x="45.00" y="169.10" class="pinnameh" text-anchor="middle">GND</text><line x1="52.50" y1="165.00" x2="50.00" y2="165.00" class="pinl"/><text x="51.25" y="164.45" class="pinnum" text-anchor="middle">3</text><line x1="67.50" y1="165.00" x2="63.75" y2="165.00" class="pinl"/><line x1="52.50" y1="165.00" x2="56.25" y2="165.00" class="pinl"/><line x1="37.50" y1="167.50" x2="37.50" y2="171.75" class="pinl"/><line x1="37.50" y1="177.50" x2="37.50" y2="173.25" class="pinl"/><line x1="77.50" y1="167.50" x2="77.50" y2="171.75" class="pinl"/><line x1="77.50" y1="177.50" x2="77.50" y2="173.25" class="pinl"/><line x1="207.00" y1="137.50" x2="202.00" y2="137.50" class="pinl"/><text x="204.50" y="136.95" class="pinnum" text-anchor="middle">1</text><text x="201.10" y="138.30" class="pinname" text-anchor="end">GND</text><line x1="207.00" y1="142.50" x2="202.00" y2="142.50" class="pinl"/><text x="204.50" y="141.95" class="pinnum" text-anchor="middle">2</text><text x="201.10" y="143.30" class="pinname" text-anchor="end">C8</text><line x1="207.00" y1="162.50" x2="202.00" y2="162.50" class="pinl"/><text x="204.50" y="161.95" class="pinnum" text-anchor="middle">3</text><text x="201.10" y="163.30" class="pinname" text-anchor="end">3V3</text><line x1="245.00" y1="137.50" x2="250.00" y2="137.50" class="pinl"/><text x="247.50" y="136.95" class="pinnum" text-anchor="middle">1</text><line x1="245.00" y1="142.50" x2="250.00" y2="142.50" class="pinl"/><text x="247.50" y="141.95" class="pinnum" text-anchor="middle">2</text><line x1="245.00" y1="147.50" x2="250.00" y2="147.50" class="pinl"/><text x="247.50" y="146.95" class="pinnum" text-anchor="middle">3</text><line x1="245.00" y1="152.50" x2="250.00" y2="152.50" class="pinl"/><text x="247.50" y="151.95" class="pinnum" text-anchor="middle">4</text><line x1="245.00" y1="157.50" x2="250.00" y2="157.50" class="pinl"/><text x="247.50" y="156.95" class="pinnum" text-anchor="middle">5</text><line x1="245.00" y1="162.50" x2="250.00" y2="162.50" class="pinl"/><text x="247.50" y="161.95" class="pinnum" text-anchor="middle">6</text><line x1="268.50" y1="137.50" x2="263.50" y2="137.50" class="pinl"/><text x="266.00" y="136.95" class="pinnum" text-anchor="middle">1</text><line x1="268.50" y1="142.50" x2="263.50" y2="142.50" class="pinl"/><text x="266.00" y="141.95" class="pinnum" text-anchor="middle">2</text><line x1="268.50" y1="147.50" x2="263.50" y2="147.50" class="pinl"/><text x="266.00" y="146.95" class="pinnum" text-anchor="middle">3</text><line x1="268.50" y1="152.50" x2="263.50" y2="152.50" class="pinl"/><text x="266.00" y="151.95" class="pinnum" text-anchor="middle">4</text><line x1="268.50" y1="157.50" x2="263.50" y2="157.50" class="pinl"/><text x="266.00" y="156.95" class="pinnum" text-anchor="middle">5</text><line x1="268.50" y1="162.50" x2="263.50" y2="162.50" class="pinl"/><text x="266.00" y="161.95" class="pinnum" text-anchor="middle">6</text><text x="15.50" y="25.40" class="boxt">EL — 왼쪽 끝 부속 센서 기판 (x1.0~46.5 × y60.65~75.89, 45.5 × 15.24 mm, 6행) — BRD-02 배치</text><text x="46.60" y="58.60" class="ref">U401</text><text x="40.20" y="80.50" class="noteb">A0</text><text x="60.00" y="64.00" class="ref" text-anchor="middle">R401</text><text x="60.00" y="71.90" class="val" text-anchor="middle">1k</text><text x="69.10" y="66.30" class="lbl">EL_A0</text><text x="36.50" y="73.30" class="ref" text-anchor="end">C401</text><text x="36.50" y="76.70" class="val" text-anchor="end">100n</text><text x="89.10" y="58.60" class="ref">U402</text><text x="82.70" y="80.50" class="noteb">A#0</text><text x="102.50" y="64.00" class="ref" text-anchor="middle">R402</text><text x="102.50" y="71.90" class="val" text-anchor="middle">1k</text><text x="111.60" y="66.30" class="lbl">EL_AS0</text><text x="79.00" y="73.30" class="ref" text-anchor="end">C402</text><text x="79.00" y="76.70" class="val" text-anchor="end">100n</text><text x="131.60" y="58.60" class="ref">U403</text><text x="125.20" y="80.50" class="noteb">B0</text><text x="145.00" y="64.00" class="ref" text-anchor="middle">R403</text><text x="145.00" y="71.90" class="val" text-anchor="middle">1k</text><text x="154.10" y="66.30" class="lbl">EL_B0</text><text x="121.50" y="73.30" class="ref" text-anchor="end">C403</text><text x="121.50" y="76.70" class="val" text-anchor="end">100n</text><text x="165.70" y="73.90" class="ref">C404</text><text x="165.70" y="76.90" class="val">10µ</text><text x="190.00" y="32.30" class="ref">J401</text><text x="190.00" y="73.00" class="val">리드선 패드 ×5</text><text x="250.00" y="34.80" class="ref">X401</text><text x="230.00" y="73.00" class="val">JST-XH 6P (끝 부속 쪽)</text><text x="257.50" y="34.80" class="ref">X402</text><text x="257.50" y="76.00" class="val">JST-XH 6P (모듈 쪽)</text><text x="210.60" y="43.80" class="lbl">EL_A0</text><text x="210.60" y="48.80" class="lbl">EL_AS0</text><text x="210.60" y="53.80" class="lbl">EL_B0</text><text x="210.60" y="63.80" class="lbl">+3V3_EL</text><text x="212.00" y="29.00" class="cabt">W401: 5심 350 mm</text><text x="298.50" y="40.30" class="notes">→ O1 J302-1 GND (검정 끝선)</text><text x="298.50" y="45.30" class="notes">→ O1 J302-2 EXT1 = 먹스 C12</text><text x="298.50" y="50.30" class="notes">→ O1 J302-3 EXT2 = 먹스 C13</text><text x="298.50" y="55.30" class="notes">→ O1 J302-4 EXT3 = 먹스 C14</text><text x="298.50" y="60.30" class="notes">→ O1 J302-5 EXT4 = 먹스 C15 (비움)</text><text x="298.50" y="65.30" class="notes">→ O1 J302-6 3V3 (빨강 끝선)</text><text x="267.50" y="29.00" class="cabt">W403: 6심 150 mm → O1 제어 기판 EXT (SCH-03 J302)</text><text x="15.50" y="123.40" class="boxt">ER — 오른쪽 끝 부속 센서 기판 (로컬 x1.0~23.0 × y60.65~75.89, 22.0 × 15.24 mm, 6행) — BRD-02 배치</text><text x="46.60" y="156.60" class="ref">U411</text><text x="40.20" y="178.50" class="noteb">C8</text><text x="60.00" y="162.00" class="ref" text-anchor="middle">R411</text><text x="60.00" y="169.90" class="val" text-anchor="middle">1k</text><text x="69.10" y="164.30" class="lbl">ER_C8</text><text x="36.50" y="171.30" class="ref" text-anchor="end">C411</text><text x="36.50" y="174.70" class="val" text-anchor="end">100n</text><text x="80.70" y="171.90" class="ref">C412</text><text x="80.70" y="174.90" class="val">10µ</text><text x="190.00" y="130.30" class="ref">J411</text><text x="190.00" y="171.00" class="val">리드선 패드 ×3</text><text x="250.00" y="132.80" class="ref">X411</text><text x="230.00" y="171.00" class="val">JST-XH 6P (끝 부속 쪽)</text><text x="257.50" y="132.80" class="ref">X412</text><text x="257.50" y="174.00" class="val">JST-XH 6P (모듈 쪽)</text><text x="210.60" y="141.80" class="lbl">ER_C8</text><text x="210.60" y="161.80" class="lbl">+3V3_ER</text><text x="212.00" y="127.00" class="cabt">W411: 3심 300 mm</text><text x="298.50" y="138.30" class="notes">→ O7 J302-1 GND (검정 끝선)</text><text x="298.50" y="143.30" class="notes">→ O7 J302-2 EXT1 = 먹스 C12</text><text x="298.50" y="148.30" class="notes">→ O7 J302-3 EXT2 = 먹스 C13 (비움)</text><text x="298.50" y="153.30" class="notes">→ O7 J302-4 EXT3 = 먹스 C14 (비움)</text><text x="298.50" y="158.30" class="notes">→ O7 J302-5 EXT4 = 먹스 C15 (비움)</text><text x="298.50" y="163.30" class="notes">→ O7 J302-6 3V3 (빨강 끝선)</text><text x="267.50" y="127.00" class="cabt">W413: 6심 150 mm → O7 제어 기판 EXT (SCH-03 J302)</text><text x="15.00" y="220.00" class="note">주  1. 끝 부속 센서도 SCH-02와 같다: DRV5055A2 + 100 nF(센서 옆). W1 자석 x: 왼쪽 부속(x0~47) A0 10.287, A#0 26.927, B0 40.141, 오른쪽 부속(로컬 x0~23.5) C8 11.75.</text><text x="15.00" y="223.19" class="note">        기판은 W1 r4.2 끝 부속 센서 바(왼 x0.5~46.5, 오른 x0.5~23.0) 안: EL x1.0~46.5, ER x1.0~23.0 (SB와 같은 6행 15.24). 리드 구멍 A0 13.33, A#0 31.11, B0 43.81, C8 15.87.</text><text x="15.00" y="226.38" class="note">     2. 커넥터: 밸런스 연장선(JST-XH 6P, 200 mm)을 모듈 쪽 150 · 끝 부속 쪽 50으로 잘라 쓴다. ‘&gt;&gt;’ = 맞물림(KiCad에서는 연결이 아니다 →</text><text x="15.00" y="229.57" class="note">        양쪽에 같은 넷 이름). +3V3_EL·+3V3_ER은 각각 O1·O7 제어 기판의 3V3 레일이다(프로젝트 전원 심볼로 추가).</text><text x="15.00" y="232.76" class="note">     3. △6 XH 위치 = J302 EXT 패드 번호: 1 = GND(검정 끝선), 2~5 = 먹스 C12~C15, 6 = 3V3(빨강 끝선). 빨강 1 + 검정 5라 위치로만 구분 —</text><text x="15.00" y="235.95" class="note">        자르기 전에 양쪽에 번호 테이프, 납땜 뒤 끝에서 끝까지 통전 확인.</text><text x="15.00" y="239.14" class="note">     4. △3 C404·C412 10 µF: 3V3가 긴 선 끝(EL 150 + 350 mm, ER 150 + 300 mm)이라 벌크 콘덴서 추가.</text><text x="15.00" y="242.33" class="note">     5. △8 R401~R403·R411 1 kΩ 1206 칩(아랫면, △13): 센서 바가 기판 윗면을 덮어 리드형 저항을 둘 자리가 없다 — OUT 구멍과 바로 뒤 행(y72.08) 사이.</text><text x="15.00" y="245.52" class="note">        센서 OUT 바로 뒤에서 약 0.6 m 선 용량을 떼어 낸다(TI: OUT에 C 직결 금지). MB의 100 kΩ 풀다운과 함께</text><text x="15.00" y="248.71" class="note">        끝 부속을 빼면 EXT = 0 V. 펌웨어: O1 C12~C14 → MIDI 21~23, O7 C12 → 108, 0.15 V 아래면 센서 없음.</text><text x="15.00" y="251.90" class="note">     6. W401·W411 길(W1 r4.4, r4.5 그대로): 패드(아랫면) → 기판 밑 → 뒤 받침 리브 틈 → 패드 줄 뒤 y77.39 안에서 EL x14.83~21.18 · ER x8.89~12.70으로 모음</text><text x="15.00" y="255.09" class="note">        → 바닥(건반 밑) → 끝 부속 밸런스 레일 밑 차선(z5~10; EL x13.53~22.48, ER x7.59~14.00) → 뒷벽 홈(z5~12) → 뒤 케이블 통로의 X401·X411.</text><text x="15.00" y="258.28" class="note">        순서: 리본 가닥을 J401/J411에 납땜 → 기판·센서 바 고정 → 자유 끝을 리브 틈·차선·뒷벽 홈으로 꿴 뒤, 뒤 통로에서 L66 끝 부속 쪽 50 mm 리드와</text><text x="15.00" y="261.47" class="note">        이어 열수축(C10). XH 하우징(폭 약 17)은 차선·홈을 못 지나므로 먼저 달지 않는다. 아랫면 칩·납땜 ≤ 1.8 mm(기판 밑 2.0).</text><text x="12.00" y="16.50" class="tbt">SCH-04  끝 부속 센서 기판 (EL · ER) + EXT 연결</text><text x="12.00" y="21.20" class="notes">왼쪽 끝 부속 A0·A#0·B0 센서 3개는 O1, 오른쪽 C8 센서 1개는 O7 제어 기판의 EXT(먹스 C12~)로 읽는다. 파트 사이는 JST-XH 6핀 잠금 커넥터(R26).</text><line x1="25.00" y1="42.00" x2="25.00" y2="39.80" class="pwr"/><polyline points="23.70,40.80 25.00,39.40 26.30,40.80" class="pwr"/><text x="25.00" y="38.60" class="pwrt" text-anchor="middle">+3V3_EL</text><line x1="25.00" y1="92.00" x2="25.00" y2="94.00" class="pwr"/><line x1="23.00" y1="94.00" x2="27.00" y2="94.00" class="pwr"/><line x1="23.70" y1="94.70" x2="26.30" y2="94.70" class="pwr"/><line x1="24.40" y1="95.40" x2="25.60" y2="95.40" class="pwr"/><circle cx="68.50" cy="67.00" r=".35" fill="#101820"/><circle cx="111.00" cy="67.00" r=".35" fill="#101820"/><circle cx="153.50" cy="67.00" r=".35" fill="#101820"/><polygon points="60.00,73.80 62.20,77.60 57.80,77.60" class="chg"/><text x="60.00" y="77.05" class="chgt" text-anchor="middle">8</text><polygon points="67.00,59.80 69.20,63.60 64.80,63.60" class="chg"/><text x="67.00" y="63.05" class="chgt" text-anchor="middle">13</text><polygon points="172.50,79.80 174.70,83.60 170.30,83.60" class="chg"/><text x="172.50" y="83.05" class="chgt" text-anchor="middle">3</text><path d="M254.70,67.80 L256.30,69.20 L254.70,70.60 M256.70,67.80 L258.30,69.20 L256.70,70.60" fill="none" stroke="#8c1c13" stroke-width=".35"/><line x1="232.00" y1="39.50" x2="232.00" y2="41.50" class="pwr"/><line x1="230.00" y1="41.50" x2="234.00" y2="41.50" class="pwr"/><line x1="230.70" y1="42.20" x2="233.30" y2="42.20" class="pwr"/><line x1="231.40" y1="42.90" x2="232.60" y2="42.90" class="pwr"/><circle cx="210.00" cy="44.50" r=".35" fill="#101820"/><circle cx="210.00" cy="49.50" r=".35" fill="#101820"/><circle cx="210.00" cy="54.50" r=".35" fill="#101820"/><line x1="244.10" y1="58.60" x2="245.90" y2="60.40" class="nc"/><line x1="244.10" y1="60.40" x2="245.90" y2="58.60" class="nc"/><circle cx="210.00" cy="64.50" r=".35" fill="#101820"/><line x1="292.50" y1="39.50" x2="292.50" y2="41.50" class="pwr"/><line x1="290.50" y1="41.50" x2="294.50" y2="41.50" class="pwr"/><line x1="291.20" y1="42.20" x2="293.80" y2="42.20" class="pwr"/><line x1="291.90" y1="42.90" x2="293.10" y2="42.90" class="pwr"/><polygon points="273.50,44.50 275.20,42.80 283.30,42.80 283.30,46.20 275.20,46.20" class="glbl"/><text x="275.70" y="45.30" class="glblt">EL_A0</text><polygon points="273.50,49.50 275.20,47.80 284.62,47.80 284.62,51.20 275.20,51.20" class="glbl"/><text x="275.70" y="50.30" class="glblt">EL_AS0</text><polygon points="273.50,54.50 275.20,52.80 283.30,52.80 283.30,56.20 275.20,56.20" class="glbl"/><text x="275.70" y="55.30" class="glblt">EL_B0</text><polygon points="273.50,59.50 275.20,57.80 285.94,57.80 285.94,61.20 275.20,61.20" class="glbl"/><text x="275.70" y="60.30" class="glblt">EL_EXT4</text><line x1="292.50" y1="64.50" x2="292.50" y2="62.30" class="pwr"/><polyline points="291.20,63.30 292.50,61.90 293.80,63.30" class="pwr"/><text x="292.50" y="61.10" class="pwrt" text-anchor="middle">+3V3_EL</text><polygon points="248.00,28.80 250.20,32.60 245.80,32.60" class="chg"/><text x="248.00" y="32.05" class="chgt" text-anchor="middle">6</text><line x1="25.00" y1="140.00" x2="25.00" y2="137.80" class="pwr"/><polyline points="23.70,138.80 25.00,137.40 26.30,138.80" class="pwr"/><text x="25.00" y="136.60" class="pwrt" text-anchor="middle">+3V3_ER</text><line x1="25.00" y1="190.00" x2="25.00" y2="192.00" class="pwr"/><line x1="23.00" y1="192.00" x2="27.00" y2="192.00" class="pwr"/><line x1="23.70" y1="192.70" x2="26.30" y2="192.70" class="pwr"/><line x1="24.40" y1="193.40" x2="25.60" y2="193.40" class="pwr"/><circle cx="68.50" cy="165.00" r=".35" fill="#101820"/><polygon points="60.00,171.80 62.20,175.60 57.80,175.60" class="chg"/><text x="60.00" y="175.05" class="chgt" text-anchor="middle">8</text><polygon points="67.00,157.80 69.20,161.60 64.80,161.60" class="chg"/><text x="67.00" y="161.05" class="chgt" text-anchor="middle">13</text><polygon points="87.50,177.80 89.70,181.60 85.30,181.60" class="chg"/><text x="87.50" y="181.05" class="chgt" text-anchor="middle">3</text><path d="M254.70,165.80 L256.30,167.20 L254.70,168.60 M256.70,165.80 L258.30,167.20 L256.70,168.60" fill="none" stroke="#8c1c13" stroke-width=".35"/><line x1="232.00" y1="137.50" x2="232.00" y2="139.50" class="pwr"/><line x1="230.00" y1="139.50" x2="234.00" y2="139.50" class="pwr"/><line x1="230.70" y1="140.20" x2="233.30" y2="140.20" class="pwr"/><line x1="231.40" y1="140.90" x2="232.60" y2="140.90" class="pwr"/><circle cx="210.00" cy="142.50" r=".35" fill="#101820"/><line x1="244.10" y1="146.60" x2="245.90" y2="148.40" class="nc"/><line x1="244.10" y1="148.40" x2="245.90" y2="146.60" class="nc"/><line x1="244.10" y1="151.60" x2="245.90" y2="153.40" class="nc"/><line x1="244.10" y1="153.40" x2="245.90" y2="151.60" class="nc"/><line x1="244.10" y1="156.60" x2="245.90" y2="158.40" class="nc"/><line x1="244.10" y1="158.40" x2="245.90" y2="156.60" class="nc"/><circle cx="210.00" cy="162.50" r=".35" fill="#101820"/><line x1="292.50" y1="137.50" x2="292.50" y2="139.50" class="pwr"/><line x1="290.50" y1="139.50" x2="294.50" y2="139.50" class="pwr"/><line x1="291.20" y1="140.20" x2="293.80" y2="140.20" class="pwr"/><line x1="291.90" y1="140.90" x2="293.10" y2="140.90" class="pwr"/><polygon points="273.50,142.50 275.20,140.80 283.30,140.80 283.30,144.20 275.20,144.20" class="glbl"/><text x="275.70" y="143.30" class="glblt">ER_C8</text><polygon points="273.50,147.50 275.20,145.80 285.94,145.80 285.94,149.20 275.20,149.20" class="glbl"/><text x="275.70" y="148.30" class="glblt">ER_EXT2</text><polygon points="273.50,152.50 275.20,150.80 285.94,150.80 285.94,154.20 275.20,154.20" class="glbl"/><text x="275.70" y="153.30" class="glblt">ER_EXT3</text><polygon points="273.50,157.50 275.20,155.80 285.94,155.80 285.94,159.20 275.20,159.20" class="glbl"/><text x="275.70" y="158.30" class="glblt">ER_EXT4</text><line x1="292.50" y1="162.50" x2="292.50" y2="160.30" class="pwr"/><polyline points="291.20,161.30 292.50,159.90 293.80,161.30" class="pwr"/><text x="292.50" y="159.10" class="pwrt" text-anchor="middle">+3V3_ER</text><polygon points="248.00,126.80 250.20,130.60 245.80,130.60" class="chg"/><text x="248.00" y="130.05" class="chgt" text-anchor="middle">6</text><circle cx="87.50" cy="42.00" r=".6" class="jn"/><circle cx="45.00" cy="42.00" r=".6" class="jn"/><circle cx="130.00" cy="42.00" r=".6" class="jn"/><circle cx="122.50" cy="42.00" r=".6" class="jn"/><circle cx="80.00" cy="42.00" r=".6" class="jn"/><circle cx="37.50" cy="42.00" r=".6" class="jn"/><circle cx="122.50" cy="92.00" r=".6" class="jn"/><circle cx="80.00" cy="92.00" r=".6" class="jn"/><circle cx="37.50" cy="92.00" r=".6" class="jn"/><circle cx="87.50" cy="92.00" r=".6" class="jn"/><circle cx="45.00" cy="92.00" r=".6" class="jn"/><circle cx="130.00" cy="92.00" r=".6" class="jn"/><circle cx="245.00" cy="39.50" r=".6" class="jn"/><circle cx="232.00" cy="39.50" r=".6" class="jn"/><circle cx="245.00" cy="44.50" r=".6" class="jn"/><circle cx="245.00" cy="49.50" r=".6" class="jn"/><circle cx="245.00" cy="54.50" r=".6" class="jn"/><circle cx="245.00" cy="64.50" r=".6" class="jn"/><circle cx="37.50" cy="140.00" r=".6" class="jn"/><circle cx="45.00" cy="140.00" r=".6" class="jn"/><circle cx="45.00" cy="190.00" r=".6" class="jn"/><circle cx="37.50" cy="190.00" r=".6" class="jn"/><circle cx="245.00" cy="137.50" r=".6" class="jn"/><circle cx="232.00" cy="137.50" r=".6" class="jn"/><circle cx="245.00" cy="142.50" r=".6" class="jn"/><circle cx="245.00" cy="162.50" r=".6" class="jn"/></svg>