solid OpenSCAD_Model
  facet normal 0 -1 0
    outer loop
      vertex 36 0 0
      vertex 55.5 0 8
      vertex 36 0 8
    endloop
  endfacet
  facet normal 0 0 -1
    outer loop
      vertex 36 0 0
      vertex 36 6 0
      vertex 40 6 0
    endloop
  endfacet
  facet normal 0 0 -1
    outer loop
      vertex 36 0 0
      vertex 40 6 0
      vertex 51.5 6 0
    endloop
  endfacet
  facet normal 0 0 -1
    outer loop
      vertex 36 0 0
      vertex 51.5 6 0
      vertex 55.5 6 0
    endloop
  endfacet
  facet normal -1 0 0
    outer loop
      vertex 36 0 0
      vertex 36 6 8
      vertex 36 6 0
    endloop
  endfacet
  facet normal 0 1 0
    outer loop
      vertex 36 6 0
      vertex 40 6 2.52
      vertex 40 6 0
    endloop
  endfacet
  facet normal -1 0 0
    outer loop
      vertex 36 0 0
      vertex 36 0 8
      vertex 36 6 8
    endloop
  endfacet
  facet normal 0 1 0
    outer loop
      vertex 36 6 0
      vertex 36 6 8
      vertex 40 6 2.52
    endloop
  endfacet
  facet normal 0 1 0
    outer loop
      vertex 36 6 8
      vertex 51.5 6 2.52
      vertex 40 6 2.52
    endloop
  endfacet
  facet normal 0 0 1
    outer loop
      vertex 36 0 8
      vertex 55.5 0 8
      vertex 36 6 8
    endloop
  endfacet
  facet normal 0 1 0
    outer loop
      vertex 36 6 8
      vertex 55.5 6 8
      vertex 51.5 6 2.52
    endloop
  endfacet
  facet normal 0 -1 0
    outer loop
      vertex 36 0 0
      vertex 55.5 0 0
      vertex 55.5 0 8
    endloop
  endfacet
  facet normal 0 0 -1
    outer loop
      vertex 36 0 0
      vertex 55.5 6 0
      vertex 55.5 0 0
    endloop
  endfacet
  facet normal 1 0 0
    outer loop
      vertex 55.5 0 0
      vertex 55.5 6 0
      vertex 55.5 0 8
    endloop
  endfacet
  facet normal 0 1 0
    outer loop
      vertex 55.5 6 0
      vertex 51.5 6 0
      vertex 55.5 6 8
    endloop
  endfacet
  facet normal 1 0 0
    outer loop
      vertex 55.5 6 0
      vertex 55.5 6 8
      vertex 55.5 0 8
    endloop
  endfacet
  facet normal 0 1 0
    outer loop
      vertex 55.5 6 8
      vertex 51.5 6 0
      vertex 51.5 6 2.52
    endloop
  endfacet
  facet normal 0 0 1
    outer loop
      vertex 36 6 8
      vertex 55.5 0 8
      vertex 55.5 6 8
    endloop
  endfacet
  facet normal 0 -1 0
    outer loop
      vertex -4 0 0
      vertex 15.5 0 0
      vertex 15.5 0 8
    endloop
  endfacet
  facet normal 0 -1 0
    outer loop
      vertex -4 0 0
      vertex 15.5 0 8
      vertex -4 0 8
    endloop
  endfacet
  facet normal 0 0 -1
    outer loop
      vertex -4 0 0
      vertex -4 6 0
      vertex 0 6 0
    endloop
  endfacet
  facet normal 0 0 -1
    outer loop
      vertex -4 0 0
      vertex 0 6 0
      vertex 11.5 6 0
    endloop
  endfacet
  facet normal 0 0 -1
    outer loop
      vertex -4 0 0
      vertex 15.5 6 0
      vertex 15.5 0 0
    endloop
  endfacet
  facet normal 0 0 -1
    outer loop
      vertex -4 0 0
      vertex 11.5 6 0
      vertex 15.5 6 0
    endloop
  endfacet
  facet normal -1 0 0
    outer loop
      vertex -4 0 0
      vertex -4 6 8
      vertex -4 6 0
    endloop
  endfacet
  facet normal 0 1 0
    outer loop
      vertex -4 6 0
      vertex 0 6 1.68
      vertex 0 6 0
    endloop
  endfacet
  facet normal 1 0 0
    outer loop
      vertex 15.5 0 0
      vertex 15.5 6 0
      vertex 15.5 0 8
    endloop
  endfacet
  facet normal 0 1 0
    outer loop
      vertex 15.5 6 0
      vertex 11.5 6 0
      vertex 15.5 6 8
    endloop
  endfacet
  facet normal -1 0 0
    outer loop
      vertex -4 0 0
      vertex -4 0 8
      vertex -4 6 8
    endloop
  endfacet
  facet normal 0 1 0
    outer loop
      vertex -4 6 0
      vertex -4 6 8
      vertex 0 6 1.68
    endloop
  endfacet
  facet normal 0 1 0
    outer loop
      vertex -4 6 8
      vertex 11.5 6 1.68
      vertex 0 6 1.68
    endloop
  endfacet
  facet normal 0 1 0
    outer loop
      vertex -4 6 8
      vertex 15.5 6 8
      vertex 11.5 6 1.68
    endloop
  endfacet
  facet normal 1 0 0
    outer loop
      vertex 15.5 6 0
      vertex 15.5 6 8
      vertex 15.5 0 8
    endloop
  endfacet
  facet normal 0 1 0
    outer loop
      vertex 15.5 6 8
      vertex 11.5 6 0
      vertex 11.5 6 1.68
    endloop
  endfacet
  facet normal 0 0 1
    outer loop
      vertex -4 0 8
      vertex 15.5 0 8
      vertex -4 6 8
    endloop
  endfacet
  facet normal 0 0 1
    outer loop
      vertex -4 6 8
      vertex 15.5 0 8
      vertex 15.5 6 8
    endloop
  endfacet
  facet normal 0 -1 0
    outer loop
      vertex 16 0 0
      vertex 35.5 0 0
      vertex 35.5 0 8
    endloop
  endfacet
  facet normal 0 -1 0
    outer loop
      vertex 16 0 0
      vertex 35.5 0 8
      vertex 16 0 8
    endloop
  endfacet
  facet normal 0 0 -1
    outer loop
      vertex 16 0 0
      vertex 16 6 0
      vertex 20 6 0
    endloop
  endfacet
  facet normal -1 0 0
    outer loop
      vertex 16 0 0
      vertex 16 6 8
      vertex 16 6 0
    endloop
  endfacet
  facet normal 0 1 0
    outer loop
      vertex 16 6 0
      vertex 20 6 2.1
      vertex 20 6 0
    endloop
  endfacet
  facet normal -1 0 0
    outer loop
      vertex 16 0 0
      vertex 16 0 8
      vertex 16 6 8
    endloop
  endfacet
  facet normal 0 1 0
    outer loop
      vertex 16 6 0
      vertex 16 6 8
      vertex 20 6 2.1
    endloop
  endfacet
  facet normal 0 0 -1
    outer loop
      vertex 16 0 0
      vertex 20 6 0
      vertex 31.5 6 0
    endloop
  endfacet
  facet normal 0 0 -1
    outer loop
      vertex 16 0 0
      vertex 31.5 6 0
      vertex 35.5 6 0
    endloop
  endfacet
  facet normal 0 0 -1
    outer loop
      vertex 16 0 0
      vertex 35.5 6 0
      vertex 35.5 0 0
    endloop
  endfacet
  facet normal 0 1 0
    outer loop
      vertex 35.5 6 0
      vertex 31.5 6 0
      vertex 35.5 6 8
    endloop
  endfacet
  facet normal 1 0 0
    outer loop
      vertex 35.5 0 0
      vertex 35.5 6 0
      vertex 35.5 0 8
    endloop
  endfacet
  facet normal 0 1 0
    outer loop
      vertex 16 6 8
      vertex 31.5 6 2.1
      vertex 20 6 2.1
    endloop
  endfacet
  facet normal 0 1 0
    outer loop
      vertex 35.5 6 8
      vertex 31.5 6 0
      vertex 31.5 6 2.1
    endloop
  endfacet
  facet normal 1 0 0
    outer loop
      vertex 35.5 6 0
      vertex 35.5 6 8
      vertex 35.5 0 8
    endloop
  endfacet
  facet normal 0 0 1
    outer loop
      vertex 16 0 8
      vertex 35.5 0 8
      vertex 16 6 8
    endloop
  endfacet
  facet normal 0 0 1
    outer loop
      vertex 16 6 8
      vertex 35.5 0 8
      vertex 35.5 6 8
    endloop
  endfacet
  facet normal 0 1 0
    outer loop
      vertex 16 6 8
      vertex 35.5 6 8
      vertex 31.5 6 2.1
    endloop
  endfacet
  facet normal 0 0 -1
    outer loop
      vertex 36 34 0
      vertex 55.5 40 0
      vertex 40 34 0
    endloop
  endfacet
  facet normal 0 -1 0
    outer loop
      vertex 36 34 0
      vertex 40 34 0
      vertex 36 34 8
    endloop
  endfacet
  facet normal 0 0 -1
    outer loop
      vertex 36 34 0
      vertex 36 40 0
      vertex 55.5 40 0
    endloop
  endfacet
  facet normal -1 0 0
    outer loop
      vertex 36 34 0
      vertex 36 40 8
      vertex 36 40 0
    endloop
  endfacet
  facet normal 0 1 0
    outer loop
      vertex 36 40 0
      vertex 36 40 8
      vertex 55.5 40 0
    endloop
  endfacet
  facet normal 0 -1 0
    outer loop
      vertex 36 34 8
      vertex 40 34 0
      vertex 40 34 2.52
    endloop
  endfacet
  facet normal -1 0 0
    outer loop
      vertex 36 34 0
      vertex 36 34 8
      vertex 36 40 8
    endloop
  endfacet
  facet normal 0 -1 0
    outer loop
      vertex 36 34 8
      vertex 40 34 2.52
      vertex 55.5 34 8
    endloop
  endfacet
  facet normal 0 0 1
    outer loop
      vertex 36 34 8
      vertex 55.5 34 8
      vertex 36 40 8
    endloop
  endfacet
  facet normal 0 -1 0
    outer loop
      vertex 55.5 34 0
      vertex 51.5 34 2.52
      vertex 51.5 34 0
    endloop
  endfacet
  facet normal 0 0 -1
    outer loop
      vertex 55.5 40 0
      vertex 51.5 34 0
      vertex 40 34 0
    endloop
  endfacet
  facet normal 0 0 -1
    outer loop
      vertex 55.5 34 0
      vertex 51.5 34 0
      vertex 55.5 40 0
    endloop
  endfacet
  facet normal 1 0 0
    outer loop
      vertex 55.5 34 0
      vertex 55.5 40 0
      vertex 55.5 34 8
    endloop
  endfacet
  facet normal 0 -1 0
    outer loop
      vertex 55.5 34 0
      vertex 55.5 34 8
      vertex 51.5 34 2.52
    endloop
  endfacet
  facet normal 0 -1 0
    outer loop
      vertex 55.5 34 8
      vertex 40 34 2.52
      vertex 51.5 34 2.52
    endloop
  endfacet
  facet normal 0 1 0
    outer loop
      vertex 36 40 8
      vertex 55.5 40 8
      vertex 55.5 40 0
    endloop
  endfacet
  facet normal 1 0 0
    outer loop
      vertex 55.5 40 0
      vertex 55.5 40 8
      vertex 55.5 34 8
    endloop
  endfacet
  facet normal 0 0 1
    outer loop
      vertex 36 40 8
      vertex 55.5 34 8
      vertex 55.5 40 8
    endloop
  endfacet
  facet normal 0 0 -1
    outer loop
      vertex -4 34 0
      vertex 15.5 40 0
      vertex 0 34 0
    endloop
  endfacet
  facet normal 0 0 -1
    outer loop
      vertex 15.5 40 0
      vertex 11.5 34 0
      vertex 0 34 0
    endloop
  endfacet
  facet normal 0 -1 0
    outer loop
      vertex -4 34 0
      vertex 0 34 0
      vertex -4 34 8
    endloop
  endfacet
  facet normal 0 0 -1
    outer loop
      vertex -4 34 0
      vertex -4 40 0
      vertex 15.5 40 0
    endloop
  endfacet
  facet normal -1 0 0
    outer loop
      vertex -4 34 0
      vertex -4 40 8
      vertex -4 40 0
    endloop
  endfacet
  facet normal 0 1 0
    outer loop
      vertex -4 40 0
      vertex -4 40 8
      vertex 15.5 40 0
    endloop
  endfacet
  facet normal 0 -1 0
    outer loop
      vertex 15.5 34 0
      vertex 11.5 34 1.68
      vertex 11.5 34 0
    endloop
  endfacet
  facet normal 0 0 -1
    outer loop
      vertex 15.5 34 0
      vertex 11.5 34 0
      vertex 15.5 40 0
    endloop
  endfacet
  facet normal 1 0 0
    outer loop
      vertex 15.5 34 0
      vertex 15.5 40 0
      vertex 15.5 34 8
    endloop
  endfacet
  facet normal 0 -1 0
    outer loop
      vertex -4 34 8
      vertex 0 34 0
      vertex 0 34 1.68
    endloop
  endfacet
  facet normal 0 -1 0
    outer loop
      vertex 15.5 34 8
      vertex 0 34 1.68
      vertex 11.5 34 1.68
    endloop
  endfacet
  facet normal -1 0 0
    outer loop
      vertex -4 34 0
      vertex -4 34 8
      vertex -4 40 8
    endloop
  endfacet
  facet normal 0 -1 0
    outer loop
      vertex -4 34 8
      vertex 0 34 1.68
      vertex 15.5 34 8
    endloop
  endfacet
  facet normal 0 1 0
    outer loop
      vertex -4 40 8
      vertex 15.5 40 8
      vertex 15.5 40 0
    endloop
  endfacet
  facet normal 0 -1 0
    outer loop
      vertex 15.5 34 0
      vertex 15.5 34 8
      vertex 11.5 34 1.68
    endloop
  endfacet
  facet normal 1 0 0
    outer loop
      vertex 15.5 40 0
      vertex 15.5 40 8
      vertex 15.5 34 8
    endloop
  endfacet
  facet normal 0 0 1
    outer loop
      vertex -4 34 8
      vertex 15.5 34 8
      vertex -4 40 8
    endloop
  endfacet
  facet normal 0 0 1
    outer loop
      vertex -4 40 8
      vertex 15.5 34 8
      vertex 15.5 40 8
    endloop
  endfacet
  facet normal 0 -1 0
    outer loop
      vertex 16 34 0
      vertex 20 34 0
      vertex 16 34 8
    endloop
  endfacet
  facet normal -1 0 0
    outer loop
      vertex 16 34 0
      vertex 16 40 8
      vertex 16 40 0
    endloop
  endfacet
  facet normal 0 -1 0
    outer loop
      vertex 16 34 8
      vertex 20 34 0
      vertex 20 34 2.1
    endloop
  endfacet
  facet normal -1 0 0
    outer loop
      vertex 16 34 0
      vertex 16 34 8
      vertex 16 40 8
    endloop
  endfacet
  facet normal 0 0 -1
    outer loop
      vertex 16 34 0
      vertex 35.5 40 0
      vertex 20 34 0
    endloop
  endfacet
  facet normal 0 -1 0
    outer loop
      vertex 35.5 34 0
      vertex 31.5 34 2.1
      vertex 31.5 34 0
    endloop
  endfacet
  facet normal 0 0 -1
    outer loop
      vertex 35.5 40 0
      vertex 31.5 34 0
      vertex 20 34 0
    endloop
  endfacet
  facet normal 0 0 -1
    outer loop
      vertex 35.5 34 0
      vertex 31.5 34 0
      vertex 35.5 40 0
    endloop
  endfacet
  facet normal 0 0 -1
    outer loop
      vertex 16 34 0
      vertex 16 40 0
      vertex 35.5 40 0
    endloop
  endfacet
  facet normal 0 1 0
    outer loop
      vertex 16 40 0
      vertex 16 40 8
      vertex 35.5 40 0
    endloop
  endfacet
  facet normal 1 0 0
    outer loop
      vertex 35.5 34 0
      vertex 35.5 40 0
      vertex 35.5 34 8
    endloop
  endfacet
  facet normal 0 -1 0
    outer loop
      vertex 35.5 34 0
      vertex 35.5 34 8
      vertex 31.5 34 2.1
    endloop
  endfacet
  facet normal 0 -1 0
    outer loop
      vertex 35.5 34 8
      vertex 20 34 2.1
      vertex 31.5 34 2.1
    endloop
  endfacet
  facet normal 0 1 0
    outer loop
      vertex 16 40 8
      vertex 35.5 40 8
      vertex 35.5 40 0
    endloop
  endfacet
  facet normal 1 0 0
    outer loop
      vertex 35.5 40 0
      vertex 35.5 40 8
      vertex 35.5 34 8
    endloop
  endfacet
  facet normal 0 -1 0
    outer loop
      vertex 16 34 8
      vertex 20 34 2.1
      vertex 35.5 34 8
    endloop
  endfacet
  facet normal 0 0 1
    outer loop
      vertex 16 34 8
      vertex 35.5 34 8
      vertex 16 40 8
    endloop
  endfacet
  facet normal 0 0 1
    outer loop
      vertex 16 40 8
      vertex 35.5 34 8
      vertex 35.5 40 8
    endloop
  endfacet
  facet normal -1 0 0
    outer loop
      vertex 0 6 1.68
      vertex 0 34 0
      vertex 0 6 0
    endloop
  endfacet
  facet normal 0 0 -1
    outer loop
      vertex 0 6 0
      vertex 11.5 34 0
      vertex 11.5 6 0
    endloop
  endfacet
  facet normal 0 0 1
    outer loop
      vertex 0 6 1.68
      vertex 11.5 6 1.68
      vertex 0 34 1.68
    endloop
  endfacet
  facet normal 1 0 0
    outer loop
      vertex 11.5 6 1.68
      vertex 11.5 6 0
      vertex 11.5 34 1.68
    endloop
  endfacet
  facet normal -1 0 0
    outer loop
      vertex 0 6 1.68
      vertex 0 34 1.68
      vertex 0 34 0
    endloop
  endfacet
  facet normal 0 0 -1
    outer loop
      vertex 0 6 0
      vertex 0 34 0
      vertex 11.5 34 0
    endloop
  endfacet
  facet normal 0 0 1
    outer loop
      vertex 11.5 6 1.68
      vertex 11.5 34 1.68
      vertex 0 34 1.68
    endloop
  endfacet
  facet normal 1 0 0
    outer loop
      vertex 11.5 6 0
      vertex 11.5 34 0
      vertex 11.5 34 1.68
    endloop
  endfacet
  facet normal -1 0 0
    outer loop
      vertex 20 6 2.1
      vertex 20 34 0
      vertex 20 6 0
    endloop
  endfacet
  facet normal -1 0 0
    outer loop
      vertex 20 6 2.1
      vertex 20 34 2.1
      vertex 20 34 0
    endloop
  endfacet
  facet normal 0 0 -1
    outer loop
      vertex 20 6 0
      vertex 31.5 34 0
      vertex 31.5 6 0
    endloop
  endfacet
  facet normal 1 0 0
    outer loop
      vertex 31.5 6 2.1
      vertex 31.5 6 0
      vertex 31.5 34 2.1
    endloop
  endfacet
  facet normal 0 0 1
    outer loop
      vertex 20 6 2.1
      vertex 31.5 6 2.1
      vertex 20 34 2.1
    endloop
  endfacet
  facet normal 0 0 -1
    outer loop
      vertex 20 6 0
      vertex 20 34 0
      vertex 31.5 34 0
    endloop
  endfacet
  facet normal 1 0 0
    outer loop
      vertex 31.5 6 0
      vertex 31.5 34 0
      vertex 31.5 34 2.1
    endloop
  endfacet
  facet normal 0 0 1
    outer loop
      vertex 31.5 6 2.1
      vertex 31.5 34 2.1
      vertex 20 34 2.1
    endloop
  endfacet
  facet normal -1 0 0
    outer loop
      vertex 40 6 2.52
      vertex 40 34 0
      vertex 40 6 0
    endloop
  endfacet
  facet normal 0 0 -1
    outer loop
      vertex 40 6 0
      vertex 51.5 34 0
      vertex 51.5 6 0
    endloop
  endfacet
  facet normal 0 0 1
    outer loop
      vertex 40 6 2.52
      vertex 51.5 6 2.52
      vertex 40 34 2.52
    endloop
  endfacet
  facet normal 0 0 -1
    outer loop
      vertex 40 6 0
      vertex 40 34 0
      vertex 51.5 34 0
    endloop
  endfacet
  facet normal -1 0 0
    outer loop
      vertex 40 6 2.52
      vertex 40 34 2.52
      vertex 40 34 0
    endloop
  endfacet
  facet normal 0 0 1
    outer loop
      vertex 51.5 6 2.52
      vertex 51.5 34 2.52
      vertex 40 34 2.52
    endloop
  endfacet
  facet normal 1 0 0
    outer loop
      vertex 51.5 6 2.52
      vertex 51.5 6 0
      vertex 51.5 34 2.52
    endloop
  endfacet
  facet normal 1 0 0
    outer loop
      vertex 51.5 6 0
      vertex 51.5 34 0
      vertex 51.5 34 2.52
    endloop
  endfacet
  facet normal 0 -1 0
    outer loop
      vertex 70 0 0
      vertex 82 0 0
      vertex 82 0 12.2
    endloop
  endfacet
  facet normal 0 -1 0
    outer loop
      vertex 70 0 0
      vertex 82 0 12.2
      vertex 70 0 12.2
    endloop
  endfacet
  facet normal 0 0 -1
    outer loop
      vertex 70 0 0
      vertex 70 4.5 0
      vertex 82 4.5 0
    endloop
  endfacet
  facet normal -1 0 0
    outer loop
      vertex 70 0 0
      vertex 70 4.5 12.2
      vertex 70 4.5 0
    endloop
  endfacet
  facet normal 0 1 0
    outer loop
      vertex 70 4.5 0
      vertex 70 4.5 12.2
      vertex 82 4.5 0
    endloop
  endfacet
  facet normal 0 0 -1
    outer loop
      vertex 70 0 0
      vertex 82 4.5 0
      vertex 82 0 0
    endloop
  endfacet
  facet normal 1 0 0
    outer loop
      vertex 82 0 0
      vertex 82 4.5 0
      vertex 82 0 12.2
    endloop
  endfacet
  facet normal -1 0 0
    outer loop
      vertex 70 0 0
      vertex 70 0 12.2
      vertex 70 4.5 12.2
    endloop
  endfacet
  facet normal 1 0 0
    outer loop
      vertex 82 0 12.2
      vertex 82 4.5 0
      vertex 82 4.5 12.2
    endloop
  endfacet
  facet normal 0 1 0
    outer loop
      vertex 70 4.5 12.2
      vertex 82 4.5 12.2
      vertex 82 4.5 0
    endloop
  endfacet
  facet normal 0 0 1
    outer loop
      vertex 70 4.5 12.2
      vertex 70 0 12.2
      vertex 82 0 12.2
    endloop
  endfacet
  facet normal 0 0 1
    outer loop
      vertex 70 4.5 12.2
      vertex 82 0 12.2
      vertex 82 4.5 12.2
    endloop
  endfacet
  facet normal -3.0952343657048934e-18 0.7071067811865485 -0.7071067811865465
    outer loop
      vertex 74.75 0.2969848480983606 12.49698484809835
      vertex 77.25 -0.2969848480983393 11.903015151901648
      vertex 74.75 -0.2969848480983393 11.903015151901648
    endloop
  endfacet
  facet normal 0 0.7071067811865485 -0.7071067811865465
    outer loop
      vertex 74.75 0.2969848480983606 12.49698484809835
      vertex 77.25 0.2969848480983606 12.49698484809835
      vertex 77.25 -0.2969848480983393 11.903015151901648
    endloop
  endfacet
  facet normal 0 -0.7071067811865475 -0.7071067811865476
    outer loop
      vertex 74.75 -0.2969848480983393 11.903015151901648
      vertex 77.25 -0.2969848480983393 11.903015151901648
      vertex 77.25 -11.610693347083101 23.216723650886408
    endloop
  endfacet
  facet normal -1 0 0
    outer loop
      vertex 74.75 -11.0167236508864 23.81069334708311
      vertex 74.75 0.2969848480983606 12.49698484809835
      vertex 74.75 -0.2969848480983393 11.903015151901648
    endloop
  endfacet
  facet normal 1 0 0
    outer loop
      vertex 77.25 -11.0167236508864 23.81069334708311
      vertex 77.25 -0.2969848480983393 11.903015151901648
      vertex 77.25 0.2969848480983606 12.49698484809835
    endloop
  endfacet
  facet normal 6.493783268844496e-17 0.7071067811865475 0.7071067811865476
    outer loop
      vertex 74.75 -11.0167236508864 23.81069334708311
      vertex 77.25 0.2969848480983606 12.49698484809835
      vertex 74.75 0.2969848480983606 12.49698484809835
    endloop
  endfacet
  facet normal 0 -0.7071067811865475 -0.7071067811865476
    outer loop
      vertex 74.75 -11.610693347083101 23.216723650886408
      vertex 74.75 -0.2969848480983393 11.903015151901648
      vertex 77.25 -11.610693347083101 23.216723650886408
    endloop
  endfacet
  facet normal -1 0 0
    outer loop
      vertex 74.75 -11.610693347083101 23.216723650886408
      vertex 74.75 -11.0167236508864 23.81069334708311
      vertex 74.75 -0.2969848480983393 11.903015151901648
    endloop
  endfacet
  facet normal 1 0 0
    outer loop
      vertex 77.25 -11.610693347083101 23.216723650886408
      vertex 77.25 -0.2969848480983393 11.903015151901648
      vertex 77.25 -11.0167236508864 23.81069334708311
    endloop
  endfacet
  facet normal 0 0.7071067811865475 0.7071067811865476
    outer loop
      vertex 74.75 -11.0167236508864 23.81069334708311
      vertex 77.25 -11.0167236508864 23.81069334708311
      vertex 77.25 0.2969848480983606 12.49698484809835
    endloop
  endfacet
  facet normal -7.877364457066694e-18 -0.7071067811865476 0.7071067811865476
    outer loop
      vertex 74.75 -11.610693347083101 23.216723650886408
      vertex 77.25 -11.0167236508864 23.81069334708311
      vertex 74.75 -11.0167236508864 23.81069334708311
    endloop
  endfacet
  facet normal 0 -0.7071067811865476 0.7071067811865476
    outer loop
      vertex 74.75 -11.610693347083101 23.216723650886408
      vertex 77.25 -11.610693347083101 23.216723650886408
      vertex 77.25 -11.0167236508864 23.81069334708311
    endloop
  endfacet
  facet normal 0 -1 0
    outer loop
      vertex 88 0 0
      vertex 100 0 0
      vertex 100 0 12.2
    endloop
  endfacet
  facet normal 0 -1 0
    outer loop
      vertex 88 0 0
      vertex 100 0 12.2
      vertex 88 0 12.2
    endloop
  endfacet
  facet normal 0 0 -1
    outer loop
      vertex 88 0 0
      vertex 88 4.5 0
      vertex 100 4.5 0
    endloop
  endfacet
  facet normal 0 0 -1
    outer loop
      vertex 88 0 0
      vertex 100 4.5 0
      vertex 100 0 0
    endloop
  endfacet
  facet normal -1 0 0
    outer loop
      vertex 88 0 0
      vertex 88 4.5 12.2
      vertex 88 4.5 0
    endloop
  endfacet
  facet normal 1 0 0
    outer loop
      vertex 100 0 0
      vertex 100 4.5 0
      vertex 100 0 12.2
    endloop
  endfacet
  facet normal 0 1 0
    outer loop
      vertex 88 4.5 0
      vertex 88 4.5 12.2
      vertex 100 4.5 0
    endloop
  endfacet
  facet normal -1 0 0
    outer loop
      vertex 88 0 0
      vertex 88 0 12.2
      vertex 88 4.5 12.2
    endloop
  endfacet
  facet normal 1 0 0
    outer loop
      vertex 100 0 12.2
      vertex 100 4.5 0
      vertex 100 4.5 12.2
    endloop
  endfacet
  facet normal 0 1 0
    outer loop
      vertex 88 4.5 12.2
      vertex 100 4.5 12.2
      vertex 100 4.5 0
    endloop
  endfacet
  facet normal 0 0 1
    outer loop
      vertex 88 4.5 12.2
      vertex 88 0 12.2
      vertex 100 0 12.2
    endloop
  endfacet
  facet normal 0 0 1
    outer loop
      vertex 88 4.5 12.2
      vertex 100 0 12.2
      vertex 100 4.5 12.2
    endloop
  endfacet
  facet normal -1.574748358765015e-17 0.7071067811865471 -0.7071067811865479
    outer loop
      vertex 92.75 0.44547727214753563 12.645477272147524
      vertex 95.25 -0.4454772721475143 11.754522727852475
      vertex 92.75 -0.4454772721475143 11.754522727852475
    endloop
  endfacet
  facet normal 0 0.7071067811865471 -0.7071067811865479
    outer loop
      vertex 92.75 0.44547727214753563 12.645477272147524
      vertex 95.25 0.44547727214753563 12.645477272147524
      vertex 95.25 -0.4454772721475143 11.754522727852475
    endloop
  endfacet
  facet normal 0 -0.7071067811865475 -0.7071067811865476
    outer loop
      vertex 92.75 -0.4454772721475143 11.754522727852475
      vertex 95.25 -0.4454772721475143 11.754522727852475
      vertex 95.25 -11.759185771132275 23.068231226837234
    endloop
  endfacet
  facet normal -1 0 0
    outer loop
      vertex 92.75 -10.868231226837226 23.959185771132283
      vertex 92.75 0.44547727214753563 12.645477272147524
      vertex 92.75 -0.4454772721475143 11.754522727852475
    endloop
  endfacet
  facet normal 6.493783268844496e-17 0.7071067811865475 0.7071067811865476
    outer loop
      vertex 92.75 -10.868231226837226 23.959185771132283
      vertex 95.25 0.44547727214753563 12.645477272147524
      vertex 92.75 0.44547727214753563 12.645477272147524
    endloop
  endfacet
  facet normal 1 0 0
    outer loop
      vertex 95.25 -10.868231226837226 23.959185771132283
      vertex 95.25 -0.4454772721475143 11.754522727852475
      vertex 95.25 0.44547727214753563 12.645477272147524
    endloop
  endfacet
  facet normal 0 -0.7071067811865475 -0.7071067811865476
    outer loop
      vertex 92.75 -11.759185771132275 23.068231226837234
      vertex 92.75 -0.4454772721475143 11.754522727852475
      vertex 95.25 -11.759185771132275 23.068231226837234
    endloop
  endfacet
  facet normal -1 0 0
    outer loop
      vertex 92.75 -11.759185771132275 23.068231226837234
      vertex 92.75 -10.868231226837226 23.959185771132283
      vertex 92.75 -0.4454772721475143 11.754522727852475
    endloop
  endfacet
  facet normal 0 0.7071067811865475 0.7071067811865476
    outer loop
      vertex 92.75 -10.868231226837226 23.959185771132283
      vertex 95.25 -10.868231226837226 23.959185771132283
      vertex 95.25 0.44547727214753563 12.645477272147524
    endloop
  endfacet
  facet normal 1 0 0
    outer loop
      vertex 95.25 -11.759185771132275 23.068231226837234
      vertex 95.25 -0.4454772721475143 11.754522727852475
      vertex 95.25 -10.868231226837226 23.959185771132283
    endloop
  endfacet
  facet normal 0 -0.7071067811865475 0.7071067811865475
    outer loop
      vertex 92.75 -11.759185771132275 23.068231226837234
      vertex 95.25 -11.759185771132275 23.068231226837234
      vertex 95.25 -10.868231226837226 23.959185771132283
    endloop
  endfacet
  facet normal -1.2559396860074356e-17 -0.7071067811865475 0.7071067811865475
    outer loop
      vertex 92.75 -11.759185771132275 23.068231226837234
      vertex 95.25 -10.868231226837226 23.959185771132283
      vertex 92.75 -10.868231226837226 23.959185771132283
    endloop
  endfacet
  facet normal 0 -1 0
    outer loop
      vertex 106 0 0
      vertex 118 0 0
      vertex 118 0 12.2
    endloop
  endfacet
  facet normal 0 -1 0
    outer loop
      vertex 106 0 0
      vertex 118 0 12.2
      vertex 106 0 12.2
    endloop
  endfacet
  facet normal 0 0 -1
    outer loop
      vertex 106 0 0
      vertex 118 4.5 0
      vertex 118 0 0
    endloop
  endfacet
  facet normal 0 0 -1
    outer loop
      vertex 106 0 0
      vertex 106 4.5 0
      vertex 118 4.5 0
    endloop
  endfacet
  facet normal -1 0 0
    outer loop
      vertex 106 0 0
      vertex 106 4.5 12.2
      vertex 106 4.5 0
    endloop
  endfacet
  facet normal 0 1 0
    outer loop
      vertex 106 4.5 0
      vertex 106 4.5 12.2
      vertex 118 4.5 0
    endloop
  endfacet
  facet normal 1 0 0
    outer loop
      vertex 118 0 0
      vertex 118 4.5 0
      vertex 118 0 12.2
    endloop
  endfacet
  facet normal -1 0 0
    outer loop
      vertex 106 0 0
      vertex 106 0 12.2
      vertex 106 4.5 12.2
    endloop
  endfacet
  facet normal 0 1 0
    outer loop
      vertex 106 4.5 12.2
      vertex 118 4.5 12.2
      vertex 118 4.5 0
    endloop
  endfacet
  facet normal 1 0 0
    outer loop
      vertex 118 0 12.2
      vertex 118 4.5 0
      vertex 118 4.5 12.2
    endloop
  endfacet
  facet normal 0 0 1
    outer loop
      vertex 106 4.5 12.2
      vertex 106 0 12.2
      vertex 118 0 12.2
    endloop
  endfacet
  facet normal 0 0 1
    outer loop
      vertex 106 4.5 12.2
      vertex 118 0 12.2
      vertex 118 4.5 12.2
    endloop
  endfacet
  facet normal -6.562143818646117e-18 0.7071067811865476 -0.7071067811865476
    outer loop
      vertex 110.75 0.5939696961967106 12.793969696196699
      vertex 113.25 -0.5939696961966893 11.6060303038033
      vertex 110.75 -0.5939696961966893 11.6060303038033
    endloop
  endfacet
  facet normal 0 0.7071067811865476 -0.7071067811865476
    outer loop
      vertex 110.75 0.5939696961967106 12.793969696196699
      vertex 113.25 0.5939696961967106 12.793969696196699
      vertex 113.25 -0.5939696961966893 11.6060303038033
    endloop
  endfacet
  facet normal 2.730509816697371e-16 -0.7071067811865476 -0.7071067811865476
    outer loop
      vertex 110.75 -11.90767819518145 22.91973880278806
      vertex 110.75 -0.5939696961966893 11.6060303038033
      vertex 113.25 -0.5939696961966893 11.6060303038033
    endloop
  endfacet
  facet normal -1 0 0
    outer loop
      vertex 110.75 -10.71973880278805 24.10767819518146
      vertex 110.75 0.5939696961967106 12.793969696196699
      vertex 110.75 -0.5939696961966893 11.6060303038033
    endloop
  endfacet
  facet normal 1 0 0
    outer loop
      vertex 113.25 -10.71973880278805 24.10767819518146
      vertex 113.25 -0.5939696961966893 11.6060303038033
      vertex 113.25 0.5939696961967106 12.793969696196699
    endloop
  endfacet
  facet normal 0 0.7071067811865476 0.7071067811865476
    outer loop
      vertex 110.75 0.5939696961967106 12.793969696196699
      vertex 113.25 -10.71973880278805 24.10767819518146
      vertex 113.25 0.5939696961967106 12.793969696196699
    endloop
  endfacet
  facet normal -1 0 0
    outer loop
      vertex 110.75 -11.90767819518145 22.91973880278806
      vertex 110.75 -10.71973880278805 24.10767819518146
      vertex 110.75 -0.5939696961966893 11.6060303038033
    endloop
  endfacet
  facet normal 0 -0.7071067811865476 -0.7071067811865476
    outer loop
      vertex 110.75 -11.90767819518145 22.91973880278806
      vertex 113.25 -0.5939696961966893 11.6060303038033
      vertex 113.25 -11.90767819518145 22.91973880278806
    endloop
  endfacet
  facet normal 1 0 0
    outer loop
      vertex 113.25 -11.90767819518145 22.91973880278806
      vertex 113.25 -0.5939696961966893 11.6060303038033
      vertex 113.25 -10.71973880278805 24.10767819518146
    endloop
  endfacet
  facet normal 0 0.7071067811865476 0.7071067811865476
    outer loop
      vertex 110.75 -10.71973880278805 24.10767819518146
      vertex 113.25 -10.71973880278805 24.10767819518146
      vertex 110.75 0.5939696961967106 12.793969696196699
    endloop
  endfacet
  facet normal 0 -0.7071067811865476 0.7071067811865476
    outer loop
      vertex 110.75 -11.90767819518145 22.91973880278806
      vertex 113.25 -11.90767819518145 22.91973880278806
      vertex 110.75 -10.71973880278805 24.10767819518146
    endloop
  endfacet
  facet normal 0 -0.7071067811865476 0.7071067811865476
    outer loop
      vertex 110.75 -10.71973880278805 24.10767819518146
      vertex 113.25 -11.90767819518145 22.91973880278806
      vertex 113.25 -10.71973880278805 24.10767819518146
    endloop
  endfacet
  facet normal 0 0 -1
    outer loop
      vertex 130 0 0
      vertex 130 0.42000000178813934 0
      vertex 138 1.0499999970197678 0
    endloop
  endfacet
  facet normal -1 0 0
    outer loop
      vertex 130 0 0
      vertex 130 0.42000000178813934 3
      vertex 130 0.42000000178813934 0
    endloop
  endfacet
  facet normal 0 0 -1
    outer loop
      vertex 146 0 0
      vertex 130 0 0
      vertex 138 1.0499999970197678 0
    endloop
  endfacet
  facet normal 0 -1 0
    outer loop
      vertex 146 0 0
      vertex 130 0 3
      vertex 130 0 0
    endloop
  endfacet
  facet normal -0.07850694280164304 0.9969135669314263 0
    outer loop
      vertex 130 0.42000000178813934 0
      vertex 138 1.0499999970197678 3
      vertex 138 1.0499999970197678 0
    endloop
  endfacet
  facet normal -1 0 0
    outer loop
      vertex 130 0 0
      vertex 130 0 3
      vertex 130 0.42000000178813934 3
    endloop
  endfacet
  facet normal -0.07850694280164304 0.9969135669314263 0
    outer loop
      vertex 130 0.42000000178813934 0
      vertex 130 0.42000000178813934 3
      vertex 138 1.0499999970197678 3
    endloop
  endfacet
  facet normal 0 0 1
    outer loop
      vertex 138 1.0499999970197678 3
      vertex 130 0.42000000178813934 3
      vertex 130 0 3
    endloop
  endfacet
  facet normal 0 0 1
    outer loop
      vertex 138 1.0499999970197678 3
      vertex 130 0 3
      vertex 146 0 3
    endloop
  endfacet
  facet normal 0 0 -1
    outer loop
      vertex 146 0 0
      vertex 138 1.0499999970197678 0
      vertex 146 0.42000000178813934 0
    endloop
  endfacet
  facet normal 0.07850694280164304 0.9969135669314263 0
    outer loop
      vertex 138 1.0499999970197678 0
      vertex 146 0.42000000178813934 3
      vertex 146 0.42000000178813934 0
    endloop
  endfacet
  facet normal 1 0 0
    outer loop
      vertex 146 0.42000000178813934 0
      vertex 146 0 3
      vertex 146 0 0
    endloop
  endfacet
  facet normal 0 -1 0
    outer loop
      vertex 146 0 0
      vertex 146 0 3
      vertex 130 0 3
    endloop
  endfacet
  facet normal 0.07850694280164304 0.9969135669314263 0
    outer loop
      vertex 138 1.0499999970197678 0
      vertex 138 1.0499999970197678 3
      vertex 146 0.42000000178813934 3
    endloop
  endfacet
  facet normal 1 0 0
    outer loop
      vertex 146 0.42000000178813934 0
      vertex 146 0.42000000178813934 3
      vertex 146 0 3
    endloop
  endfacet
  facet normal 0 0 1
    outer loop
      vertex 146 0.42000000178813934 3
      vertex 138 1.0499999970197678 3
      vertex 146 0 3
    endloop
  endfacet
  facet normal 0 0 -1
    outer loop
      vertex 150 0 0
      vertex 150 0.42000000178813934 0
      vertex 158 1.155000001192093 0
    endloop
  endfacet
  facet normal -1 0 0
    outer loop
      vertex 150 0 0
      vertex 150 0.42000000178813934 3
      vertex 150 0.42000000178813934 0
    endloop
  endfacet
  facet normal -1 0 0
    outer loop
      vertex 150 0 0
      vertex 150 0 3
      vertex 150 0.42000000178813934 3
    endloop
  endfacet
  facet normal -0.09148967844096516 0.9958060246547863 0
    outer loop
      vertex 150 0.42000000178813934 0
      vertex 150 0.42000000178813934 3
      vertex 158 1.155000001192093 3
    endloop
  endfacet
  facet normal 0 0 1
    outer loop
      vertex 158 1.155000001192093 3
      vertex 150 0.42000000178813934 3
      vertex 150 0 3
    endloop
  endfacet
  facet normal 0 0 -1
    outer loop
      vertex 166 0 0
      vertex 150 0 0
      vertex 158 1.155000001192093 0
    endloop
  endfacet
  facet normal 0 -1 0
    outer loop
      vertex 166 0 0
      vertex 150 0 3
      vertex 150 0 0
    endloop
  endfacet
  facet normal -0.09148967844096516 0.9958060246547863 0
    outer loop
      vertex 150 0.42000000178813934 0
      vertex 158 1.155000001192093 3
      vertex 158 1.155000001192093 0
    endloop
  endfacet
  facet normal 0 0 -1
    outer loop
      vertex 166 0 0
      vertex 158 1.155000001192093 0
      vertex 166 0.42000000178813934 0
    endloop
  endfacet
  facet normal 0.09148967844096516 0.9958060246547863 0
    outer loop
      vertex 158 1.155000001192093 0
      vertex 166 0.42000000178813934 3
      vertex 166 0.42000000178813934 0
    endloop
  endfacet
  facet normal 1 0 0
    outer loop
      vertex 166 0.42000000178813934 0
      vertex 166 0 3
      vertex 166 0 0
    endloop
  endfacet
  facet normal 0 0 1
    outer loop
      vertex 158 1.155000001192093 3
      vertex 150 0 3
      vertex 166 0 3
    endloop
  endfacet
  facet normal 0 -1 0
    outer loop
      vertex 166 0 0
      vertex 166 0 3
      vertex 150 0 3
    endloop
  endfacet
  facet normal 0.09148967844096516 0.9958060246547863 0
    outer loop
      vertex 158 1.155000001192093 0
      vertex 158 1.155000001192093 3
      vertex 166 0.42000000178813934 3
    endloop
  endfacet
  facet normal 1 0 0
    outer loop
      vertex 166 0.42000000178813934 0
      vertex 166 0.42000000178813934 3
      vertex 166 0 3
    endloop
  endfacet
  facet normal 0 0 1
    outer loop
      vertex 166 0.42000000178813934 3
      vertex 158 1.155000001192093 3
      vertex 166 0 3
    endloop
  endfacet
  facet normal 0 0 -1
    outer loop
      vertex 170 0 0
      vertex 170 0.42000000178813934 0
      vertex 178 1.2599999979138374 0
    endloop
  endfacet
  facet normal -1 0 0
    outer loop
      vertex 170 0 0
      vertex 170 0.42000000178813934 3
      vertex 170 0.42000000178813934 0
    endloop
  endfacet
  facet normal 0 0 -1
    outer loop
      vertex 186 0 0
      vertex 170 0 0
      vertex 178 1.2599999979138374 0
    endloop
  endfacet
  facet normal 0 -1 0
    outer loop
      vertex 186 0 0
      vertex 170 0 3
      vertex 170 0 0
    endloop
  endfacet
  facet normal -0.10442592952760775 0.9945326667547403 0
    outer loop
      vertex 170 0.42000000178813934 0
      vertex 178 1.2599999979138374 3
      vertex 178 1.2599999979138374 0
    endloop
  endfacet
  facet normal -1 0 0
    outer loop
      vertex 170 0 0
      vertex 170 0 3
      vertex 170 0.42000000178813934 3
    endloop
  endfacet
  facet normal -0.10442592952760775 0.9945326667547403 0
    outer loop
      vertex 170 0.42000000178813934 0
      vertex 170 0.42000000178813934 3
      vertex 178 1.2599999979138374 3
    endloop
  endfacet
  facet normal 0 0 1
    outer loop
      vertex 178 1.2599999979138374 3
      vertex 170 0.42000000178813934 3
      vertex 170 0 3
    endloop
  endfacet
  facet normal 0 0 1
    outer loop
      vertex 178 1.2599999979138374 3
      vertex 170 0 3
      vertex 186 0 3
    endloop
  endfacet
  facet normal 0 0 -1
    outer loop
      vertex 186 0 0
      vertex 178 1.2599999979138374 0
      vertex 186 0.42000000178813934 0
    endloop
  endfacet
  facet normal 1 0 0
    outer loop
      vertex 186 0.42000000178813934 0
      vertex 186 0 3
      vertex 186 0 0
    endloop
  endfacet
  facet normal 0.10442592952760775 0.9945326667547403 0
    outer loop
      vertex 178 1.2599999979138374 0
      vertex 186 0.42000000178813934 3
      vertex 186 0.42000000178813934 0
    endloop
  endfacet
  facet normal 0 -1 0
    outer loop
      vertex 186 0 0
      vertex 186 0 3
      vertex 170 0 3
    endloop
  endfacet
  facet normal 0.10442592952760775 0.9945326667547403 0
    outer loop
      vertex 178 1.2599999979138374 0
      vertex 178 1.2599999979138374 3
      vertex 186 0.42000000178813934 3
    endloop
  endfacet
  facet normal 1 0 0
    outer loop
      vertex 186 0.42000000178813934 0
      vertex 186 0.42000000178813934 3
      vertex 186 0 3
    endloop
  endfacet
  facet normal 0 0 1
    outer loop
      vertex 186 0.42000000178813934 3
      vertex 178 1.2599999979138374 3
      vertex 186 0 3
    endloop
  endfacet
  facet normal 0 0 -1
    outer loop
      vertex 190 0 0
      vertex 190 0.42000000178813934 0
      vertex 198 1.3650000020861626 0
    endloop
  endfacet
  facet normal -1 0 0
    outer loop
      vertex 190 0 0
      vertex 190 0.42000000178813934 3
      vertex 190 0.42000000178813934 0
    endloop
  endfacet
  facet normal -1 0 0
    outer loop
      vertex 190 0 0
      vertex 190 0 3
      vertex 190 0.42000000178813934 3
    endloop
  endfacet
  facet normal -0.11730939607063047 0.9930954161577548 0
    outer loop
      vertex 190 0.42000000178813934 0
      vertex 190 0.42000000178813934 3
      vertex 198 1.3650000020861626 3
    endloop
  endfacet
  facet normal 0 0 1
    outer loop
      vertex 198 1.3650000020861626 3
      vertex 190 0.42000000178813934 3
      vertex 190 0 3
    endloop
  endfacet
  facet normal 0 0 -1
    outer loop
      vertex 206 0 0
      vertex 190 0 0
      vertex 198 1.3650000020861626 0
    endloop
  endfacet
  facet normal 0 -1 0
    outer loop
      vertex 206 0 0
      vertex 190 0 3
      vertex 190 0 0
    endloop
  endfacet
  facet normal -0.11730939607063047 0.9930954161577548 0
    outer loop
      vertex 190 0.42000000178813934 0
      vertex 198 1.3650000020861626 3
      vertex 198 1.3650000020861626 0
    endloop
  endfacet
  facet normal 0 0 -1
    outer loop
      vertex 206 0 0
      vertex 198 1.3650000020861626 0
      vertex 206 0.42000000178813934 0
    endloop
  endfacet
  facet normal 1 0 0
    outer loop
      vertex 206 0.42000000178813934 0
      vertex 206 0 3
      vertex 206 0 0
    endloop
  endfacet
  facet normal 0.11730939607063047 0.9930954161577548 0
    outer loop
      vertex 198 1.3650000020861626 0
      vertex 206 0.42000000178813934 3
      vertex 206 0.42000000178813934 0
    endloop
  endfacet
  facet normal 0 0 1
    outer loop
      vertex 198 1.3650000020861626 3
      vertex 190 0 3
      vertex 206 0 3
    endloop
  endfacet
  facet normal 0 -1 0
    outer loop
      vertex 206 0 0
      vertex 206 0 3
      vertex 190 0 3
    endloop
  endfacet
  facet normal 0.11730939607063047 0.9930954161577548 0
    outer loop
      vertex 198 1.3650000020861626 0
      vertex 198 1.3650000020861626 3
      vertex 206 0.42000000178813934 3
    endloop
  endfacet
  facet normal 1 0 0
    outer loop
      vertex 206 0.42000000178813934 0
      vertex 206 0.42000000178813934 3
      vertex 206 0 3
    endloop
  endfacet
  facet normal 0 0 1
    outer loop
      vertex 206 0.42000000178813934 3
      vertex 198 1.3650000020861626 3
      vertex 206 0 3
    endloop
  endfacet
endsolid OpenSCAD_Model
