<svg xmlns="http://www.w3.org/2000/svg" width="594mm" height="420mm" viewBox="0 0 594 420">
<title>Toccata D05 터치스크린: 사용 25° / 뒤꿈치 22° / 접은 상태</title>
<defs><style>
.bg{fill:#ffffff}
.frame{fill:none;stroke:#1d2433;stroke-width:.5}
.t{font-family:'Apple SD Gothic Neo','Noto Sans KR','Malgun Gothic','IBM Plex Sans KR',sans-serif;fill:#1d2433}
.h{paint-order:stroke;stroke:#ffffff;stroke-width:.75;stroke-linejoin:round}
.tb{font-weight:700}
.td{fill:#1f5fbf}
.tm{fill:#5b6578}
.tr{fill:#c2410c}
.S-wood{fill:url(#hw);stroke:#1d2433;stroke-width:.4;stroke-linejoin:round}
.S-print{fill:url(#hp);stroke:#1d2433;stroke-width:.4;stroke-linejoin:round}
.S-metal{fill:url(#hm);stroke:#1d2433;stroke-width:.32;stroke-linejoin:round}
.S-rubber{fill:#50555e;stroke:#1d2433;stroke-width:.25}
.S-elec{fill:url(#he);stroke:#1d2433;stroke-width:.3}
.S-screen{fill:#3a4150;stroke:#1d2433;stroke-width:.3}
.S-cable{fill:#e3b23c;stroke:#6b5a1e;stroke-width:.18}
.S-ctx{fill:#eceef1;stroke:#a3aab5;stroke-width:.18}
.P-wood{fill:#f2e6d2;stroke:#39404d;stroke-width:.22;stroke-linejoin:round}
.P-print{fill:#e5ebf3;stroke:#39404d;stroke-width:.22;stroke-linejoin:round}
.P-metal{fill:#c9ced6;stroke:#39404d;stroke-width:.2}
.P-rubber{fill:#7d828b;stroke:#39404d;stroke-width:.18}
.P-elec{fill:#d3ead8;stroke:#39404d;stroke-width:.2}
.P-screen{fill:#596070;stroke:#39404d;stroke-width:.2}
.P-cable{fill:#f0cf7a;fill-opacity:.55;stroke:#8a7430;stroke-width:.14;stroke-opacity:.7}
.P-ctx{fill:#f2f3f5;stroke:#b3b9c3;stroke-width:.18}
.air{fill:#e8f1fb;stroke:none}
.hid{fill:none;stroke:#39404d;stroke-width:.24;stroke-dasharray:1.6 .9}
.hidc{fill:none;stroke:#c2410c;stroke-width:.28;stroke-dasharray:2.2 1.1}
.ph{fill:none;stroke:#5b6578;stroke-width:.3;stroke-dasharray:4 1 1 1}
.cl{fill:none;stroke:#6b7690;stroke-width:.2;stroke-dasharray:6 1.2 1 1.2}
.thin{fill:none;stroke:#39404d;stroke-width:.2}
.vis{fill:none;stroke:#1d2433;stroke-width:.3}
.sound{fill:none;stroke:#c2410c;stroke-width:.4;stroke-dasharray:3 1.2}
.ax{fill:none;stroke:#7a3fb5;stroke-width:.3;stroke-dasharray:5 1.2 1 1.2}
.keep{fill:none;stroke:#b42318;stroke-width:.3;stroke-dasharray:1.2 1}
.dm{fill:none;stroke:#1f5fbf;stroke-width:.18}
.ex{fill:none;stroke:#8a96ab;stroke-width:.15}
.ah{fill:#1f5fbf;stroke:none}
.ld{fill:none;stroke:#3d4555;stroke-width:.18}
.dot{fill:#3d4555}
.bal{fill:#ffffff;stroke:#1d2433;stroke-width:.25}
.secl{fill:none;stroke:#1d2433;stroke-width:.55}
.seca{fill:#1d2433}
.grid{fill:none;stroke:#1d2433;stroke-width:.25}
.grid2{fill:none;stroke:#8a96ab;stroke-width:.15}
.box{fill:#fbfbfc;stroke:#c3c9d3;stroke-width:.2}
.sheetply{fill:#fbf6ee;stroke:#1d2433;stroke-width:.35}
.zone{fill:#f4f6f9;stroke:#8a96ab;stroke-width:.2}
</style>
<pattern id="hw" patternUnits="userSpaceOnUse" width="1.6" height="1.6" patternTransform="rotate(45)"><rect width="1.6" height="1.6" fill="#ecdcc2"/><line x1="0" y1="0" x2="0" y2="1.6" stroke="#a8875a" stroke-width=".22"/></pattern>
<pattern id="hp" patternUnits="userSpaceOnUse" width="1.1" height="1.1" patternTransform="rotate(-45)"><rect width="1.1" height="1.1" fill="#dfe6ef"/><line x1="0" y1="0" x2="0" y2="1.1" stroke="#7f93b0" stroke-width=".16"/></pattern>
<pattern id="hm" patternUnits="userSpaceOnUse" width=".9" height=".9" patternTransform="rotate(45)"><rect width=".9" height=".9" fill="#c3c8d1"/><path d="M0 0V.9M0 0H.9" stroke="#5d6778" stroke-width=".12"/></pattern>
<pattern id="he" patternUnits="userSpaceOnUse" width="1.4" height="1.4"><rect width="1.4" height="1.4" fill="#cfe6d3"/><line x1="0" y1=".7" x2="1.4" y2=".7" stroke="#5f9a6c" stroke-width=".14"/></pattern>
<clipPath id="cv1"><rect x="34.000" y="34.000" width="145.000" height="142.000"/></clipPath><clipPath id="cv2"><rect x="346.000" y="34.000" width="145.000" height="142.000"/></clipPath><clipPath id="cv3"><rect x="34.000" y="226.000" width="145.000" height="70.000"/></clipPath></defs>
<rect class="bg" x="0" y="0" width="594" height="420"/>
<rect class="frame" x="10" y="10" width="574" height="400"/>
<g id="geo">
<path class="S-ctx" fill-rule="evenodd" d="M46.00 158.15 L34.00 158.15 L34.00 170.15 L43.00 170.15 L43.00 176.00 L46.00 176.00Z" clip-path="url(#cv1)"/>
<path class="S-wood" fill-rule="evenodd" d="M176.50 169.65 L165.00 169.65 L165.00 176.00 L176.50 176.00Z" clip-path="url(#cv1)"/>
<path class="S-print" fill-rule="evenodd" d="M176.50 158.15 L135.20 158.15 L134.70 158.65 L134.70 161.65 L130.49 161.65 L124.43 158.15 L48.99 158.15 L48.00 159.14 L48.00 169.65 L176.50 169.65Z" clip-path="url(#cv1)"/>
<path class="S-print" fill-rule="evenodd" d="M66.94 143.04 L67.07 142.76 L64.35 141.49 L107.25 49.50 L109.97 50.77 L110.81 48.96 L95.41 41.77 L94.56 43.59 L104.98 48.45 L62.09 140.44 L51.67 135.58 L50.61 137.84 L64.03 144.10Z" clip-path="url(#cv1)"/>
<path class="S-print" fill-rule="evenodd" d="M132.22 161.60 L132.56 161.52 L132.89 161.40 L133.20 161.25 L133.49 161.06 L133.76 160.83 L134.00 160.58 L134.21 160.30 L134.38 160.00 L134.52 159.68 L134.62 159.34 L134.68 159.00 L134.70 158.65 L134.68 158.30 L134.62 157.96 L134.52 157.62 L134.38 157.30 L134.21 157.00 L134.00 156.72 L133.76 156.47 L82.00 113.38 L81.70 113.19 L81.39 113.03 L81.06 112.91 L80.73 112.83 L80.38 112.79 L80.03 112.79 L79.68 112.83 L79.34 112.91 L79.02 113.03 L78.70 113.19 L78.41 113.38 L78.15 113.60 L77.91 113.85 L77.70 114.13 L77.52 114.44 L77.39 114.76 L77.29 115.09 L77.22 115.43 L77.20 115.78 L77.22 116.13 L77.29 116.48 L77.39 116.81 L77.52 117.13 L77.70 117.43 L77.91 117.71 L78.15 117.97 L129.91 161.06 L130.20 161.25 L130.51 161.40 L130.84 161.52 L131.18 161.60 L131.53 161.64 L131.87 161.64Z M79.69 117.35 L79.38 117.21 L79.10 117.01 L78.87 116.75 L78.70 116.45 L78.59 116.13 L78.55 115.78 L78.59 115.44 L78.70 115.11 L78.87 114.81 L79.10 114.56 L79.38 114.35 L79.69 114.21 L80.03 114.14 L81.70 113.99 L81.85 115.78 L81.82 116.13 L81.71 116.45 L81.54 116.75 L81.31 117.01 L81.03 117.21 L80.71 117.35 L80.38 117.42 L80.03 117.42Z" clip-path="url(#cv1)"/>
<path class="S-metal" fill-rule="evenodd" d="M80.68 117.21 L80.99 117.06 L81.26 116.84 L81.48 116.57 L81.63 116.25 L81.70 115.91 L81.69 115.57 L81.60 115.23 L81.43 114.92 L81.20 114.66 L80.92 114.46 L80.59 114.33 L80.25 114.28 L79.90 114.31 L79.57 114.42 L79.27 114.61 L79.03 114.85 L78.84 115.15 L78.74 115.48 L78.70 115.83 L78.76 116.17 L78.88 116.50 L79.08 116.78 L79.34 117.01 L79.65 117.18 L79.99 117.27 L80.33 117.28Z" clip-path="url(#cv1)"/>
<path class="S-screen" fill-rule="evenodd" d="M73.43 110.20 L75.33 111.08 L91.73 75.92 L89.83 75.03 L102.51 47.84 L95.26 44.46 L52.57 136.00 L59.82 139.38Z" clip-path="url(#cv1)"/>
<path class="S-cable" fill-rule="evenodd" d="M110.35 169.92 L98.65 169.92 L98.65 170.22 L110.35 170.22Z" clip-path="url(#cv1)"/>
<path class="S-cable" fill-rule="evenodd" d="M150.75 171.29 L150.95 171.01 L150.94 170.67 L150.74 170.40 L150.41 170.30 L150.09 170.41 L149.89 170.69 L149.90 171.03 L150.10 171.30 L150.43 171.40Z" clip-path="url(#cv1)"/>
<path class="S-cable" fill-rule="evenodd" d="M149.45 171.29 L149.65 171.01 L149.64 170.67 L149.44 170.40 L149.11 170.30 L148.79 170.41 L148.59 170.69 L148.60 171.03 L148.80 171.30 L149.13 171.40Z" clip-path="url(#cv1)"/>
<path class="S-ctx" fill-rule="evenodd" d="M358.00 158.15 L346.00 158.15 L346.00 170.15 L355.00 170.15 L355.00 176.00 L358.00 176.00Z" clip-path="url(#cv2)"/>
<path class="S-wood" fill-rule="evenodd" d="M488.50 169.65 L477.00 169.65 L477.00 176.00 L488.50 176.00Z" clip-path="url(#cv2)"/>
<path class="S-print" fill-rule="evenodd" d="M488.50 158.15 L447.20 158.15 L446.70 158.65 L446.70 161.65 L442.49 161.65 L436.43 158.15 L360.99 158.15 L360.00 159.14 L360.00 169.65 L488.50 169.65Z" clip-path="url(#cv2)"/>
<path class="S-print" fill-rule="evenodd" d="M378.59 142.72 L378.70 142.43 L375.92 141.31 L413.94 47.20 L416.73 48.32 L417.47 46.47 L401.71 40.10 L400.96 41.95 L411.63 46.26 L373.60 140.37 L362.94 136.06 L362.00 138.38 L375.74 143.93Z" clip-path="url(#cv2)"/>
<path class="S-screen" fill-rule="evenodd" d="M383.35 109.58 L385.29 110.36 L399.83 74.39 L397.88 73.60 L409.12 45.79 L401.70 42.79 L363.87 136.44 L371.29 139.43Z" clip-path="url(#cv2)"/>
<path class="S-ctx" fill-rule="evenodd" d="M46.00 278.15 L34.00 278.15 L34.00 290.15 L43.00 290.15 L43.00 296.00 L46.00 296.00Z" clip-path="url(#cv3)"/>
<path class="S-wood" fill-rule="evenodd" d="M176.50 289.65 L165.00 289.65 L165.00 296.00 L176.50 296.00Z" clip-path="url(#cv3)"/>
<path class="S-print" fill-rule="evenodd" d="M176.50 278.15 L135.20 278.15 L134.70 278.65 L134.70 281.65 L130.49 281.65 L124.43 278.15 L48.99 278.15 L48.00 279.14 L48.00 289.65 L176.50 289.65Z" clip-path="url(#cv3)"/>
<path class="S-print" fill-rule="evenodd" d="M69.55 269.65 L171.05 269.65 L171.05 272.65 L173.05 272.65 L173.05 255.65 L171.05 255.65 L171.05 267.15 L69.55 267.15 L69.55 255.65 L67.05 255.65 L67.05 270.46 L69.24 272.65 L69.55 272.65Z" clip-path="url(#cv3)"/>
<path class="S-print" fill-rule="evenodd" d="M167.07 276.10 L167.41 276.02 L167.74 275.90 L168.05 275.75 L168.34 275.56 L168.61 275.33 L168.85 275.08 L169.06 274.80 L169.23 274.50 L169.37 274.18 L169.47 273.84 L169.53 273.50 L169.55 273.15 L169.53 272.80 L169.47 272.46 L169.37 272.12 L169.23 271.80 L169.06 271.50 L168.85 271.22 L168.61 270.97 L168.34 270.74 L168.05 270.55 L167.74 270.40 L167.41 270.28 L167.07 270.20 L166.72 270.16 L99.38 270.16 L99.03 270.20 L98.69 270.28 L98.36 270.40 L98.05 270.55 L97.76 270.74 L97.49 270.97 L97.25 271.22 L97.04 271.50 L96.87 271.80 L96.73 272.12 L96.63 272.46 L96.57 272.80 L96.55 273.15 L96.57 273.50 L96.63 273.84 L96.73 274.18 L96.87 274.50 L97.04 274.80 L97.25 275.08 L97.49 275.33 L97.76 275.56 L98.05 275.75 L98.36 275.90 L98.69 276.02 L99.03 276.10 L99.38 276.14 L166.72 276.14Z M99.04 274.72 L98.72 274.58 L98.45 274.38 L98.22 274.12 L98.04 273.82 L97.94 273.49 L97.90 273.15 L97.94 272.81 L98.04 272.48 L98.22 272.18 L98.45 271.92 L98.72 271.72 L99.04 271.58 L99.38 271.51 L99.72 271.51 L100.06 271.58 L100.38 271.72 L100.65 271.92 L100.88 272.18 L101.06 272.48 L101.16 272.81 L101.20 273.15 L101.16 273.49 L101.06 273.82 L100.88 274.12 L100.65 274.38 L100.38 274.58 L100.06 274.72 L99.72 274.79 L99.38 274.79Z" clip-path="url(#cv3)"/>
<path class="S-print" fill-rule="evenodd" d="M174.05 252.65 L66.05 252.65 L66.05 255.65 L174.05 255.65Z" clip-path="url(#cv3)"/>
<path class="S-screen" fill-rule="evenodd" d="M140.55 264.65 L170.55 264.65 L170.55 256.65 L69.55 256.65 L69.55 264.65 L101.75 264.65 L101.75 266.75 L140.55 266.75Z" clip-path="url(#cv3)"/>
</g>
<g id="over">
<path class="hid" d="M51.00 161.15 L51.55 161.15 L51.55 169.65 L69.55 169.65 L69.55 161.15 L87.00 161.15 L87.00 169.65 L89.00 169.65 L89.00 161.15 L123.00 161.15 L123.00 169.65 L125.00 169.65 L125.00 161.15 L173.50 161.15 L173.50 169.65 L176.50 169.65 L176.50 158.15 L158.05 158.15 L158.05 150.65 L156.05 150.65 L156.05 158.15 L155.55 158.15 L155.55 152.65 L139.55 152.65 L139.55 158.15 L105.55 158.15 L105.55 152.65 L89.55 152.65 L89.55 158.15 L58.55 158.15 L58.55 154.65 L51.55 154.65 L51.55 158.15 L48.99 158.15 L48.00 159.14 L48.00 169.65 L51.00 169.65Z" clip-path="url(#cv1)"/>
<path class="hidc" d="M60.80 153.84 L61.07 153.82 L61.43 153.76 L61.78 153.67 L62.12 153.54 L62.46 153.40 L62.77 153.21 L63.08 153.00 L63.36 152.77 L63.62 152.51 L63.86 152.23 L64.08 151.93 L64.25 151.62 L64.42 151.29 L64.54 150.95 L64.64 150.60 L64.71 150.23 L64.74 149.87 L64.75 149.50 L64.72 149.13 L64.66 148.77 L64.59 148.52 L63.33 143.78 L64.03 144.10 L66.94 143.04 L67.07 142.76 L64.35 141.49 L72.81 123.37 L75.52 124.63 L81.02 112.85 L79.57 108.87 L93.94 78.05 L96.66 79.32 L102.15 67.54 L100.70 63.55 L107.25 49.50 L109.97 50.77 L110.81 48.96 L95.41 41.77 L94.56 43.59 L104.98 48.45 L62.09 140.44 L51.67 135.58 L50.61 137.84 L58.77 141.65 L53.29 154.28Z M58.97 150.13 L58.91 149.79 L58.91 149.45 L58.99 149.11 L59.14 148.80 L59.34 148.52 L59.60 148.30 L59.91 148.13 L60.24 148.03 L60.58 148.00 L60.92 148.04 L61.25 148.15 L61.54 148.33 L61.80 148.57 L61.99 148.85 L62.13 149.17 L62.19 149.51 L62.19 149.85 L62.11 150.19 L61.96 150.50 L61.76 150.78 L61.50 151.00 L61.19 151.17 L59.56 151.76Z" clip-path="url(#cv1)"/>
<path class="hidc" d="M60.90 151.11 L61.22 150.99 L61.51 150.80 L61.75 150.55 L61.93 150.24 L62.03 149.91 L62.05 149.56 L61.99 149.22 L61.85 148.90 L61.64 148.62 L61.37 148.40 L61.06 148.24 L60.72 148.16 L60.38 148.16 L60.04 148.24 L59.73 148.40 L59.46 148.62 L59.25 148.90 L59.11 149.22 L59.05 149.56 L59.07 149.91 L59.17 150.24 L59.35 150.55 L59.59 150.80 L59.88 150.99 L60.20 151.11 L60.55 151.15Z" clip-path="url(#cv1)"/>
<path class="hidc" d="M102.51 47.84 L95.26 44.46 L52.57 136.00 L59.82 139.38Z" clip-path="url(#cv1)"/>
<path class="keep" d="M49.000 31.000 L49.000 158.150 L34.000 158.150" clip-path="url(#cv1)"/>
<path class="cl" d="M57.350 149.650 L63.750 149.650"/>
<path class="cl" d="M60.550 146.450 L60.550 152.850"/>
<path class="ex" d="M60.550 149.650 L60.550 79.650" clip-path="url(#cv1)"/>
<path class="hid" d="M363.00 161.15 L363.55 161.15 L363.55 169.65 L381.55 169.65 L381.55 161.15 L399.00 161.15 L399.00 169.65 L401.00 169.65 L401.00 161.15 L435.00 161.15 L435.00 169.65 L437.00 169.65 L437.00 161.15 L485.50 161.15 L485.50 169.65 L488.50 169.65 L488.50 158.15 L470.05 158.15 L470.05 150.65 L468.05 150.65 L468.05 158.15 L467.55 158.15 L467.55 152.65 L451.55 152.65 L451.55 158.15 L417.55 158.15 L417.55 152.65 L401.55 152.65 L401.55 158.15 L370.55 158.15 L370.55 154.65 L363.55 154.65 L363.55 158.15 L360.99 158.15 L360.00 159.14 L360.00 169.65 L363.00 169.65Z" clip-path="url(#cv2)"/>
<path class="hidc" d="M373.02 153.82 L373.28 153.79 L373.64 153.70 L373.99 153.60 L374.33 153.45 L374.65 153.29 L374.96 153.09 L375.25 152.87 L375.52 152.62 L375.76 152.35 L375.99 152.05 L376.19 151.75 L376.35 151.42 L376.50 151.08 L376.61 150.74 L376.69 150.38 L376.74 150.02 L376.74 149.65 L376.73 149.28 L376.69 148.92 L376.60 148.56 L376.53 148.31 L375.02 143.64 L375.74 143.93 L378.59 142.72 L378.70 142.43 L375.92 141.31 L383.41 122.76 L386.20 123.89 L391.07 111.83 L389.41 107.93 L402.14 76.40 L404.93 77.53 L409.80 65.47 L408.14 61.57 L413.94 47.20 L416.73 48.32 L417.47 46.47 L401.71 40.10 L400.96 41.95 L411.63 46.26 L373.60 140.37 L362.94 136.06 L362.00 138.38 L370.35 141.75 L365.55 154.65Z M371.00 150.21 L370.92 149.88 L370.90 149.53 L370.96 149.20 L371.09 148.88 L371.29 148.59 L371.53 148.35 L371.83 148.17 L372.15 148.05 L372.49 148.00 L372.84 148.03 L373.17 148.12 L373.47 148.28 L373.74 148.50 L373.95 148.78 L374.10 149.09 L374.18 149.42 L374.20 149.77 L374.14 150.10 L374.01 150.42 L373.81 150.71 L373.57 150.95 L373.27 151.13 L371.68 151.81Z" clip-path="url(#cv2)"/>
<path class="hidc" d="M372.90 151.11 L373.22 150.99 L373.51 150.80 L373.75 150.55 L373.93 150.24 L374.03 149.91 L374.05 149.56 L373.99 149.22 L373.85 148.90 L373.64 148.62 L373.37 148.40 L373.06 148.24 L372.72 148.16 L372.38 148.16 L372.04 148.24 L371.73 148.40 L371.46 148.62 L371.25 148.90 L371.11 149.22 L371.05 149.56 L371.07 149.91 L371.17 150.24 L371.35 150.55 L371.59 150.80 L371.88 150.99 L372.20 151.11 L372.55 151.15Z" clip-path="url(#cv2)"/>
<path class="hidc" d="M409.12 45.79 L401.70 42.79 L363.87 136.44 L371.29 139.43Z" clip-path="url(#cv2)"/>
<path class="keep" d="M361.000 31.000 L361.000 158.150 L346.000 158.150" clip-path="url(#cv2)"/>
<path class="cl" d="M369.350 149.650 L375.750 149.650"/>
<path class="cl" d="M372.550 146.450 L372.550 152.850"/>
<path class="ex" d="M372.550 149.650 L372.550 79.650" clip-path="url(#cv2)"/>
<path class="hid" d="M51.00 281.15 L51.55 281.15 L51.55 289.65 L69.55 289.65 L69.55 281.15 L87.00 281.15 L87.00 289.65 L89.00 289.65 L89.00 281.15 L123.00 281.15 L123.00 289.65 L125.00 289.65 L125.00 281.15 L173.50 281.15 L173.50 289.65 L176.50 289.65 L176.50 278.15 L158.05 278.15 L158.05 270.65 L156.05 270.65 L156.05 278.15 L155.55 278.15 L155.55 272.65 L139.55 272.65 L139.55 278.15 L105.55 278.15 L105.55 272.65 L89.55 272.65 L89.55 278.15 L58.55 278.15 L58.55 274.65 L51.55 274.65 L51.55 278.15 L48.99 278.15 L48.00 279.14 L48.00 289.65 L51.00 289.65Z" clip-path="url(#cv3)"/>
<path class="hidc" d="M61.06 273.82 L61.42 273.76 L61.78 273.67 L62.12 273.54 L62.46 273.39 L62.78 273.21 L63.08 273.00 L63.28 272.84 L67.05 269.69 L67.05 270.46 L69.24 272.65 L69.55 272.65 L69.55 269.65 L89.55 269.65 L89.55 272.65 L102.55 272.65 L105.55 269.65 L139.55 269.65 L139.55 272.65 L152.55 272.65 L155.55 269.65 L171.05 269.65 L171.05 272.65 L173.05 272.65 L173.05 255.65 L171.05 255.65 L171.05 267.15 L69.55 267.15 L69.55 255.65 L67.05 255.65 L67.05 264.65 L53.29 265.03 L56.86 271.65 L56.99 271.88 L57.20 272.18 L57.43 272.46 L57.69 272.72 L57.96 272.96 L58.26 273.17 L58.58 273.36 L58.91 273.52 L59.25 273.64 L59.61 273.74 L59.97 273.81 L60.33 273.84 L60.70 273.85Z M60.04 271.22 L59.72 271.08 L59.45 270.88 L58.22 269.65 L59.45 268.42 L59.72 268.22 L60.04 268.08 L60.38 268.01 L60.72 268.01 L61.06 268.08 L61.38 268.22 L61.65 268.42 L61.88 268.68 L62.06 268.98 L62.16 269.31 L62.20 269.65 L62.16 269.99 L62.06 270.32 L61.88 270.62 L61.65 270.88 L61.38 271.08 L61.06 271.22 L60.72 271.29 L60.38 271.29Z" clip-path="url(#cv3)"/>
<path class="hidc" d="M174.05 252.65 L66.05 252.65 L66.05 255.65 L174.05 255.65Z" clip-path="url(#cv3)"/>
<path class="hidc" d="M60.90 271.11 L61.22 270.99 L61.51 270.80 L61.75 270.55 L61.93 270.24 L62.03 269.91 L62.05 269.56 L61.99 269.22 L61.85 268.90 L61.64 268.62 L61.37 268.40 L61.06 268.24 L60.72 268.16 L60.38 268.16 L60.04 268.24 L59.73 268.40 L59.46 268.62 L59.25 268.90 L59.11 269.22 L59.05 269.56 L59.07 269.91 L59.17 270.24 L59.35 270.55 L59.59 270.80 L59.88 270.99 L60.20 271.11 L60.55 271.15Z" clip-path="url(#cv3)"/>
<path class="hidc" d="M170.55 256.65 L69.55 256.65 L69.55 264.65 L170.55 264.65Z" clip-path="url(#cv3)"/>
<path class="keep" d="M49.000 151.000 L49.000 278.150 L34.000 278.150" clip-path="url(#cv3)"/>
<path class="cl" d="M57.350 269.650 L63.750 269.650"/>
<path class="cl" d="M60.550 266.450 L60.550 272.850"/>
<rect class="grid" x="346.000" y="306.500" width="172.000" height="32.000"/>
<path class="grid2" d="M412.000 306.500 L412.000 310.500"/>
<path class="grid2" d="M462.000 306.500 L462.000 310.500"/>
<path class="grid2" d="M506.000 306.500 L506.000 310.500"/>
<path class="grid" d="M346.000 310.500 L518.000 310.500"/>
<path class="grid2" d="M412.000 310.500 L412.000 314.500"/>
<path class="grid2" d="M462.000 310.500 L462.000 314.500"/>
<path class="grid2" d="M506.000 310.500 L506.000 314.500"/>
<path class="grid2" d="M346.000 314.500 L518.000 314.500"/>
<path class="grid2" d="M412.000 314.500 L412.000 318.500"/>
<path class="grid2" d="M462.000 314.500 L462.000 318.500"/>
<path class="grid2" d="M506.000 314.500 L506.000 318.500"/>
<path class="grid2" d="M346.000 318.500 L518.000 318.500"/>
<path class="grid2" d="M412.000 318.500 L412.000 322.500"/>
<path class="grid2" d="M462.000 318.500 L462.000 322.500"/>
<path class="grid2" d="M506.000 318.500 L506.000 322.500"/>
<path class="grid2" d="M346.000 322.500 L518.000 322.500"/>
<path class="grid2" d="M412.000 322.500 L412.000 326.500"/>
<path class="grid2" d="M462.000 322.500 L462.000 326.500"/>
<path class="grid2" d="M506.000 322.500 L506.000 326.500"/>
<path class="grid2" d="M346.000 326.500 L518.000 326.500"/>
<path class="grid2" d="M412.000 326.500 L412.000 330.500"/>
<path class="grid2" d="M462.000 326.500 L462.000 330.500"/>
<path class="grid2" d="M506.000 326.500 L506.000 330.500"/>
<path class="grid2" d="M346.000 330.500 L518.000 330.500"/>
<path class="grid2" d="M412.000 330.500 L412.000 334.500"/>
<path class="grid2" d="M462.000 330.500 L462.000 334.500"/>
<path class="grid2" d="M506.000 330.500 L506.000 334.500"/>
<path class="grid2" d="M346.000 334.500 L518.000 334.500"/>
<path class="grid2" d="M412.000 334.500 L412.000 338.500"/>
<path class="grid2" d="M462.000 334.500 L462.000 338.500"/>
<path class="grid2" d="M506.000 334.500 L506.000 338.500"/>
<rect class="S-wood" x="16.000" y="332.500" width="8.000" height="3.600"/>
<rect class="S-print" x="16.000" y="337.500" width="8.000" height="3.600"/>
<rect class="S-metal" x="16.000" y="342.500" width="8.000" height="3.600"/>
<rect class="S-screen" x="16.000" y="347.500" width="8.000" height="3.600"/>
<rect class="S-cable" x="16.000" y="352.500" width="8.000" height="3.600"/>
<rect class="S-ctx" x="100.000" y="332.500" width="8.000" height="3.600"/>
<path class="hidc" d="M100.000 339.300 L108.000 339.300"/>
<path class="hid" d="M100.000 344.300 L108.000 344.300"/>
<path class="keep" d="M100.000 349.300 L108.000 349.300"/>
<rect class="seca" x="200.000" y="398.000" width="10.000" height="1.400"/>
<rect class="bal" x="210.000" y="398.000" width="10.000" height="1.400"/>
<rect class="seca" x="220.000" y="398.000" width="10.000" height="1.400"/>
<rect class="bal" x="230.000" y="398.000" width="10.000" height="1.400"/>
<rect class="seca" x="240.000" y="398.000" width="10.000" height="1.400"/>
<rect class="grid" x="388.000" y="372.000" width="196.000" height="38.000"/>
<rect x="388.20" y="372.20" width="195.60" height="37.60" fill="#ffffff"/>
<path class="grid2" d="M388.000 385.000 L584.000 385.000"/>
<path class="grid2" d="M388.000 393.000 L584.000 393.000"/>
<path class="grid2" d="M388.000 401.000 L584.000 401.000"/>
<path class="grid2" d="M450.000 372.000 L450.000 401.000"/>
<path class="grid2" d="M538.000 372.000 L538.000 385.000"/>
<path class="grid2" d="M518.000 385.000 L518.000 401.000"/>
<path class="grid2" d="M535.000 385.000 L535.000 393.000"/>
</g>
<g id="dim">
<path class="dm" d="M82.526 102.522 L81.666 102.130 L80.798 101.754 L79.924 101.394 L79.044 101.050 L78.157 100.722 L77.265 100.410 L76.367 100.114 L75.464 99.835 L74.556 99.572 L73.643 99.325 L72.726 99.096 L71.805 98.883 L70.880 98.686 L69.952 98.507 L69.021 98.345 L68.086 98.199 L67.150 98.071 L66.211 97.959 L65.270 97.865 L64.328 97.787 L63.385 97.727 L62.440 97.684 L61.495 97.659 L60.550 97.650"/>
<path class="ah" d="M82.526 102.522 L80.662 102.285 L81.101 101.298 Z"/>
<path class="ah" d="M60.550 97.650 L62.360 97.143 L62.340 98.223 Z"/>
<path class="ex" d="M46.000 176.800 L46.000 179.000"/>
<path class="dm" d="M46.000 179.000 L46.000 180.500 L46.000 183.500 L46.000 184.500"/>
<circle class="ah" cx="46.000" cy="179.000" r="0.350"/>
<path class="ex" d="M49.000 176.800 L49.000 179.000"/>
<path class="dm" d="M49.000 179.000 L49.000 180.500 L49.904 183.500 L49.904 184.500"/>
<circle class="ah" cx="49.000" cy="179.000" r="0.350"/>
<path class="ex" d="M50.609 176.800 L50.609 179.000"/>
<path class="dm" d="M50.609 179.000 L50.609 180.500 L53.808 183.500 L53.808 184.500"/>
<circle class="ah" cx="50.609" cy="179.000" r="0.350"/>
<path class="ex" d="M60.550 176.800 L60.550 179.000"/>
<path class="dm" d="M60.550 179.000 L60.550 180.500 L60.550 183.500 L60.550 184.500"/>
<circle class="ah" cx="60.550" cy="179.000" r="0.350"/>
<path class="ex" d="M80.204 176.800 L80.204 179.000"/>
<path class="dm" d="M80.204 179.000 L80.204 180.500 L80.204 183.500 L80.204 184.500"/>
<circle class="ah" cx="80.204" cy="179.000" r="0.350"/>
<path class="ex" d="M110.813 176.800 L110.813 179.000"/>
<path class="dm" d="M110.813 179.000 L110.813 180.500 L110.813 183.500 L110.813 184.500"/>
<circle class="ah" cx="110.813" cy="179.000" r="0.350"/>
<path class="ex" d="M131.700 176.800 L131.700 179.000"/>
<path class="dm" d="M131.700 179.000 L131.700 180.500 L131.700 183.500 L131.700 184.500"/>
<circle class="ah" cx="131.700" cy="179.000" r="0.350"/>
<path class="ex" d="M176.500 176.800 L176.500 179.000"/>
<path class="dm" d="M176.500 179.000 L176.500 180.500 L176.500 183.500 L176.500 184.500"/>
<circle class="ah" cx="176.500" cy="179.000" r="0.350"/>
<path class="dm" d="M33.000 41.774 L31.500 41.774 L28.500 41.774 L27.500 41.774"/>
<circle class="ah" cx="33.000" cy="41.774" r="0.350"/>
<path class="dm" d="M33.000 88.092 L31.500 88.092 L28.500 88.092 L27.500 88.092"/>
<circle class="ah" cx="33.000" cy="88.092" r="0.350"/>
<path class="dm" d="M33.000 149.650 L31.500 149.650 L28.500 149.650 L27.500 149.650"/>
<circle class="ah" cx="33.000" cy="149.650" r="0.350"/>
<path class="dm" d="M33.000 158.150 L31.500 158.150 L28.500 158.150 L27.500 158.150"/>
<circle class="ah" cx="33.000" cy="158.150" r="0.350"/>
<path class="dm" d="M33.000 169.650 L31.500 169.650 L28.500 169.650 L27.500 169.650"/>
<circle class="ah" cx="33.000" cy="169.650" r="0.350"/>
<circle class="ah" cx="60.550" cy="149.650" r="0.700"/>
<circle class="ah" cx="74.911" cy="88.092" r="0.700"/>
<circle class="ah" cx="80.204" cy="115.783" r="0.700"/>
<circle class="ah" cx="131.700" cy="158.650" r="0.700"/>
<circle class="ah" cx="95.406" cy="41.774" r="0.700"/>
<circle class="ah" cx="50.609" cy="137.842" r="0.700"/>
<path class="dm" d="M392.030 101.436 L391.256 101.131 L390.477 100.838 L389.694 100.557 L388.906 100.289 L388.115 100.034 L387.319 99.791 L386.519 99.561 L385.716 99.344 L384.910 99.140 L384.100 98.949 L383.287 98.771 L382.472 98.605 L381.654 98.453 L380.834 98.314 L380.012 98.188 L379.187 98.075 L378.361 97.976 L377.534 97.889 L376.705 97.816 L375.875 97.756 L375.045 97.710 L374.214 97.677 L373.382 97.657 L372.550 97.650"/>
<path class="ah" d="M392.030 101.436 L390.156 101.293 L390.544 100.285 Z"/>
<path class="ah" d="M372.550 97.650 L374.358 97.139 L374.341 98.219 Z"/>
<path class="ex" d="M358.000 176.800 L358.000 179.000"/>
<path class="dm" d="M358.000 179.000 L358.000 180.500 L358.000 183.500 L358.000 184.500"/>
<circle class="ah" cx="358.000" cy="179.000" r="0.350"/>
<path class="ex" d="M361.000 176.800 L361.000 179.000"/>
<path class="dm" d="M361.000 179.000 L361.000 180.500 L361.904 183.500 L361.904 184.500"/>
<circle class="ah" cx="361.000" cy="179.000" r="0.350"/>
<path class="ex" d="M362.004 176.800 L362.004 179.000"/>
<path class="dm" d="M362.004 179.000 L362.004 180.500 L365.808 183.500 L365.808 184.500"/>
<circle class="ah" cx="362.004" cy="179.000" r="0.350"/>
<path class="ex" d="M365.550 176.800 L365.550 179.000"/>
<path class="dm" d="M365.550 179.000 L365.550 180.500 L369.712 183.500 L369.712 184.500"/>
<circle class="ah" cx="365.550" cy="179.000" r="0.350"/>
<path class="ex" d="M372.550 176.800 L372.550 179.000"/>
<path class="dm" d="M372.550 179.000 L372.550 180.500 L373.616 183.500 L373.616 184.500"/>
<circle class="ah" cx="372.550" cy="179.000" r="0.350"/>
<path class="ex" d="M417.918 176.800 L417.918 179.000"/>
<path class="dm" d="M417.918 179.000 L417.918 180.500 L417.918 183.500 L417.918 184.500"/>
<circle class="ah" cx="417.918" cy="179.000" r="0.350"/>
<path class="dm" d="M345.000 40.097 L343.500 40.097 L340.500 40.097 L339.500 40.097"/>
<circle class="ah" cx="345.000" cy="40.097" r="0.350"/>
<path class="dm" d="M345.000 149.650 L343.500 149.650 L340.500 149.650 L339.500 149.650"/>
<circle class="ah" cx="345.000" cy="149.650" r="0.350"/>
<path class="dm" d="M345.000 154.650 L343.500 154.650 L340.500 154.650 L339.500 154.650"/>
<circle class="ah" cx="345.000" cy="154.650" r="0.350"/>
<path class="dm" d="M345.000 158.150 L343.500 158.150 L340.500 158.842 L339.500 158.842"/>
<circle class="ah" cx="345.000" cy="158.150" r="0.350"/>
<circle class="ah" cx="372.550" cy="149.650" r="0.700"/>
<circle class="ah" cx="365.550" cy="154.650" r="0.700"/>
<circle class="ah" cx="401.713" cy="40.097" r="0.700"/>
<circle class="ah" cx="362.004" cy="138.379" r="0.700"/>
<circle class="ah" cx="417.918" cy="46.466" r="0.700"/>
<path class="ex" d="M48.000 296.800 L48.000 299.000"/>
<path class="dm" d="M48.000 299.000 L48.000 300.500 L48.000 303.500 L48.000 304.500"/>
<circle class="ah" cx="48.000" cy="299.000" r="0.350"/>
<path class="ex" d="M60.550 296.800 L60.550 299.000"/>
<path class="dm" d="M60.550 299.000 L60.550 300.500 L60.550 303.500 L60.550 304.500"/>
<circle class="ah" cx="60.550" cy="299.000" r="0.350"/>
<path class="ex" d="M67.050 296.800 L67.050 299.000"/>
<path class="dm" d="M67.050 299.000 L67.050 300.500 L67.050 303.500 L67.050 304.500"/>
<circle class="ah" cx="67.050" cy="299.000" r="0.350"/>
<path class="ex" d="M173.050 296.800 L173.050 299.000"/>
<path class="dm" d="M173.050 299.000 L173.050 300.500 L173.050 303.500 L173.050 304.500"/>
<circle class="ah" cx="173.050" cy="299.000" r="0.350"/>
<path class="ex" d="M176.500 296.800 L176.500 299.000"/>
<path class="dm" d="M176.500 299.000 L176.500 300.500 L176.954 303.500 L176.954 304.500"/>
<circle class="ah" cx="176.500" cy="299.000" r="0.350"/>
<path class="dm" d="M33.000 255.650 L31.500 255.650 L28.500 255.650 L27.500 255.650"/>
<circle class="ah" cx="33.000" cy="255.650" r="0.350"/>
<path class="dm" d="M33.000 256.650 L31.500 256.650 L28.500 259.842 L27.500 259.842"/>
<circle class="ah" cx="33.000" cy="256.650" r="0.350"/>
<path class="dm" d="M33.000 269.650 L31.500 269.650 L28.500 269.650 L27.500 269.650"/>
<circle class="ah" cx="33.000" cy="269.650" r="0.350"/>
<path class="dm" d="M33.000 272.650 L31.500 272.650 L28.500 273.842 L27.500 273.842"/>
<circle class="ah" cx="33.000" cy="272.650" r="0.350"/>
<path class="dm" d="M33.000 278.150 L31.500 278.150 L28.500 278.150 L27.500 278.150"/>
<circle class="ah" cx="33.000" cy="278.150" r="0.350"/>
<circle class="ah" cx="60.550" cy="269.650" r="0.700"/>
<circle class="ah" cx="173.050" cy="264.150" r="0.700"/>
<circle class="ah" cx="120.050" cy="255.650" r="0.700"/>
<circle class="ah" cx="119.625" cy="256.650" r="0.700"/>
</g>
<g id="lead">
<circle class="dot" cx="95.406" cy="41.774" r="0.550"/>
<path class="ld" d="M95.406 41.774 L186.000 41.774 L188.200 41.774"/>
<circle class="dot" cx="104.305" cy="52.836" r="0.550"/>
<path class="ld" d="M104.305 52.836 L186.000 52.836 L188.200 52.836"/>
<circle class="dot" cx="74.911" cy="88.092" r="0.550"/>
<path class="ld" d="M74.911 88.092 L186.000 88.092 L188.200 88.092"/>
<circle class="dot" cx="76.864" cy="95.769" r="0.550"/>
<path class="ld" d="M76.864 95.769 L186.000 95.769 L188.200 95.769"/>
<circle class="dot" cx="80.204" cy="115.783" r="0.550"/>
<path class="ld" d="M80.204 115.783 L186.000 115.783 L188.200 115.783"/>
<circle class="dot" cx="50.609" cy="137.842" r="0.550"/>
<path class="ld" d="M50.609 137.842 L186.000 137.842 L188.200 137.842"/>
<circle class="dot" cx="106.729" cy="137.877" r="0.550"/>
<path class="ld" d="M106.729 137.877 L186.000 142.872 L188.200 142.872"/>
<circle class="dot" cx="60.550" cy="149.650" r="0.550"/>
<path class="ld" d="M60.550 149.650 L186.000 149.650 L188.200 149.650"/>
<circle class="dot" cx="131.700" cy="158.650" r="0.550"/>
<path class="ld" d="M131.700 158.650 L186.000 158.650 L188.200 158.650"/>
<circle class="dot" cx="54.946" cy="164.055" r="0.550"/>
<path class="ld" d="M54.946 164.055 L186.000 164.055 L188.200 164.055"/>
<circle class="dot" cx="401.713" cy="40.097" r="0.550"/>
<path class="ld" d="M401.713 40.097 L498.000 40.097 L500.200 40.097"/>
<circle class="dot" cx="417.918" cy="46.466" r="0.550"/>
<path class="ld" d="M417.918 46.466 L498.000 46.466 L500.200 46.466"/>
<circle class="dot" cx="362.004" cy="138.379" r="0.550"/>
<path class="ld" d="M362.004 138.379 L498.000 138.379 L500.200 138.379"/>
<circle class="dot" cx="372.550" cy="149.650" r="0.550"/>
<path class="ld" d="M372.550 149.650 L498.000 149.650 L500.200 149.650"/>
<circle class="dot" cx="365.550" cy="154.650" r="0.550"/>
<path class="ld" d="M365.550 154.650 L498.000 154.680 L500.200 154.680"/>
<circle class="dot" cx="120.050" cy="255.650" r="0.550"/>
<path class="ld" d="M120.050 255.650 L186.000 255.650 L188.200 255.650"/>
<circle class="dot" cx="119.625" cy="256.650" r="0.550"/>
<path class="ld" d="M119.625 256.650 L186.000 260.680 L188.200 260.680"/>
<circle class="dot" cx="173.050" cy="264.150" r="0.550"/>
<path class="ld" d="M173.050 264.150 L186.000 265.710 L188.200 265.710"/>
<circle class="dot" cx="60.550" cy="269.650" r="0.550"/>
<path class="ld" d="M60.550 269.650 L186.000 270.740 L188.200 270.740"/>
<circle class="dot" cx="104.442" cy="273.231" r="0.550"/>
<path class="ld" d="M104.442 273.231 L186.000 275.770 L188.200 275.770"/>
</g>
<g id="text">
<text class="t h tb" x="16.000" y="21.000" font-size="4.80" text-anchor="start">터치스크린 옆 단면 (x611 = 화면 가운데)</text>
<text class="t h tm" x="96.259" y="21.000" font-size="3.10" text-anchor="start">1:1 · 오른쪽 끝(+x)에서 본 방향, 연주자는 왼쪽 · 점선 = x546.8 단면 (왼쪽 경첩 귀·뒤꿈치 멈춤)</text>
<text class="t h tb" x="34.000" y="31.000" font-size="4.40" text-anchor="start">① 사용 25° (뒤로 기울임, 수직에서)</text>
<text class="t h td" x="58.950" y="98.850" font-size="3.20" text-anchor="end">25°</text>
<text class="t h td" x="46.896" y="185.100" font-size="3.20" text-anchor="end" transform="rotate(-90 46.896 185.100)">212</text>
<text class="t h td" x="50.800" y="185.100" font-size="3.20" text-anchor="end" transform="rotate(-90 50.800 185.100)">215</text>
<text class="t h td" x="54.704" y="185.100" font-size="3.20" text-anchor="end" transform="rotate(-90 54.704 185.100)">216.61</text>
<text class="t h td" x="61.446" y="185.100" font-size="3.20" text-anchor="end" transform="rotate(-90 61.446 185.100)">226.55</text>
<text class="t h td" x="81.100" y="185.100" font-size="3.20" text-anchor="end" transform="rotate(-90 81.100 185.100)">246.2</text>
<text class="t h td" x="111.709" y="185.100" font-size="3.20" text-anchor="end" transform="rotate(-90 111.709 185.100)">276.81</text>
<text class="t h td" x="132.596" y="185.100" font-size="3.20" text-anchor="end" transform="rotate(-90 132.596 185.100)">297.7</text>
<text class="t h td" x="177.396" y="185.100" font-size="3.20" text-anchor="end" transform="rotate(-90 177.396 185.100)">342.5</text>
<text class="t h td" x="26.900" y="42.830" font-size="3.20" text-anchor="end">189.23</text>
<text class="t h td" x="26.900" y="89.148" font-size="3.20" text-anchor="end">142.91</text>
<text class="t h td" x="26.900" y="150.706" font-size="3.20" text-anchor="end">81.35</text>
<text class="t h td" x="26.900" y="159.206" font-size="3.20" text-anchor="end">72.85</text>
<text class="t h td" x="26.900" y="170.706" font-size="3.20" text-anchor="end">61.35</text>
<text class="t h" x="189.000" y="42.859" font-size="3.10" text-anchor="start">가장 높은 곳 z189.23 (받침 위 끝)</text>
<text class="t h" x="189.000" y="53.921" font-size="3.10" text-anchor="start">화면 받침 (출력)</text>
<text class="t h" x="189.000" y="89.177" font-size="3.10" text-anchor="start">화면 보이는 영역 가운데 z142.9</text>
<text class="t h" x="189.000" y="96.854" font-size="3.10" text-anchor="start">화면 Waveshare 7-DSI-TOUCH-C</text>
<text class="t h" x="189.000" y="116.868" font-size="3.10" text-anchor="start">받침다리 축 (y246.2, z115.22)</text>
<text class="t h" x="189.000" y="138.927" font-size="3.10" text-anchor="start">가장 앞 y216.61 (모듈 쪽 지킴선 y215까지 1.61)</text>
<text class="t h" x="189.000" y="143.957" font-size="3.10" text-anchor="start">받침다리 (출력)</text>
<text class="t h" x="189.000" y="150.735" font-size="3.10" text-anchor="start">경첩 축 M3×20 (y226.55, z81.35)</text>
<text class="t h" x="189.000" y="159.735" font-size="3.10" text-anchor="start">다리 발끝 (y297.7, z72.35), 수평 아래 39.78°</text>
<text class="t h" x="189.000" y="165.140" font-size="3.10" text-anchor="start">화면 뚜껑 (출력, 윗면 z72.85)</text>
<text class="t h tb" x="346.000" y="31.000" font-size="4.40" text-anchor="start">② 뒤꿈치 22° (받침다리를 넣고 뺄 때)</text>
<text class="t h td" x="370.950" y="98.850" font-size="3.20" text-anchor="end">22°</text>
<text class="t h tm" x="415.737" y="31.000" font-size="2.80" text-anchor="start">받침다리는 빼고 그림</text>
<text class="t h td" x="358.896" y="185.100" font-size="3.20" text-anchor="end" transform="rotate(-90 358.896 185.100)">212</text>
<text class="t h td" x="362.800" y="185.100" font-size="3.20" text-anchor="end" transform="rotate(-90 362.800 185.100)">215</text>
<text class="t h td" x="366.704" y="185.100" font-size="3.20" text-anchor="end" transform="rotate(-90 366.704 185.100)">216</text>
<text class="t h td" x="370.608" y="185.100" font-size="3.20" text-anchor="end" transform="rotate(-90 370.608 185.100)">219.55</text>
<text class="t h td" x="374.512" y="185.100" font-size="3.20" text-anchor="end" transform="rotate(-90 374.512 185.100)">226.55</text>
<text class="t h td" x="418.814" y="185.100" font-size="3.20" text-anchor="end" transform="rotate(-90 418.814 185.100)">271.92</text>
<text class="t h td" x="338.900" y="41.153" font-size="3.20" text-anchor="end">190.9</text>
<text class="t h td" x="338.900" y="150.706" font-size="3.20" text-anchor="end">81.35</text>
<text class="t h td" x="338.900" y="155.706" font-size="3.20" text-anchor="end">76.35</text>
<text class="t h td" x="338.900" y="159.898" font-size="3.20" text-anchor="end">72.85</text>
<text class="t h" x="501.000" y="41.182" font-size="3.10" text-anchor="start">가장 높은 곳 z190.9</text>
<text class="t h" x="501.000" y="47.551" font-size="3.10" text-anchor="start">가장 뒤 y271.92</text>
<text class="t h" x="501.000" y="139.464" font-size="3.10" text-anchor="start">가장 앞 y216 (지킴선까지 1)</text>
<text class="t h" x="501.000" y="150.735" font-size="3.10" text-anchor="start">경첩 축</text>
<text class="t h" x="501.000" y="155.765" font-size="3.10" text-anchor="start">뒤꿈치가 멈춤 블록에 닿음 (y219.55, z76.35)</text>
<text class="t h tb" x="34.000" y="223.000" font-size="4.40" text-anchor="start">③ 접은 상태 (운반, 90°)</text>
<text class="t h td" x="48.896" y="305.100" font-size="3.20" text-anchor="end" transform="rotate(-90 48.896 305.100)">214</text>
<text class="t h td" x="61.446" y="305.100" font-size="3.20" text-anchor="end" transform="rotate(-90 61.446 305.100)">226.55</text>
<text class="t h td" x="67.946" y="305.100" font-size="3.20" text-anchor="end" transform="rotate(-90 67.946 305.100)">233.05</text>
<text class="t h td" x="173.946" y="305.100" font-size="3.20" text-anchor="end" transform="rotate(-90 173.946 305.100)">339.05</text>
<text class="t h td" x="177.850" y="305.100" font-size="3.20" text-anchor="end" transform="rotate(-90 177.850 305.100)">342.5</text>
<text class="t h td" x="26.900" y="256.706" font-size="3.20" text-anchor="end">95.35</text>
<text class="t h td" x="26.900" y="260.898" font-size="3.20" text-anchor="end">94.35</text>
<text class="t h td" x="26.900" y="270.706" font-size="3.20" text-anchor="end">81.35</text>
<text class="t h td" x="26.900" y="274.898" font-size="3.20" text-anchor="end">78.35</text>
<text class="t h td" x="26.900" y="279.206" font-size="3.20" text-anchor="end">72.85</text>
<text class="t h" x="189.000" y="256.735" font-size="3.10" text-anchor="start">접은 높이 z78.35~95.35 (스피커 윗면 z144.65보다 49.3 낮음)</text>
<text class="t h" x="189.000" y="261.765" font-size="3.10" text-anchor="start">화면 유리 위로 z94.35</text>
<text class="t h" x="189.000" y="266.795" font-size="3.10" text-anchor="start">받침 뒤 끝 y339.05 → 뒷면 y342.5까지 3.45</text>
<text class="t h" x="189.000" y="271.825" font-size="3.10" text-anchor="start">경첩 축</text>
<text class="t h" x="189.000" y="276.855" font-size="3.10" text-anchor="start">받침다리 (받침 뒤 클립에)</text>
<text class="t tb" x="346.000" y="222.000" font-size="3.50" text-anchor="start">터치스크린 3판 핵심 숫자 (입체에서 잼)</text>
<text class="t" x="346.000" y="228.402" font-size="3.10" text-anchor="start">· 경첩 축 y226.55 z81.35 (뚜껑 윗면 z72.85 + 8.5), x538.6~559 · 663~683.4 두 곳</text>
<text class="t" x="346.000" y="232.804" font-size="3.10" text-anchor="start">· 사용 25°: 가장 앞 y216.61, 가장 뒤 y276.81, 가장 높은 z189.23, 보이는 영역 가운데 z142.9</text>
<text class="t" x="346.000" y="237.206" font-size="3.10" text-anchor="start">· 뒤꿈치 22°: 가장 앞 y216, 가장 뒤 y271.92, 가장 높은 z190.9 — 뒤꿈치가 멈춤 블록 (y217.55~224.55, z72.85~76.35)에 닿음</text>
<text class="t" x="346.000" y="241.608" font-size="3.10" text-anchor="start">· 접은 상태: 받침 몸 y233.05~339.05, z78.35~95.35 (x611 단면; 경첩 귀만 뚜껑 홈 안 z73.63까지), 화면 유리 z94.35</text>
<text class="t" x="346.000" y="246.010" font-size="3.10" text-anchor="start">· 지킴선 (빨간 점선): 모듈을 위로 빼려면 z72.85 위에서는 y215 앞으로 아무것도 없어야 함 — 모든 자세 통과</text>
<text class="t" x="346.000" y="250.412" font-size="3.10" text-anchor="start">· 받침다리 10 × 6, 축~발끝 67, 발은 뚜껑 주머니 바닥 z69.35 · 뒷벽 y300.7에 닿음</text>
<text class="t" x="346.000" y="254.814" font-size="3.10" text-anchor="start">· 화면: 유리 166.1 × 101, 두께 8, 받침 폭 170.7 (x525.65~696.35)</text>
<text class="t" x="346.000" y="259.216" font-size="3.10" text-anchor="start">· 자석 없음 (D14) · 뚜껑은 가운데 유닛 벽·레일에만 얹힘 (M3×10 4개)</text>
<text class="t tb" x="346.000" y="304.000" font-size="3.50" text-anchor="start">터치스크린 부품 (사용 상태)</text>
<text class="t tb" x="347.000" y="309.452" font-size="2.80" text-anchor="start">부품</text>
<text class="t tb" x="413.000" y="309.452" font-size="2.80" text-anchor="start">재료</text>
<text class="t tb" x="463.000" y="309.452" font-size="2.80" text-anchor="start">자기 크기 (기울기 풀어 잼)</text>
<text class="t tb" x="512.000" y="309.452" font-size="2.80" text-anchor="middle">수량</text>
<text class="t" x="347.000" y="313.452" font-size="2.80" text-anchor="start">화면 받침(크래들)</text>
<text class="t" x="413.000" y="313.452" font-size="2.80" text-anchor="start">PETG</text>
<text class="t" x="463.000" y="313.452" font-size="2.80" text-anchor="start">170.7 × 119.8 × 21.7</text>
<text class="t" x="512.000" y="313.452" font-size="2.80" text-anchor="middle">1</text>
<text class="t" x="347.000" y="317.452" font-size="2.80" text-anchor="start">받침다리</text>
<text class="t" x="413.000" y="317.452" font-size="2.80" text-anchor="start">PETG</text>
<text class="t" x="463.000" y="317.452" font-size="2.80" text-anchor="start">73 × 10 × 6</text>
<text class="t" x="512.000" y="317.452" font-size="2.80" text-anchor="middle">1</text>
<text class="t" x="347.000" y="321.452" font-size="2.80" text-anchor="start">점검창 덮개</text>
<text class="t" x="413.000" y="321.452" font-size="2.80" text-anchor="start">PETG</text>
<text class="t" x="463.000" y="321.452" font-size="2.80" text-anchor="start">39 × 32.5 × 5.9</text>
<text class="t" x="512.000" y="321.452" font-size="2.80" text-anchor="middle">1</text>
<text class="t" x="347.000" y="325.452" font-size="2.80" text-anchor="start">리본 클립</text>
<text class="t" x="413.000" y="325.452" font-size="2.80" text-anchor="start">PETG</text>
<text class="t" x="463.000" y="325.452" font-size="2.80" text-anchor="start">30 × 12 × 7.5</text>
<text class="t" x="512.000" y="325.452" font-size="2.80" text-anchor="middle">1</text>
<text class="t" x="347.000" y="329.452" font-size="2.80" text-anchor="start">M3×20 둥근머리 렌치볼트</text>
<text class="t" x="413.000" y="329.452" font-size="2.80" text-anchor="start">SUS304</text>
<text class="t" x="463.000" y="329.452" font-size="2.80" text-anchor="start">21.6 × 5.7 × 5.7</text>
<text class="t" x="512.000" y="329.452" font-size="2.80" text-anchor="middle">3</text>
<text class="t" x="347.000" y="333.452" font-size="2.80" text-anchor="start">M2.5×6 둥근머리 나사</text>
<text class="t" x="413.000" y="333.452" font-size="2.80" text-anchor="start">강</text>
<text class="t" x="463.000" y="333.452" font-size="2.80" text-anchor="start">7.8 × 4.5 × 4.5</text>
<text class="t" x="512.000" y="333.452" font-size="2.80" text-anchor="middle">4</text>
<text class="t" x="347.000" y="337.452" font-size="2.80" text-anchor="start">CU 화면 뚜껑</text>
<text class="t" x="413.000" y="337.452" font-size="2.80" text-anchor="start">PETG</text>
<text class="t" x="463.000" y="337.452" font-size="2.80" text-anchor="start">219 × 128.5 × 25.5</text>
<text class="t" x="512.000" y="337.452" font-size="2.80" text-anchor="middle">1</text>
<text class="t tb" x="16.000" y="330.000" font-size="3.10" text-anchor="start">범례</text>
<text class="t" x="26.000" y="335.400" font-size="2.80" text-anchor="start">오꾸메 합판 11.5T</text>
<text class="t" x="26.000" y="340.400" font-size="2.80" text-anchor="start">출력물 PETG</text>
<text class="t" x="26.000" y="345.400" font-size="2.80" text-anchor="start">구매 금속 (스피커·나사·인서트·자석)</text>
<text class="t" x="26.000" y="350.400" font-size="2.80" text-anchor="start">화면 (Waveshare 7&quot;)</text>
<text class="t" x="26.000" y="355.400" font-size="2.80" text-anchor="start">케이블</text>
<text class="t" x="110.000" y="335.400" font-size="2.80" text-anchor="start">건반 모듈 (참고, 연한 회색)</text>
<text class="t" x="110.000" y="340.400" font-size="2.80" text-anchor="start">x546.8 단면 (경첩 귀)</text>
<text class="t" x="110.000" y="345.400" font-size="2.80" text-anchor="start">x546.8 단면 (뚜껑)</text>
<text class="t" x="110.000" y="350.400" font-size="2.80" text-anchor="start">지킴선 (y215 / z72.85)</text>
<text class="t" x="200.000" y="402.600" font-size="2.80" text-anchor="middle">0</text>
<text class="t" x="210.000" y="402.600" font-size="2.80" text-anchor="middle">10</text>
<text class="t" x="220.000" y="402.600" font-size="2.80" text-anchor="middle">20</text>
<text class="t" x="230.000" y="402.600" font-size="2.80" text-anchor="middle">30</text>
<text class="t" x="240.000" y="402.600" font-size="2.80" text-anchor="middle">40</text>
<text class="t" x="250.000" y="402.600" font-size="2.80" text-anchor="middle">50</text>
<text class="t" x="253.000" y="399.600" font-size="2.80" text-anchor="start">mm  1:1</text>
<text class="t tb" x="391.000" y="381.200" font-size="6.50" text-anchor="start">Toccata</text>
<text class="t tm" x="453.000" y="376.400" font-size="2.40" text-anchor="start">도면 이름</text>
<text class="t tb" x="453.000" y="382.600" font-size="4.40" text-anchor="start">터치스크린: 사용 25° / 뒤꿈치 22° / 접은 상태</text>
<text class="t tm" x="541.000" y="376.400" font-size="2.40" text-anchor="start">도면 번호</text>
<text class="t tb" x="541.000" y="382.800" font-size="5.20" text-anchor="start">D05 / D06</text>
<text class="t" x="391.000" y="390.600" font-size="2.80" text-anchor="start">뒷부분(L2) + 터치스크린 3판 도면 모음</text>
<text class="t tm" x="453.000" y="388.600" font-size="2.20" text-anchor="start">척도 (A2 594×420 출력 기준)</text>
<text class="t" x="453.000" y="392.300" font-size="2.80" text-anchor="start">1:1</text>
<text class="t tm" x="521.000" y="388.600" font-size="2.20" text-anchor="start">단위</text>
<text class="t" x="521.000" y="392.300" font-size="2.80" text-anchor="start">mm</text>
<text class="t tm" x="538.000" y="388.600" font-size="2.20" text-anchor="start">날짜</text>
<text class="t" x="538.000" y="392.300" font-size="2.80" text-anchor="start">2026-10-02</text>
<text class="t" x="391.000" y="398.600" font-size="2.50" text-anchor="start">좌표: x 가로(0 = A0 왼쪽 끝) · y 흰 건반 앞 끝에서 뒤로 · z 책상에서 위로</text>
<text class="t tm" x="521.000" y="396.600" font-size="2.20" text-anchor="start">설계 상태</text>
<text class="t" x="521.000" y="400.300" font-size="2.40" text-anchor="start">L2 · 스피커 앞판 40° · 터치스크린 3판</text>
<text class="t tm" x="391.000" y="404.700" font-size="2.20" text-anchor="start">원본 (모든 선과 숫자는 이 생성기의 입체에서 계산)</text>
<text class="t" x="391.000" y="408.500" font-size="2.30" text-anchor="start">src/body.py · electronics.py · touchscreen_rev3.py · keyaction_parts.py (build_all.collect) · spec/body_L2.json</text>
</g>
</svg>